<?xml version="1.0" encoding="utf-8" ?>
<svg baseProfile="full" height="200mm" version="1.1" viewBox="0,0,200,200" width="200mm" xmlns="http://www.w3.org/2000/svg" xmlns:ev="http://www.w3.org/2001/xml-events" xmlns:xlink="http://www.w3.org/1999/xlink"><defs /><rect fill="#1a1a1a" height="200" width="200" x="0" y="0" /><rect fill="#1a1a1a" height="200" width="180" x="10" y="0" /><text alignment-baseline="middle" fill="#e1ed5e" style="dominant-baseline: central; font-size:9.0px; font-family:Arial;" text-anchor="middle" x="100.0" y="100.0">2025</text><line stroke="#e1ed5e" stroke-width="0.3" x1="100.0" x2="100.0" y1="15.0" y2="10.0" /><path d="M 100.0 14.0 a86.0,86.0 0 0,1 42.46469731375804,11.215312516191453" fill="none" id="id85" stroke="none" /><text fill="#e1ed5e" style="font-size:6.75px; font-family:Arial;" text-anchor="middle"><textPath startOffset="22.20632615414155" xlink:href="#id85">January</textPath></text><path d="M 103.59715602781102 79.31037775812273 l 2.968728151839503 -17.075118100385186 a38.33127245708249,38.33127245708249 0 0,0 0.6490851190510729,0.11861615665891427 l -3.262208391993476 17.02148646237553" fill="red" stroke="none" /><line stroke="#e1ed5e" stroke-width="0.3" x1="143.23703022742887" x2="145.7803849466894" y1="26.81831364943548" y2="22.513508569990506" /><path d="M 143.74570117128098 25.957352633546492 a86.0,86.0 0 0,1 28.547481713284135,27.462654790039103" fill="none" id="id86" stroke="none" /><text fill="#e1ed5e" style="font-size:6.75px; font-family:Arial;" text-anchor="middle"><textPath startOffset="19.985693538727396" xlink:href="#id86">February</textPath></text><path d="M 116.60985879189232 87.15038557335679 l 8.662619080608359 -6.701520856097445 a31.952230417610334,31.952230417610334 0 0,0 0.33279626456353817,0.4379208742259702 l -8.776691285396009 6.551415205990441" fill="red" stroke="none" /><path d="M 117.45458315368197 88.32363383020206 l 8.44416491993062 -5.648783516349617 a31.159363976626196,31.159363976626196 0 0,0 0.2943867930033193,0.4483712824610108 l -8.540148348291863 5.502594169910932" fill="red" stroke="none" /><line stroke="#e1ed5e" stroke-width="0.3" x1="172.23445277983987" x2="176.4835382374775" y1="55.19839476539836" y2="52.563006222186495" /><path d="M 173.08426987136738 54.67131705675599 a86.0,86.0 0 0,1 12.851231095245387,41.99856678651699" fill="none" id="id87" stroke="none" /><text fill="#e1ed5e" style="font-size:6.75px; font-family:Arial;" text-anchor="middle"><textPath startOffset="22.20632615414155" xlink:href="#id87">March</textPath></text><path d="M 117.84615892207809 88.93136811851018 l 32.88426905690288 -20.395642024258095 a59.695702151381916,59.695702151381916 0 0,0 0.5340894925931303,0.877902696446576 l -33.230474347782234 19.82657155460444" fill="red" stroke="none" /><path d="M 119.04729006885535 91.15688171328212 l 30.15297195541766 -13.999172414234641 a54.244225754673124,54.244225754673124 0 0,0 0.3859029355173955,0.8502859650400447 l -30.3894772078984 13.478064440352535" fill="red" stroke="none" /><path d="M 119.97218684219823 93.5106431181261 l 47.10406652724896 -15.305038987368345 a70.5281465614085,70.5281465614085 0 0,0 0.36521662754978196,1.1578365137761286 l -47.36053863856695 14.491952307165796" fill="red" stroke="none" /><path d="M 120.6074358757038 95.95851677861258 l 43.24747078596983 -8.48159511950784 a65.07131930353995,65.07131930353995 0 0,0 0.20610341417644568,1.1010126798562507 l -43.38705992405613 7.735904362189027" fill="red" stroke="none" /><path d="M 120.94382443527127 98.46500227214037 l 25.54500543558551 -1.8722237394117016 a46.61352229652357,46.61352229652357 0 0,0 0.051761894817020475,0.800733602462377 l -25.573447921406945 1.4322310726962895" fill="red" stroke="none" /><line stroke="#e1ed5e" stroke-width="0.3" x1="184.98032266829074" x2="189.97916517819016" y1="98.17113171792111" y2="98.06355123074" /><path d="M 185.9800911702706 98.14961562048488 a86.0,86.0 0 0,1 -9.607161424134198,41.387399972396054" fill="none" id="id88" stroke="none" /><text fill="#e1ed5e" style="font-size:6.75px; font-family:Arial;" text-anchor="middle"><textPath startOffset="21.466115282336823" xlink:href="#id88">April</textPath></text><path d="M 120.9764740272857 100.99374915477107 l 24.303832140305992 1.1513809525714693 a45.33108988109893,45.33108988109893 0 0,0 -0.043633654511543093,0.7791082127347475 l -24.280412134906918 -1.5695608816416402" fill="red" stroke="none" /><path d="M 120.70491114924044 103.5080841355445 l 14.652922466514337 2.4826807743161106 a35.86175765637562,35.86175765637562 0 0,0 -0.10835981463175577,0.6077393864596918 l -14.608016209543393 -2.734538911509021" fill="red" stroke="none" /><path d="M 120.49622156327973 104.57218783832717 l 20.142193309207084 4.493213102779072 a41.63727005425989,41.63727005425989 0 0,0 -0.1620669947824735,0.698180371835568 l -20.061865748494057 -4.839262131963205" fill="red" stroke="none" /><path d="M 119.26925614724726 108.34839909993367 l 16.357285307220394 7.086788659232443 a38.8264790725043,38.8264790725043 0 0,0 -0.2709698407890554,0.6109654570305187 l -16.232874381700064 -7.36730245275565" fill="red" stroke="none" /><line stroke="#e1ed5e" stroke-width="0.3" x1="174.80103733775053" x2="179.2010983576182" y1="140.37084112569926" y2="142.7455964860345" /><path d="M 175.68104954172406 140.8457921977663 a86.0,86.0 0 0,1 -30.038265399797805,32.042727171017184" fill="none" id="id89" stroke="none" /><text fill="#e1ed5e" style="font-size:6.75px; font-family:Arial;" text-anchor="middle"><textPath startOffset="22.206326154141568" xlink:href="#id89">May</textPath></text><path d="M 118.48025628344425 109.97397251340804 l 20.99803870637634 11.332843964967068 a44.86107671184956,44.86107671184956 0 0,0 -0.37261095599771754,0.6763971173042489 l -20.799851340927113 -11.692611600669123" fill="red" stroke="none" /><path d="M 117.75023020441432 111.22182372390056 l 28.32518119347201 17.90738410939802 a54.511047361796095,54.511047361796095 0 0,0 -0.5082379983649022,0.7887966599480238 l -28.012738331730056 -18.392302369267494" fill="red" stroke="none" /><path d="M 116.71984013943494 112.70617746262583 l 26.750025066576175 20.328577473892828 a54.5978407516691,54.5978407516691 0 0,0 -0.5750795318515588,0.743367816419163 l -26.39613871750655 -20.786023284425244" fill="red" stroke="none" /><path d="M 116.498646956653 112.99209946851258 l 13.23807248038225 10.424512682062748 a37.849837615073355,37.849837615073355 0 0,0 -0.40748430078097675,0.5083993187997702 l -13.05667026754642 -10.650839834440768" fill="red" stroke="none" /><path d="M 115.07121518719521 114.62390073753431 l 23.821987807739294 23.114949972123977 a54.19319230393295,54.19319230393295 0 0,0 -0.6553747258929511,0.6638911372247922 l -23.420572456790808 -23.521581603329434" fill="red" stroke="none" /><path d="M 113.75828350139079 115.86535959552629 l 12.653941941014303 14.591888528449754 a40.31438472934782,40.31438472934782 0 0,0 -0.5281847156951751,0.4501304734381215 l -12.400891748742081 -14.807543392110823" fill="red" stroke="none" /><path d="M 113.20401910651253 116.32954008644616 l 21.104592586579052 26.1002568892587 a54.56526832800214,54.56526832800214 0 0,0 -0.7354423980051542,0.5842799200084716 l -20.65219269585655 -26.459670723272296" fill="red" stroke="none" /><path d="M 111.1453310114006 117.79835938074945 l 13.080109708544049 20.8880734985942 a45.64550434603077,45.64550434603077 0 0,0 -0.6695126080075084,0.411269326652591 l -12.718617900604231 -21.110131292075167" fill="red" stroke="none" /><line stroke="#e1ed5e" stroke-width="0.3" x1="143.8653032363475" x2="146.44561519142675" y1="172.8068346515853" y2="177.08958963109032" /><path d="M 144.38136562736335 173.6633856474863 a86.0,86.0 0 0,1 -40.68145358897372,12.25698825130547" fill="none" id="id90" stroke="none" /><text fill="#e1ed5e" style="font-size:6.75px; font-family:Arial;" text-anchor="middle"><textPath startOffset="21.466115282336833" xlink:href="#id90">June</textPath></text><path d="M 109.57404056367764 118.69057910512821 l 3.0528755567962778 5.959867384402949 a27.696272724804018,27.696272724804018 0 0,0 -0.4261877287034744,0.21369937468403818 l -2.9498339204100428 -6.011534599996289" fill="red" stroke="none" /><path d="M 108.92500713936063 119.00905698771935 l 7.1876173818006395 15.308652002530321 a37.9120273699441,37.9120273699441 0 0,0 -0.593110206493723,0.27226780558266794 l -6.923039179539497 -15.430106878447063" fill="red" stroke="none" /><path d="M 108.59647513512805 119.15986991738527 l 18.31561870218868 40.8219492610836 a65.74252373211024,65.74252373211024 0 0,0 -1.0364757335011272,0.4543605023528449 l -17.6102222940298 -41.131174316730906" fill="red" stroke="none" /><path d="M 107.2578585660854 119.70592522655815 l 4.140393492842519 11.241647083030594 a32.9798784390737,32.9798784390737 0 0,0 -0.5344003583631398,0.19161695545498017 l -3.9462735738496444 -11.311251579525534" fill="red" stroke="none" /><path d="M 106.57524785965236 119.94407469862006 l 10.317868217041744 31.296209487999132 a53.95316574869503,53.95316574869503 0 0,0 -0.88452015866887,0.283195422579794 l -9.777626713281933 -31.469177757238633" fill="red" stroke="none" /><path d="M 106.2309692047433 120.05430185196036 l 4.90998003623181 15.802713590485226 a37.54792013453961,37.54792013453961 0 0,0 -0.6188702293468157,0.18646052343229325 l -4.637234832444748 -15.884889483023246" fill="red" stroke="none" /><path d="M 104.83641907484287 120.43548508189849 l 3.0435523297517078 12.860024590122848 a34.215273105104615,34.215273105104615 0 0,0 -0.5742949691699857,0.13070766523919508 l -2.8217372111888603 -12.910508988939727" fill="red" stroke="none" /><path d="M 104.13013068566511 120.58985236759428 l 12.390392056995317 61.76955710278282 a84.0,84.0 0 0,0 -1.4201295417131825,0.2721712066061275 l -11.32529490071043 -61.973685507737414" fill="red" stroke="none" /><path d="M 103.06178313531738 120.77559828337769 l 2.5677988692228153 17.423689210423067 a38.611886234421206,38.611886234421206 0 0,0 -0.658372023852049,0.09124436340634999 l -2.267498254183936 -17.46530813932202" fill="red" stroke="none" /><path d="M 102.34483914955558 120.86867818915974 l 1.9815075195977632 17.635087150316085 a38.746060713563054,38.746060713563054 0 0,0 -0.6634200210732161,0.06876619774504872 l -1.6776549019189444 -17.666582716516892" fill="red" stroke="none" /><path d="M 101.62511606390274 120.93702456842531 l 4.750045800783597 61.19675255274821 a82.38082321142195,82.38082321142195 0 0,0 -1.4147425070345823,0.0975689263513955 l -3.695940532970084 -61.26944982361589" fill="red" stroke="none" /><line stroke="#e1ed5e" stroke-width="0.3" x1="102.19456741930631" x2="102.32365962044197" y1="184.97166512339345" y2="189.96999836594603" /><path d="M 102.22038585953345 185.97133177190398 a86.0,86.0 0 0,1 -42.740103519485714,-10.115201625700543" fill="none" id="id91" stroke="none" /><text fill="#e1ed5e" style="font-size:6.75px; font-family:Arial;" text-anchor="middle"><textPath startOffset="22.20632615414155" xlink:href="#id91">July</textPath></text><path d="M 100.54218724476979 120.99299961872073 l 1.5169163634096365 58.733629287443925 a79.75321475909612,79.75321475909612 0 0,0 -1.3726679368849692,0.023631723376120704 l -0.5056887366319992 -58.751038488099205" fill="red" stroke="none" /><path d="M 99.81925306533755 120.99922214144158 l -0.14774313012304421 17.16483222866122 a38.16546805276761,38.16546805276761 0 0,0 -0.656882790875419,-0.011308832957612027 l 0.4431856108911311 -17.159745918424445" fill="red" stroke="none" /><path d="M 99.09653310690486 120.98055641714683 l -2.620120804739924 60.845165200533245 a81.90155302873329,81.90155302873329 0 0,0 -1.4079732313732416,-0.07277613361866342 l 3.6670821045266546 -60.79104926015238" fill="red" stroke="none" /><path d="M 98.01472825383883 120.90594882070398 l -1.8529296561474466 19.51231746217488 a40.60009900626335,40.60009900626335 0 0,0 -0.6951653417732354,-0.07205673003438456 l 2.1885275945262754 -19.477531363684736" fill="red" stroke="none" /><path d="M 97.2962882734958 120.8252237178851 l -2.147015527477617 16.537295099616856 a37.67608481889684,37.67608481889684 0 0,0 -0.6424156556984209,-0.08903295617501084 l 2.4313597743628685 -16.49788757794924" fill="red" stroke="none" /><path d="M 96.58105272829116 120.7198165907248 l -8.919553628588556 54.05509373741144 a75.78605293223454,75.78605293223454 0 0,0 -1.285299080947095,-0.22346572027839193 l 9.848701681007702 -53.89354943861205" fill="red" stroke="none" /><path d="M 95.51606077576429 120.51570834832081 l -2.6295524416198996 12.031191387988546 a33.31519842542697,33.31519842542697 0 0,0 -0.5591874363781731,-0.127269239961679 l 2.8362600273909355 -11.98414541444918" fill="red" stroke="none" /><path d="M 94.81253420990036 120.34920634021253 l -10.690736898057377 41.937242551591766 a64.27844923578621,64.27844923578621 0 0,0 -1.0698063013887527,-0.28254556751493565 l 11.41103364225762 -41.747005634773245" fill="red" stroke="none" /><path d="M 94.11515582081647 120.15858648285463 l -11.831321529085317 40.528297944435316 a63.21993727372789,63.21993727372789 0 0,0 -1.0420001145121487,-0.3139460868452331 l 12.527196618037712 -40.31863648848436" fill="red" stroke="none" /><path d="M 93.08242187328487 119.8279376855182 l -4.398810322660706 12.608363125137199 a34.35366440158153,34.35366440158153 0 0,0 -0.556660953169004,-0.19959881275833474 l 4.615190836459437 -12.530776771338907" fill="red" stroke="none" /><path d="M 92.40401165467489 119.57807347666478 l -4.195795076659006 10.81433785432466 a32.599767219767614,32.599767219767614 0 0,0 -0.5214083207172121,-0.2074791314547434 l 4.381324473418076 -10.740511878463852" fill="red" stroke="none" /><path d="M 91.7346041902142 119.30500536409082 l -20.664368567299856 48.26456653956805 a73.50223339570996,73.50223339570996 0 0,0 -1.1588128497047974,-0.5079894989400856 l 21.4921020916624 -47.90171248733352" fill="red" stroke="none" /><path d="M 90.10565033884886 118.52300852407294 l -16.31756695686538 30.547781530391518 a55.632787179496745,55.632787179496745 0 0,0 -0.840789407759001,-0.4584654233367315 l 16.840979176493022 -30.26237545529502" fill="red" stroke="none" /><line stroke="#e1ed5e" stroke-width="0.3" x1="58.666819895761336" x2="56.23545636021788" y1="174.27360380694188" y2="178.64263932499728" /><path d="M 58.180547188652646 175.14741091055294 a86.0,86.0 0 0,1 -31.652253787137756,-30.449443065178592" fill="none" id="id92" stroke="none" /><text fill="#e1ed5e" style="font-size:6.75px; font-family:Arial;" text-anchor="middle"><textPath startOffset="22.20632615414155" xlink:href="#id92">August</textPath></text><path d="M 87.95078237400918 117.19931262002967 l -6.881875902606632 9.823337807914083 a32.994089445525745,32.994089445525745 0 0,0 -0.46234566030131896,-0.3298713525863434 l 7.049948890756838 -9.703422193483519" fill="red" stroke="none" /><path d="M 87.36589467227662 116.77436683061367 l -3.554910433946017 4.719872925084431 a26.90885679487355,26.90885679487355 0 0,0 -0.36758942683485973,-0.28185189767969143 l 3.635628589274363 -4.657981685577373" fill="red" stroke="none" /><path d="M 86.51685102203217 116.09983520530335 l -3.76283382682034 4.493090198420333 a26.860612420166024,26.860612420166024 0 0,0 -0.351918180812894,-0.2999123083906377 l 3.83961748421029 -4.427653499806744" fill="red" stroke="none" /><path d="M 84.67929136418377 114.36230785411682 l -20.574629782762653 19.287565213120107 a49.201517025651384,49.201517025651384 0 0,0 -0.5739089679758382,-0.6228648363399868 l 20.90358515873422 -18.930549121978775" fill="red" stroke="none" /><path d="M 83.06392112726016 112.41649034213515 l -12.220336463808515 8.959198337505947 a36.15268484920931,36.15268484920931 0 0,0 -0.3636275047632962,-0.5050468003558951 l 12.372743760947419 -8.747517931698916" fill="red" stroke="none" /><line stroke="#e1ed5e" stroke-width="0.3" x1="26.63291911575756" x2="22.317208475507996" y1="142.92168965132927" y2="145.44649492493687" /><path d="M 25.769776987707644 143.4266507060508 a86.0,86.0 0 0,1 -11.730757126820373,-40.83630448921669" fill="none" id="id93" stroke="none" /><text fill="#e1ed5e" style="font-size:6.75px; font-family:Arial;" text-anchor="middle"><textPath startOffset="21.46611528233685" xlink:href="#id93">September</textPath></text><path d="M 81.69416730710424 110.29060199501025 l -11.774105842295382 6.618799543448698 a34.50696397351866,34.50696397351866 0 0,0 -0.28661088358039466,-0.5202820054571536 l 11.886293135327293 -6.4151470195937215" fill="red" stroke="none" /><line stroke="#e1ed5e" stroke-width="0.3" x1="15.007084014347285" x2="10.007500721073583" y1="101.09737516637583" y2="101.16192664675087" /><path d="M 14.007167355692545 101.11028546245083 a86.0,86.0 0 0,1 10.666146001902534,-42.60595125391555" fill="none" id="id94" stroke="none" /><text fill="#e1ed5e" style="font-size:6.75px; font-family:Arial;" text-anchor="middle"><textPath startOffset="22.20632615414155" xlink:href="#id94">October</textPath></text><line stroke="#e1ed5e" stroke-width="0.3" x1="26.266209847984243" x2="21.928928074336255" y1="57.711370442889674" y2="55.22380399835377" /><path d="M 25.398753493254645 57.213857153982495 a86.0,86.0 0 0,1 29.58750427330803,-30.492523968695096" fill="none" id="id95" stroke="none" /><text fill="#e1ed5e" style="font-size:6.75px; font-family:Arial;" text-anchor="middle"><textPath startOffset="21.46611528233685" xlink:href="#id95">November</textPath></text><line stroke="#e1ed5e" stroke-width="0.3" x1="56.762969772571076" x2="54.21961505331055" y1="26.818313649435495" y2="22.513508569990535" /><path d="M 56.25429882871897 25.957352633546506 a86.0,86.0 0 0,1 42.265352541879196,-11.944610805530505" fill="none" id="id96" stroke="none" /><text fill="#e1ed5e" style="font-size:6.75px; font-family:Arial;" text-anchor="middle"><textPath startOffset="22.20632615414155" xlink:href="#id96">December</textPath></text></svg>