<?xml version="1.0" encoding="utf-8" ?>
<svg baseProfile="full" height="200mm" version="1.1" viewBox="0,0,200,200" width="200mm" xmlns="http://www.w3.org/2000/svg" xmlns:ev="http://www.w3.org/2001/xml-events" xmlns:xlink="http://www.w3.org/1999/xlink"><defs /><rect fill="#1a1a1a" height="200" width="200" x="0" y="0" /><rect fill="#1a1a1a" height="200" width="180" x="10" y="0" /><text alignment-baseline="middle" fill="#e1ed5e" style="dominant-baseline: central; font-size:9.0px; font-family:Arial;" text-anchor="middle" x="100.0" y="100.0">2026</text><line stroke="#e1ed5e" stroke-width="0.3" x1="100.0" x2="100.0" y1="15.0" y2="10.0" /><path d="M 100.0 14.0 a86.0,86.0 0 0,1 42.46469731375804,11.215312516191453" fill="none" id="id97" stroke="none" /><text fill="#e1ed5e" style="font-size:6.75px; font-family:Arial;" text-anchor="middle"><textPath startOffset="22.20632615414155" xlink:href="#id97">January</textPath></text><line stroke="#e1ed5e" stroke-width="0.3" x1="143.23703022742887" x2="145.7803849466894" y1="26.81831364943548" y2="22.513508569990506" /><path d="M 143.74570117128098 25.957352633546492 a86.0,86.0 0 0,1 28.547481713284135,27.462654790039103" fill="none" id="id98" stroke="none" /><text fill="#e1ed5e" style="font-size:6.75px; font-family:Arial;" text-anchor="middle"><textPath startOffset="19.985693538727396" xlink:href="#id98">February</textPath></text><line stroke="#e1ed5e" stroke-width="0.3" x1="172.23445277983987" x2="176.4835382374775" y1="55.19839476539836" y2="52.563006222186495" /><path d="M 173.08426987136738 54.67131705675599 a86.0,86.0 0 0,1 12.851231095245387,41.99856678651699" fill="none" id="id99" stroke="none" /><text fill="#e1ed5e" style="font-size:6.75px; font-family:Arial;" text-anchor="middle"><textPath startOffset="22.20632615414155" xlink:href="#id99">March</textPath></text><path d="M 117.84615892207809 88.93136811851018 l 12.698287520056882 -7.875793928459497 a35.94237718522698,35.94237718522698 0 0,0 0.3215716592924671,0.5285792563021258 l -12.831974977635571 7.65604689895029" fill="red" stroke="none" /><path d="M 118.56541770881063 90.18545643968196 l 19.961484701806814 -10.552569525086982 a43.57914070734894,43.57914070734894 0 0,0 0.3448781950737794,0.6661949003577915 l -20.140172330040713 10.207401902468845" fill="red" stroke="none" /><path d="M 119.61058180528143 92.48833698450437 l 34.179902402185704 -13.092314715446262 a57.60156325665928,57.60156325665928 0 0,0 0.34669396622738635,0.9289674640938946 l -34.400200956914716 12.502024114323033" fill="red" stroke="none" /><path d="M 120.37134235888165 94.90015583598534 l 10.9505888843372 -2.7414146711820617 a32.28852299076995,32.28852299076995 0 0,0 0.13033369893532,0.5403173250886362 l -10.99615538353334 2.5525121144340197" fill="red" stroke="none" /><path d="M 120.53481517161879 95.60439243477599 l 19.67680805402934 -4.211945694124988 a41.1225560435391,41.1225560435391 0 0,0 0.14220709398365755,0.6934522940857909 l -19.746394443927993 3.872617743875785" fill="red" stroke="none" /><path d="M 120.73433829027371 96.67025291283417 l 4.72622079018662 -0.7589882874057584 a25.786776177973163,25.786776177973163 0 0,0 0.06660860165975711,0.4388674616454438 l -4.7385852852856765 0.6775217133682324" fill="red" stroke="none" /><path d="M 120.83666639777658 97.38593545837742 l 22.500122145411385 -2.8227534270440193 a43.67649517602578,43.67649517602578 0 0,0 0.08716507118417582,0.7467770990941153 l -22.54537756959915 2.4350325896250515" fill="red" stroke="none" /><line stroke="#e1ed5e" stroke-width="0.3" x1="184.98032266829074" x2="189.97916517819016" y1="98.17113171792111" y2="98.06355123074" /><path d="M 185.9800911702706 98.14961562048488 a86.0,86.0 0 0,1 -9.607161424134198,41.387399972396054" fill="none" id="id100" stroke="none" /><text fill="#e1ed5e" style="font-size:6.75px; font-family:Arial;" text-anchor="middle"><textPath startOffset="21.466115282336823" xlink:href="#id100">April</textPath></text><path d="M 120.92983693683757 101.71520430193887 l 28.960191870979358 2.373293486804598 a50.0572750817837,50.0572750817837 0 0,0 -0.07776851470536618,0.8581690794279051 l -28.915048759996917 -2.8714439547810735" fill="red" stroke="none" /><path d="M 120.76222939487914 103.15116336523771 l 13.611736281130977 2.065905538879945 a34.76761890388575,34.76761890388575 0 0,0 -0.09489613907647787,0.5909183486146662 l -13.574158387693211 -2.2999031171878164" fill="red" stroke="none" /><line stroke="#e1ed5e" stroke-width="0.3" x1="174.80103733775053" x2="179.2010983576182" y1="140.37084112569926" y2="142.7455964860345" /><path d="M 175.68104954172406 140.8457921977663 a86.0,86.0 0 0,1 -30.038265399797805,32.042727171017184" fill="none" id="id101" stroke="none" /><text fill="#e1ed5e" style="font-size:6.75px; font-family:Arial;" text-anchor="middle"><textPath startOffset="22.206326154141568" xlink:href="#id101">May</textPath></text><path d="M 113.48314897796784 116.09983520530334 l 7.694050599599804 9.187241564803369 a32.98348122205116,32.98348122205116 0 0,0 -0.43841308922189215,0.36078412541846433 l -7.534767381833221 -9.318320809079012" fill="red" stroke="none" /><path d="M 112.63410532772338 116.77436683061366 l 37.90231598317012 50.32310049184099 a84.0,84.0 0 0,0 -1.1624601183257428,0.8599602050409239 l -37.03047089442582 -50.96807064562168" fill="red" stroke="none" /><path d="M 112.34349029814194 116.9893568818739 l 18.80996195603416 25.889691561036006 a53.00141868594315,53.00141868594315 0 0,0 -0.7427080525958357,0.5299024754052755 l -18.36152657558944 -26.209638298285498" fill="red" stroke="none" /><path d="M 112.04921762599082 117.19931262002967 l 22.268004585579707 31.785829103584277 a59.80983071369501,59.80983071369501 0 0,0 -0.8482831576164229,0.5834568908673765 l -21.7175645433404 -32.16442678381675" fill="red" stroke="none" /><path d="M 111.7513745106137 117.40417183066458 l 26.649854443139876 39.469310213174694 a68.62395605726553,68.62395605726553 0 0,0 -0.9846730586957618,0.6525876107227777 l -25.96650668570415 -39.92219584498879" fill="red" stroke="none" /><path d="M 111.45004920935366 117.60387380957326 l 29.063989844299364 44.684420151120534 a74.3049051205553,74.3049051205553 0 0,0 -1.0781931803528295,0.6881539006458994 l -28.290514861899606 -45.17808848059024" fill="red" stroke="none" /><path d="M 111.1453310114006 117.79835938074945 l 25.04649311709613 39.99759946739562 a68.19252886441825,68.19252886441825 0 0,0 -1.0002246333074876,0.614419663680317 l -24.354289283856332 -40.42280759790431" fill="red" stroke="none" /><line stroke="#e1ed5e" stroke-width="0.3" x1="143.8653032363475" x2="146.44561519142675" y1="172.8068346515853" y2="177.08958963109032" /><path d="M 144.38136562736335 173.6633856474863 a86.0,86.0 0 0,1 -40.68145358897372,12.25698825130547" fill="none" id="id102" stroke="none" /><text fill="#e1ed5e" style="font-size:6.75px; font-family:Arial;" text-anchor="middle"><textPath startOffset="21.466115282336833" xlink:href="#id102">June</textPath></text><path d="M 110.8373102113329 117.98757091392108 l 12.88647226625951 21.388732923527797 a45.970764176193676,45.970764176193676 0 0,0 -0.6813132764289972,0.402531892831707 l -12.516391118802131 -21.607383388653254" fill="red" stroke="none" /><path d="M 110.5260780823613 118.17145234162733 l 11.62915884625796 20.07573039972982 a44.200695820473484,44.200695820473484 0 0,0 -0.6616449159098496,0.3756992511251959 l -11.281865163426911 -20.272932816649643" fill="red" stroke="none" /><path d="M 110.21172684928248 118.3499491758327 l 13.249149425408 23.8080416924129 a48.246335711879865,48.246335711879865 0 0,0 -0.7291564936132204,0.3975942577751066 l -12.83737011992613 -24.032576601947778" fill="red" stroke="none" /><path d="M 109.89434966115114 118.52300852407294 l 9.425462431471523 17.645214384020875 a41.00482273615886,41.00482273615886 0 0,0 -0.6254389410800036,0.3272000939031918 l -9.120332587865024 -17.804843896868785" fill="red" stroke="none" /><path d="M 109.57404056367764 118.69057910512821 l 14.260861586266508 27.840258228758955 a52.280219811034456,52.280219811034456 0 0,0 -0.8044832732105769,0.40338461398658054 l -13.77952440537317 -28.08161068365484" fill="red" stroke="none" /><path d="M 108.92500713936063 119.00905698771935 l 15.97326325457173 34.02088835838729 a58.58411876968387,58.58411876968387 0 0,0 -0.9165122836001801,0.420725837312027 l -15.38528297520413 -34.29080126603339" fill="red" stroke="none" /><line stroke="#e1ed5e" stroke-width="0.3" x1="102.19456741930631" x2="102.32365962044197" y1="184.97166512339345" y2="189.96999836594603" /><path d="M 102.22038585953345 185.97133177190398 a86.0,86.0 0 0,1 -42.740103519485714,-10.115201625700543" fill="none" id="id103" stroke="none" /><text fill="#e1ed5e" style="font-size:6.75px; font-family:Arial;" text-anchor="middle"><textPath startOffset="22.20632615414155" xlink:href="#id103">July</textPath></text><line stroke="#e1ed5e" stroke-width="0.3" x1="58.666819895761336" x2="56.23545636021788" y1="174.27360380694188" y2="178.64263932499728" /><path d="M 58.180547188652646 175.14741091055294 a86.0,86.0 0 0,1 -31.652253787137756,-30.449443065178592" fill="none" id="id104" stroke="none" /><text fill="#e1ed5e" style="font-size:6.75px; font-family:Arial;" text-anchor="middle"><textPath startOffset="22.20632615414155" xlink:href="#id104">August</textPath></text><line stroke="#e1ed5e" stroke-width="0.3" x1="26.63291911575756" x2="22.317208475507996" y1="142.92168965132927" y2="145.44649492493687" /><path d="M 25.769776987707644 143.4266507060508 a86.0,86.0 0 0,1 -11.730757126820373,-40.83630448921669" fill="none" id="id105" stroke="none" /><text fill="#e1ed5e" style="font-size:6.75px; font-family:Arial;" text-anchor="middle"><textPath startOffset="21.46611528233685" xlink:href="#id105">September</textPath></text><line stroke="#e1ed5e" stroke-width="0.3" x1="15.007084014347285" x2="10.007500721073583" y1="101.09737516637583" y2="101.16192664675087" /><path d="M 14.007167355692545 101.11028546245083 a86.0,86.0 0 0,1 10.666146001902534,-42.60595125391555" fill="none" id="id106" stroke="none" /><text fill="#e1ed5e" style="font-size:6.75px; font-family:Arial;" text-anchor="middle"><textPath startOffset="22.20632615414155" xlink:href="#id106">October</textPath></text><line stroke="#e1ed5e" stroke-width="0.3" x1="26.266209847984243" x2="21.928928074336255" y1="57.711370442889674" y2="55.22380399835377" /><path d="M 25.398753493254645 57.213857153982495 a86.0,86.0 0 0,1 29.58750427330803,-30.492523968695096" fill="none" id="id107" stroke="none" /><text fill="#e1ed5e" style="font-size:6.75px; font-family:Arial;" text-anchor="middle"><textPath startOffset="21.46611528233685" xlink:href="#id107">November</textPath></text><line stroke="#e1ed5e" stroke-width="0.3" x1="56.762969772571076" x2="54.21961505331055" y1="26.818313649435495" y2="22.513508569990535" /><path d="M 56.25429882871897 25.957352633546506 a86.0,86.0 0 0,1 42.265352541879196,-11.944610805530505" fill="none" id="id108" stroke="none" /><text fill="#e1ed5e" style="font-size:6.75px; font-family:Arial;" text-anchor="middle"><textPath startOffset="22.20632615414155" xlink:href="#id108">December</textPath></text></svg>