<?xml version="1.0" encoding="utf-8" ?>
<svg baseProfile="full" height="200mm" version="1.1" viewBox="0,0,200,200" width="200mm" xmlns="http://www.w3.org/2000/svg" xmlns:ev="http://www.w3.org/2001/xml-events" xmlns:xlink="http://www.w3.org/1999/xlink"><defs /><rect fill="#1a1a1a" height="200" width="200" x="0" y="0" /><rect fill="#1a1a1a" height="200" width="180" x="10" y="0" /><text alignment-baseline="middle" fill="#e1ed5e" style="dominant-baseline: central; font-size:9.0px; font-family:Arial;" text-anchor="middle" x="100.0" y="100.0">2021</text><line stroke="#e1ed5e" stroke-width="0.3" x1="100.0" x2="100.0" y1="15.0" y2="10.0" /><path d="M 100.0 14.0 a86.0,86.0 0 0,1 42.46469731375804,11.215312516191453" fill="none" id="id37" stroke="none" /><text fill="#e1ed5e" style="font-size:6.75px; font-family:Arial;" text-anchor="middle"><textPath startOffset="22.20632615414155" xlink:href="#id37">January</textPath></text><path d="M 100.0 79.0 l 0.0 -3.8450273785818574 a24.845027378581857,24.845027378581857 0 0,0 0.42766630496899327,0.0036810589059392508 l -0.06618582569646492 3.844457696284477" fill="#ff0c01" stroke="none" /><path d="M 100.36148047927253 79.00311137660856 l 0.5240112356181181 -30.437620238364907 a51.44213056850612,51.44213056850612 0 0,0 0.8852293245850479,0.0228628617731306 l -1.0478671953980339 30.424090584449416" fill="#94ff23" stroke="none" /><path d="M 100.72285384407766 79.0124445844662 l 0.21242305033261627 -6.167554585091939 a27.171211640545252,27.171211640545252 0 0,0 0.46729200852726804,0.02012257686203535 l -0.31855589124921585 6.162984281705709" fill="#ff2f04" stroke="none" /><path d="M 101.44485096284872 79.0497635885617 l 1.0361404459009467 -15.023962924368965 a36.05964969633906,36.05964969633906 0 0,0 0.6188691199389462,0.04803615456337619 l -1.294599755202234 15.003901507617124" fill="#ffac0f" stroke="none" /><path d="M 101.80526077348638 79.07773832637324 l 1.2990514077466002 -15.055494408089572 a36.111434294334366,36.111434294334366 0 0,0 0.6188379917744085,0.05876612398975222 l -1.5580145266112528 15.030902739584642" fill="#ffac0f" stroke="none" /><path d="M 102.16513564639614 79.11191278185805 l 0.6292349578578129 -6.070527129473503 a27.103051389416947,27.103051389416947 0 0,0 0.46363421407455097,0.052094706065291554 l -0.7336358754420892 6.058796469937611" fill="#ff2e04" stroke="none" /><path d="M 105.01212808612495 79.60689891045804 l 2.2206659319238766 -9.035336698834822 a30.304228417365874,30.304228417365874 0 0,0 0.5054905642791399,0.1288608000516678 l -2.375865384888041 8.995772902614286" fill="#ff5c08" stroke="none" /><path d="M 105.36241919743992 79.69619591428918 l 1.8580622914436986 -7.035207684347102 a28.276437496521325,28.276437496521325 0 0,0 0.4695263542986093,0.12833928909059739 l -1.978886534966019 7.002181854430211" fill="#ff3f05" stroke="none" /><path d="M 106.0581310904928 79.89281104454417 l 3.090661651944611 -10.258034516710417 a31.71351770394875,31.71351770394875 0 0,0 0.5213319140095575,0.16198036339649233 l -3.2667789386648867 10.203314018431403" fill="#ff700a" stroke="none" /><path d="M 106.40334571778207 80.00007090966166 l 2.093121394289383 -6.537563534482664 a27.864466049055046,27.864466049055046 0 0,0 0.45554046874683596,0.1501845303617855 l -2.2053446852786363 6.500565279861642" fill="#ff3905" stroke="none" /><path d="M 106.74666289553966 80.11325718540242 l 5.952451651297989 -17.54569287639222 a39.52789840143023,39.52789840143023 0 0,0 0.6424563364746045,0.2241404008351417 l -6.2535899918358675 17.44063162238487" fill="#ffd914" stroke="none" /><path d="M 107.08798089147638 80.2323363322302 l 3.070593777807007 -8.563576283484092 a30.097438370846945,30.097438370846945 0 0,0 0.48617062116009124,0.17906074273591197 l -3.2175467247396745 8.509452272941855" fill="#ff5908" stroke="none" /><path d="M 107.76421540070413 80.48803036053334 l 3.361010221154451 -8.446433542680351 a30.090579150836344,30.090579150836344 0 0,0 0.4796096292958232,0.19564481007038378 l -3.5059037200386616 8.387327846426388" fill="#ff5908" stroke="none" /><path d="M 108.43124777332544 80.76684994638697 l 6.068481258195545 -13.843266592837713 a36.11497584323069,36.11497584323069 0 0,0 0.5672078487732264,0.25448962803260644 l -6.305871225435552 13.736756634288575" fill="#ffac0f" stroke="none" /><path d="M 109.08828744355905 81.06846463323043 l 6.507840198539085 -13.556284134393508 a36.037447375872354,36.037447375872354 0 0,0 0.556913673193814,0.27327512078667676 l -6.74022513874333 13.442253853471998" fill="#ffab0f" stroke="none" /><line stroke="#e1ed5e" stroke-width="0.3" x1="143.23703022742887" x2="145.7803849466894" y1="26.81831364943548" y2="22.513508569990506" /><path d="M 143.74570117128098 25.957352633546492 a86.0,86.0 0 0,1 28.547481713284135,27.462654790039103" fill="none" id="id38" stroke="none" /><text fill="#e1ed5e" style="font-size:6.75px; font-family:Arial;" text-anchor="middle"><textPath startOffset="19.985693538727396" xlink:href="#id38">February</textPath></text><path d="M 111.60114157652 82.49532879139004 l 6.791115756079471 -10.246944032678641 a33.29305150161339,33.29305150161339 0 0,0 0.47497342565545736,0.32070417723825057 l -6.966493876141469 10.12852794314172" fill="#ff860c" stroke="none" /><path d="M 111.90073688211348 82.69761687909136 l 8.562186184653662 -12.44849181919894 a36.10880474535749,36.10880474535749 0 0,0 0.5090806034264023,0.35664349589831773 l -8.775197927663715 12.299263480536686" fill="#ffac0f" stroke="none" /><path d="M 112.19680574252982 82.90503203632743 l 5.36106856242809 -7.514040746438191 a30.230485603162393,30.230485603162393 0 0,0 0.42100224302591444,0.30587603394397334 l -5.489616121807793 7.420645477677543" fill="#ff5b08" stroke="none" /><path d="M 112.77801427241765 83.33499621200491 l 5.535552737651226 -7.219432172707244 a30.09739220917942,30.09739220917942 0 0,0 0.40841795020068233,0.318776688349813 l -5.659003243011339 7.1230770951342075" fill="#ff5908" stroke="none" /><path d="M 113.06298171725822 83.55741782278167 l 9.397350991086075 -11.828594670308414 a36.10714590927469,36.10714590927469 0 0,0 0.4833140953634834,0.39080638620821717 l -9.59956848501405 11.665082186836067" fill="#ffac0f" stroke="none" /><path d="M 115.4437574822437 85.77008943001954 l 12.787109350791104 -11.782069403739628 a38.38756236462221,38.38756236462221 0 0,0 0.4435707680487672,0.4898019209103277 l -12.988023759455906 11.560214695559752" fill="#ffca12" stroke="none" /><path d="M 115.68641384162765 86.03803664274999 l 27.202869190865552 -24.212383192838214 a57.4175176541754,57.4175176541754 0 0,0 0.6507541130883946,0.7439244454830352 l -27.615615167531796 23.74054319115223" fill="#53ff2b" stroke="none" /><path d="M 115.9244219780498 86.31012108654704 l 11.592514173348002 -9.96583207568685 a36.287386755755975,36.287386755755975 0 0,0 0.4031172473526676,0.47716367114044295 l -11.762342034187787 9.7648094549173" fill="#ffaf10" stroke="none" /><path d="M 116.15771136456269 86.58626213691792 l 6.829425662440461 -5.669622604615782 a29.876129525731955,29.876129525731955 0 0,0 0.32508288797858453,0.39851318242839723 l -6.9260070424954545 5.551225252579284" fill="#ff5607" stroke="none" /><path d="M 116.38621287248628 86.86637796730983 l 10.993840789935257 -8.81161197808078 a35.0893236518543,35.0893236518543 0 0,0 0.3736944785454723,0.4745540384842938 l -11.143889349074694 8.621065545643448" fill="#ff9e0e" stroke="none" /><path d="M 116.60985879189232 87.15038557335679 l 16.060072195261753 -12.424291979766805 a41.30489965785395,41.30489965785395 0 0,0 0.4302083496095924,0.5661037596303169 l -16.27155648509546 12.146003444255456" fill="#fff016" stroke="none" /><path d="M 117.65298651832404 88.62581576622439 l 12.685039078522475 -8.173232973468325 a36.09012768873187,36.09012768873187 0 0,0 0.33198174844870126,0.5251154004565086 l -12.823848423217132 7.95366992529761" fill="#ffac0f" stroke="none" /><line stroke="#e1ed5e" stroke-width="0.3" x1="172.23445277983987" x2="176.4835382374775" y1="55.19839476539836" y2="52.563006222186495" /><path d="M 173.08426987136738 54.67131705675599 a86.0,86.0 0 0,1 12.851231095245387,41.99856678651699" fill="none" id="id39" stroke="none" /><text fill="#e1ed5e" style="font-size:6.75px; font-family:Arial;" text-anchor="middle"><textPath startOffset="22.20632615414155" xlink:href="#id39">March</textPath></text><path d="M 117.84615892207809 88.93136811851018 l 12.881011631073992 -7.98912396936924 a36.15739299608655,36.15739299608655 0 0,0 0.32349537710099996,0.5317413425718136 l -13.016622806461216 7.766214853590345" fill="#ffad10" stroke="none" /><path d="M 119.196687751892 91.48605970444005 l 13.763340491514356 -6.104191552559202 a36.05625106046302,36.05625106046302 0 0,0 0.24674372598253477,0.5695185390359901 l -13.866374927339573 5.866373868936609" fill="#ffac0f" stroke="none" /><path d="M 119.34039704204932 91.81776055985345 l 13.917846210363388 -5.888149552293924 a36.11213910356524,36.11213910356524 0 0,0 0.2372710493543295,0.5745706661823241 l -14.017138946603914 5.647704315658297" fill="#ffac0f" stroke="none" /><path d="M 119.47837535516314 92.15188598940014 l 14.00264890971289 -5.6418660740459945 a36.09651712436199,36.09651712436199 0 0,0 0.2272472566974433,0.5783194812518071 l -14.097689716292034 5.399997587898403" fill="#ffac0f" stroke="none" /><path d="M 119.61058180528143 92.48833698450437 l 7.912132534140931 -3.0306736393919684 a29.47271054305036,29.47271054305036 0 0,0 0.17739120843149228,0.47532024523632344 l -7.963128331074048 2.8940302571263117" fill="#ff5007" stroke="none" /><path d="M 119.7369772167798 92.82701384747503 l 21.64758344415866 -7.867355501052417 a44.03287110960663,44.03287110960663 0 0,0 0.25276318835056294,0.7145955709240424 l -21.779799713319033 7.4935623037017605" fill="#ecff1a" stroke="none" /><path d="M 119.85752413597 93.16781622104841 l 37.33861749915902 -12.846732304564348 a60.48684448843237,60.48684448843237 0 0,0 0.33026596572617856,0.9874532004757048 l -37.554220758656975 12.20210600116633" fill="#34ff2f" stroke="none" /><path d="M 119.97218684219823 93.5106431181261 l 13.860901087026784 -4.503679770711105 a35.5742138869118,35.5742138869118 0 0,0 0.18421431806945643,0.5840097293820863 l -13.936370888864447 4.264419874902599" fill="#ffa50f" stroke="none" /><path d="M 120.08093135843002 93.85539295169968 l 8.60125895701421 -2.631917587295503 a29.994923336634535,29.994923336634535 0 0,0 0.14682386836155298,0.49501709406039296 l -8.645288722487464 2.48347110648858" fill="#ff5708" stroke="none" /><path d="M 120.18372546131832 94.20196356495316 l 5.225496961561973 -1.5010916509158658 a26.436827626451176,26.436827626451176 0 0,0 0.12187784088081563,0.43845943979783447 l -5.2505615730091515 1.4109209076990794" fill="#ff2403" stroke="none" /><path d="M 120.28053869075195 94.5502522615342 l 10.090286129482278 -2.7114424746367507 a31.44824360685023,31.44824360685023 0 0,0 0.13598170836849063,0.5239929927736862 l -10.135464169721072 2.537353056314214" fill="#ff6c0a" stroke="none" /><path d="M 120.37134235888165 94.90015583598534 l 3.4387256894574674 -0.8608644845331468 a24.544844429317774,24.544844429317774 0 0,0 0.09907608239557586,0.41073432471831534 l -3.4530345721138627 0.8015449281554253" fill="#ff0801" stroke="none" /><path d="M 120.45610955862082 95.25157060432595 l 5.418285642235772 -1.2577341133230437 a26.562347921577256,26.562347921577256 0 0,0 0.09955266075394718,0.4462750578448381 l -5.439132689991757 1.1642808859282419" fill="#ff2603" stroke="none" /><path d="M 120.53481517161879 95.60439243477599 l 50.2977220278046 -10.766546745671237 a72.43713998671606,72.43713998671606 0 0,0 0.25049695751139295,1.2215121270092815 l -50.475598281230994 9.899158962498543" fill="#3effb7" stroke="none" /><path d="M 120.6074358757038 95.95851677861258 l 22.620880709265407 -4.436355420001055 a44.051800222008445,44.051800222008445 0 0,0 0.13952731439211388,0.7453604926723402 l -22.69389374756738 4.046316849866152" fill="#ebff1a" stroke="none" /><path d="M 120.67395015179393 96.31383870115 l 7.456452252519867 -1.3294839891822305 a28.57404831458055,28.57404831458055 0 0,0 0.08216826602612992,0.48496175736506614 l -7.47823238006622 1.2009364435013266" fill="#ff4306" stroke="none" /><path d="M 120.73433829027371 96.67025291283417 l 24.97365186865503 -4.010542482783512 a46.29363039705823,46.29363039705823 0 0,0 0.1195788866828425,0.7878754568810237 l -25.03898664877717 3.5800679135104057" fill="#d0ff1d" stroke="none" /><path d="M 120.78858239683441 97.02765380044208 l 14.966448381274034 -2.1398989655847616 a36.11865551999419,36.11865551999419 0 0,0 0.08270140314538527,0.6162215134332754 l -15.001065783477255 1.8819591100868218" fill="#ffac10" stroke="none" /><path d="M 120.83666639777658 97.38593545837742 l 8.908601764366127 -1.117628873213173 a29.978434144900046,29.978434144900046 0 0,0 0.05982788535799609,0.5125687854734476 l -8.926520002727711 0.9641163494148725" fill="#ff5708" stroke="none" /><path d="M 120.87857604477298 97.74499172005257 l 20.863281047458592 -2.2533563308148943 a41.98461605126166,41.98461605126166 0 0,0 0.07141957916567167,0.7191854156008649 l -20.898977752306493 1.8938953845095943" fill="#fff917" stroke="none" /><path d="M 120.91429891909075 98.10471618934814 l 3.034985702893728 -0.2750347640390532 a24.047422244815994,24.047422244815994 0 0,0 0.03381012164708364,0.41256912199216755 l -3.0392703083603063 0.22275172483911687" fill="#ff0000" stroke="none" /><path d="M 120.94382443527127 98.46500227214037 l 15.654568692099083 -1.1473419024906666 a36.696557405267555,36.696557405267555 0 0,0 0.040749620517303756,0.6303785931937346 l -15.671998903620802 0.8777042450438967" fill="#ffb410" stroke="none" /><path d="M 120.96714384426684 98.82574320788733 l 10.029971540287063 -0.5617246818812328 a31.045688812480854,31.045688812480854 0 0,0 0.025289510261297766,0.5338215913059727 l -10.038154658781856 0.3889919839522603" fill="#ff6609" stroke="none" /><path d="M 120.98425023603335 99.18683210126433 l 22.935118525601972 -0.8887666668543635 a43.95233251701278,43.95233251701278 0 0,0 0.022788877420586762,0.756251896604745 l -22.947019097478204 0.49384462282461933" fill="#edff1a" stroke="none" /><line stroke="#e1ed5e" stroke-width="0.3" x1="184.98032266829074" x2="189.97916517819016" y1="98.17113171792111" y2="98.06355123074" /><path d="M 185.9800911702706 98.14961562048488 a86.0,86.0 0 0,1 -9.607161424134198,41.387399972396054" fill="none" id="id40" stroke="none" /><text fill="#e1ed5e" style="font-size:6.75px; font-family:Arial;" text-anchor="middle"><textPath startOffset="21.466115282336823" xlink:href="#id40">April</textPath></text><path d="M 120.99513854157772 99.54816195383933 l 15.15001887402305 -0.32604476097071783 a36.15352688549471,36.15352688549471 0 0,0 0.008034678697337299,0.6222947196353611 l -15.153386559838104 0.06521378327489394" fill="#ffad10" stroke="none" /><path d="M 120.99824983174949 100.27111621757518 l 15.978439781256604 0.2063035820107791 a36.97977155691514,36.97977155691514 0 0,0 -0.013696492623449057,0.6364221928773416 l -15.972521225948148 -0.4813155906782355" fill="#ffb811" stroke="none" /><path d="M 120.9904718944345 100.63252640178507 l 15.552505982550986 0.4686588609040312 a36.55956565798635,36.55956565798635 0 0,0 -0.02436933062372414,0.628864140711906 l -15.54213451907606 -0.7363002486299434" fill="#ffb210" stroke="none" /><path d="M 120.81339534386255 102.79330883721812 l 15.053759918757065 2.020323926957145 a36.18872596570931,36.18872596570931 0 0,0 -0.08817288126360366,0.6166809261947243 l -15.016752986476858 -2.2791503251322784" fill="#ffad10" stroke="none" /><path d="M 120.49622156327973 104.57218783832717 l 14.768321431070701 3.2944384130107465 a36.131313305478244,36.131313305478244 0 0,0 -0.14063586198931802,0.6058556126675102 l -14.70942500315083 -3.548162683026822" fill="#ffad10" stroke="none" /><path d="M 120.32669344350535 105.2749913415812 l 14.622361655674725 3.794657076987511 a36.10671647715935,36.10671647715935 0 0,0 -0.16129716808116035,0.6002467664493408 l -14.554876411251787 -4.0457947766124" fill="#ffac0f" stroke="none" /><path d="M 120.23288151984713 105.62410040840565 l 14.635537600933205 4.06821603328732 a36.1904358911068,36.1904358911068 0 0,0 -0.17200342743971606,0.5987664956474157 l -14.563341536607389 -4.319540004439318" fill="#ffad10" stroke="none" /><path d="M 119.9155931802556 106.66101706037122 l 14.400940445949308 4.816573080582839 a36.18507365699534,36.18507365699534 0 0,0 -0.202652211669391,0.589002186508823 l -14.315897403336686 -5.0637479701809625" fill="#ffad10" stroke="none" /><path d="M 119.79798401119884 107.00284435728193 l 14.375577946331608 5.084857874781103 a36.248377648057485,36.248377648057485 0 0,0 -0.21313310559311996,0.5864507695657736 l -14.285920579733261 -5.331556441353007" fill="#ffae10" stroke="none" /><path d="M 119.54520255179757 107.68017299344265 l 14.045474323357851 5.5190869622594 a36.09091348676701,36.09091348676701 0 0,0 -0.2321803838630876,0.5762526717734907 l -13.94839132523737 -5.760039001875704" fill="#ffac0f" stroke="none" /><path d="M 118.97047184881838 109.00673069616215 l 8.23372940455752 3.909179695840846 a30.114602887775717,30.114602887775717 0 0,0 -0.22635676162745322,0.4663619736106987 l -8.165219386315352 -4.050330625416819" fill="#ff5908" stroke="none" /><path d="M 118.81262510543309 109.33194174019688 l 8.476984813712352 4.204980855715417 a30.462617794714262,30.462617794714262 0 0,0 -0.23705912008593696,0.46774013373410345 l -8.403347023840148 -4.350275201152215" fill="#ff5e08" stroke="none" /><line stroke="#e1ed5e" stroke-width="0.3" x1="174.80103733775053" x2="179.2010983576182" y1="140.37084112569926" y2="142.7455964860345" /><path d="M 175.68104954172406 140.8457921977663 a86.0,86.0 0 0,1 -30.038265399797805,32.042727171017184" fill="none" id="id41" stroke="none" /><text fill="#e1ed5e" style="font-size:6.75px; font-family:Arial;" text-anchor="middle"><textPath startOffset="22.206326154141568" xlink:href="#id41">May</textPath></text><path d="M 118.48025628344425 109.97397251340804 l 13.259227426691286 7.156132895262939 a36.06709494120837,36.06709494120837 0 0,0 -0.2995691523951838,0.5438050273396168 l -13.134081864844593 -7.383308441000361" fill="#ffac0f" stroke="none" /><path d="M 118.12598468904814 110.60418214915192 l 13.011972034711013 7.612349008499163 a36.075121016406456,36.075121016406456 0 0,0 -0.31818106303520394,0.5332897633875533 l -12.87901009597758 -7.83520086577282" fill="#ffac0f" stroke="none" /><path d="M 117.55443506779139 111.5257021239791 l 7.886273232669487 5.177884437581858 a30.43418214522444,30.43418214522444 0 0,0 -0.29129410002640915,0.4354451562369844 l -7.795976027232356 -5.3128665080246495" fill="#ff5e08" stroke="none" /><path d="M 117.35343817320211 111.8261652097733 l 7.525101921349122 5.128268972063643 a30.106387954426438,30.106387954426438 0 0,0 -0.29552873816905983,0.42573118890735206 l -7.4357122760179255 -5.257041423158015" fill="#ff5908" stroke="none" /><path d="M 115.56566222782051 114.09645910891815 l 11.537819691247712 10.44879434638208 a36.56594316193945,36.56594316193945 0 0,0 -0.42652186297815886,0.4629052431717769 l -11.35625142027383 -10.645850844355191" fill="#ffb210" stroke="none" /><path d="M 115.32070863581623 114.36230785411682 l 11.033634239674706 10.343415273198925 a36.12373379985137,36.12373379985137 0 0,0 -0.4291730915615801,0.44998627069090796 l -10.853954596734162 -10.53180866047234" fill="#ffac10" stroke="none" /><path d="M 114.55890576462653 115.13401014063108 l 6.363835164238271 6.615218716703962 a30.179298266611994,30.179298266611994 0 0,0 -0.37747715227955164,0.3569282084162034 l -6.249022177567912 -6.723781561866087" fill="#ff5a08" stroke="none" /><path d="M 113.75828350139079 115.86535959552629 l 3.9765058120832513 4.5855062251060295 a27.069552356971478,27.069552356971478 0 0,0 -0.35465563747657214,0.302245228347274 l -3.8969846980296317 -4.6532758436762505" fill="#ff2d04" stroke="none" /><path d="M 111.7513745106137 117.40417183066458 l 8.424691226997588 12.477244564244687 a36.05513381495574,36.05513381495574 0 0,0 -0.5173487647029735,0.34287055107923725 l -8.20866776355465 -12.620413136415243" fill="#ffac0f" stroke="none" /><path d="M 111.45004920935366 117.60387380957326 l 4.981018038072196 7.658064291444277 a30.13545233622805,30.13545233622805 0 0,0 -0.4372771776379062,0.27909098382210457 l -4.848459058387359 -7.742669704090191" fill="#ff5908" stroke="none" /><line stroke="#e1ed5e" stroke-width="0.3" x1="143.8653032363475" x2="146.44561519142675" y1="172.8068346515853" y2="177.08958963109032" /><path d="M 144.38136562736335 173.6633856474863 a86.0,86.0 0 0,1 -40.68145358897372,12.25698825130547" fill="none" id="id42" stroke="none" /><text fill="#e1ed5e" style="font-size:6.75px; font-family:Arial;" text-anchor="middle"><textPath startOffset="21.466115282336833" xlink:href="#id42">June</textPath></text><path d="M 110.5260780823613 118.17145234162733 l 15.475995366293722 26.71662798218251 a51.875307987385035,51.875307987385035 0 0,0 -0.7765270015322407,0.44093229757985014 l -15.01381959784028 -26.97906344555699" fill="#8fff24" stroke="none" /><path d="M 109.57404056367764 118.69057910512821 l 4.144747048933316 8.091434548829351 a30.09121780388253,30.09121780388253 0 0,0 -0.4630409260186469,0.23217833287769216 l -4.004852215231908 -8.161580722616344" fill="#ff5908" stroke="none" /><path d="M 109.2508944713604 118.85261126421891 l 24.113764053325287 49.14199607636263 a75.73946834952531,75.73946834952531 0 0,0 -1.1753587270241723,0.5642436154038171 l -23.26429265830088 -49.54979396826601" fill="#42ffda" stroke="none" /><path d="M 108.59647513512805 119.15986991738527 l 12.370650229331938 27.571771622874788 a51.21978784704542,51.21978784704542 0 0,0 -0.8075148954558465,0.35399079949258117 l -11.894214659218337 -27.780626975661825" fill="#97ff23" stroke="none" /><path d="M 107.93186726928326 119.44442032107085 l 6.094204244417794 14.939517370620507 a37.134698777471854,37.134698777471854 0 0,0 -0.5939410793755557,0.2363414130304385 l -5.836142089000372 -15.042205628057015" fill="#ffba11" stroke="none" /><path d="M 105.88484417918355 120.15858648285463 l 8.52539119212191 29.203803943437645 a51.422762197825726,51.422762197825726 0 0,0 -0.8518274389805843,0.24073494293022077 l -8.02143258503672 -29.346227679706384" fill="#94ff23" stroke="none" /><path d="M 105.18746579009965 120.34920634021253 l 7.681135605730431 30.131285620518604 a52.09492269388832,52.09492269388832 0 0,0 -0.870845309202183,0.214032589440789 l -7.1613370117850375 -30.25903946827342" fill="#8dff24" stroke="none" /><path d="M 104.48393922423573 120.51570834832081 l 1.9340565023061238 8.849035891481996 a30.0579253012403,30.0579253012403 0 0,0 -0.5064166963474644,0.10612454251692124 l -1.7814483445292815 -8.881016414725458" fill="#ff5808" stroke="none" /><path d="M 101.26447882468166 120.96189622390904 l 0.9077376831030699 15.048020370391349 a36.07537411705057,36.07537411705057 0 0,0 -0.620173356795371,0.03205587867381066 l -0.6485762578942194 -15.061416055827362" fill="#ffac0f" stroke="none" /><line stroke="#e1ed5e" stroke-width="0.3" x1="102.19456741930631" x2="102.32365962044197" y1="184.97166512339345" y2="189.96999836594603" /><path d="M 102.22038585953345 185.97133177190398 a86.0,86.0 0 0,1 -42.740103519485714,-10.115201625700543" fill="none" id="id43" stroke="none" /><text fill="#e1ed5e" style="font-size:6.75px; font-family:Arial;" text-anchor="middle"><textPath startOffset="22.20632615414155" xlink:href="#id43">July</textPath></text><path d="M 99.81925306533755 120.99922214144158 l -0.09251678300100746 10.748621998364278 a31.749020151569972,31.749020151569972 0 0,0 -0.5464464613898755,-0.009407571393217237 l 0.2775229342835509 -10.745436949691902" fill="#ff700a" stroke="none" /><path d="M 98.73552117531835 120.96189622390904 l -0.9120704177780632 15.11984627435303 a36.147330583540224,36.147330583540224 0 0,0 -0.6207654050885378,-0.04281161680617911 l 1.172198583645531 -15.101906313030565" fill="#ffad10" stroke="none" /><path d="M 98.37488393609728 120.93702456842531 l -2.8528350939067755 36.754223145976866 a57.86477433997511,57.86477433997511 0 0,0 -0.9923965371974033,-0.08562814901624465 l 3.4850759488457204 -36.69967074468195" fill="#4eff2b" stroke="none" /><path d="M 96.22490169976321 120.6578951692458 l -2.724243570973313 14.907462966230185 a36.154337831905224,36.154337831905224 0 0,0 -0.6112362287639106,-0.11714487799708581 l 2.980447414308919 -14.858360889884631" fill="#ffad10" stroke="none" /><path d="M 95.86986931433489 120.58985236759428 l -7.064766978510437 35.21983205128538 a56.92140729678335,56.92140729678335 0 0,0 -0.9590133299551218,-0.20097056760405257 l 7.6699717698949454 -35.09300550295478" fill="#58ff2a" stroke="none" /><path d="M 94.11515582081647 120.15858648285463 l -9.053063585715964 31.01135045732969 a53.30575517573206,53.30575517573206 0 0,0 -0.8785931367943932,-0.26471290490675126 l 9.585531696950603 -30.850922183317213" fill="#7fff26" stroke="none" /><path d="M 93.42475214034765 119.94407469862007 l -10.321003819789555 31.305720413938783 a53.9631802240593,53.9631802240593 0 0,0 -0.8796776141742303,-0.29843440803335824 l 10.85835116690101 -31.1234230190073" fill="#78ff26" stroke="none" /><path d="M 92.7421414339146 119.70592522655815 l -5.215908264938035 14.16179405007245 a36.0917894812019,36.0917894812019 0 0,0 -0.5811289909354829,-0.21973325914069863 l 5.458907476633801 -14.069912540825117" fill="#ffac0f" stroke="none" /><path d="M 92.06813273071674 119.44442032107085 l -5.701752410138354 13.977449024991959 a36.09566367513423,36.09566367513423 0 0,0 -0.5732825725732374,-0.2396321618302074 l 5.941506442209054 -13.877231820141777" fill="#ffac0f" stroke="none" /><path d="M 91.7346041902142 119.30500536409082 l -11.66814938847067 27.25261944101343 a50.64542083608144,50.64542083608144 0 0,0 -0.7984596077183101,-0.3500212274588161 l 12.135529670846724 -27.047733660260164" fill="#9dff22" stroke="none" /><path d="M 91.07499286063937 119.00905698771935 l -6.400991621189053 13.63324562156187 a36.06114470790213,36.06114470790213 0 0,0 -0.5596128684626388,-0.2686481844800822 l 6.634717157651934 -13.521043160582225" fill="#ffac0f" stroke="none" /><line stroke="#e1ed5e" stroke-width="0.3" x1="58.666819895761336" x2="56.23545636021788" y1="174.27360380694188" y2="178.64263932499728" /><path d="M 58.180547188652646 175.14741091055294 a86.0,86.0 0 0,1 -31.652253787137756,-30.449443065178592" fill="none" id="id44" stroke="none" /><text fill="#e1ed5e" style="font-size:6.75px; font-family:Arial;" text-anchor="middle"><textPath startOffset="22.20632615414155" xlink:href="#id44">August</textPath></text><path d="M 89.1626897886671 117.98757091392108 l -7.629809203498103 12.663818921054041 a35.7846642892908,35.7846642892908 0 0,0 -0.5248771868829093,-0.32242243781945235 l 7.846665590313321 -12.53060801640621" fill="#ffa80f" stroke="none" /><path d="M 87.36589467227662 116.77436683061367 l -9.084067764032683 12.060963640509325 a36.09924273197917,36.09924273197917 0 0,0 -0.4931350315688153,-0.3781149138504659 l 9.290331524094986 -11.902809384831492" fill="#ffac0f" stroke="none" /><path d="M 87.07902340077011 116.55440617244103 l -19.050814411270316 24.407978550070194 a51.96260561763741,51.96260561763741 0 0,0 -0.7003631513788183,-0.5564108449206254 l 19.468135055366492 -24.07643379114444" fill="#8eff24" stroke="none" /><path d="M 85.70375840098266 115.38237550388516 l -10.316962197853352 11.10077676622903 a36.154766702446636,36.154766702446636 0 0,0 -0.4522172204139438,-0.4275996078771088 l 10.506515252658113 -10.92154252160599" fill="#ffad10" stroke="none" /><path d="M 84.9287848128048 114.62390073753433 l -21.523065012265555 20.88425932464214 a50.9899085537304,50.9899085537304 0 0,0 -0.6057927680924663,-0.6351712954173798 l 21.879364331736976 -20.51068091264226" fill="#99ff23" stroke="none" /><path d="M 84.19399662182784 113.82643327865904 l -11.353715754678156 9.931757547496552 a36.08465012588233,36.08465012588233 0 0,0 -0.4049341948419958,-0.47102995086895777 l 11.522992459090931 -9.734850497466063" fill="#ffac0f" stroke="none" /><path d="M 83.72743513129214 113.27417163493432 l -24.82343501532839 20.249452967046178 a53.035031940437435,53.035031940437435 0 0,0 -0.5709652740633921,-0.7123669693183516 l 25.168318201446642 -19.819158164149567" fill="#82ff25" stroke="none" /><path d="M 83.28015986056508 112.70617746262583 l -12.064650345794657 9.168484090744302 a36.15311481143446,36.15311481143446 0 0,0 -0.3722716072310356,-0.4987186536425637 l 12.220683219720778 -8.95945255759243" fill="#ffad10" stroke="none" /><path d="M 83.06392112726016 112.41649034213515 l -13.010298270175015 9.538349699111441 a37.13220307526093,37.13220307526093 0 0,0 -0.3734796020527486,-0.5187305018021647 l 13.17255766460337 -9.312985591858137" fill="#ffba11" stroke="none" /><path d="M 82.44556493220864 111.52570212397912 l -13.400940046745637 8.79864504688535 a37.031261609666004,37.031261609666004 0 0,0 -0.3452638536278533,-0.5358571681350285 l 13.550408763750536 -8.566666278828873" fill="#ffb911" stroke="none" /><path d="M 82.24976979558568 111.22182372390057 l -13.215684145919147 8.355050958120543 a36.6352545216728,36.6352545216728 0 0,0 -0.33239578195919406,-0.5359278376392942 l 13.357544567546297 -8.126326789115984" fill="#ffb310" stroke="none" /><line stroke="#e1ed5e" stroke-width="0.3" x1="26.63291911575756" x2="22.317208475507996" y1="142.92168965132927" y2="145.44649492493687" /><path d="M 25.769776987707644 143.4266507060508 a86.0,86.0 0 0,1 -11.730757126820373,-40.83630448921669" fill="none" id="id45" stroke="none" /><text fill="#e1ed5e" style="font-size:6.75px; font-family:Arial;" text-anchor="middle"><textPath startOffset="21.46611528233685" xlink:href="#id45">September</textPath></text><path d="M 81.87401531095188 110.60418214915194 l -24.318914157826892 14.227210263230601 a49.17486641831559,49.17486641831559 0 0,0 -0.4211429316575028,-0.7342981995882175 l 24.560209085636775 -13.806492217784077" fill="#aeff20" stroke="none" /><path d="M 81.18737489456691 109.33194174019688 l -13.62155778471699 6.756929612178007 a36.20535873520622,36.20535873520622 0 0,0 -0.2721379985451495,-0.56068488161561 l 13.735849039876857 -6.521455774597113" fill="#ffae10" stroke="none" /><path d="M 80.20201598880116 107.00284435728193 l -8.769640737777802 3.1019536696867087 a30.30208123156183,30.30208123156183 0 0,0 -0.1697048854445133,-0.4932418341977776 l 8.821736454165544 -2.950539132399634" fill="#ff5c08" stroke="none" /><path d="M 79.50377843672027 104.57218783832718 l -14.718720839743549 3.283373777524663 a36.08049357684415,36.08049357684415 0 0,0 -0.1300031061804073,-0.6073312318122988 l 14.773057984648396 -3.0295287262962005" fill="#ffac0f" stroke="none" /><path d="M 79.10278846688536 102.07522291339032 l -30.008042658365294 2.9799850382886017 a51.15564515998116,51.15564515998116 0 0,0 -0.07947493219290773,-0.8769992542094609 l 30.05489218683528 -2.4630043955305747" fill="#97ff23" stroke="none" /><line stroke="#e1ed5e" stroke-width="0.3" x1="15.007084014347285" x2="10.007500721073583" y1="101.09737516637583" y2="101.16192664675087" /><path d="M 14.007167355692545 101.11028546245083 a86.0,86.0 0 0,1 10.666146001902534,-42.60595125391555" fill="none" id="id46" stroke="none" /><text fill="#e1ed5e" style="font-size:6.75px; font-family:Arial;" text-anchor="middle"><textPath startOffset="22.20632615414155" xlink:href="#id46">October</textPath></text><path d="M 79.00019446554 99.90962569577889 l -15.100612397059303 -0.06498666554114595 a36.100752234008716,36.100752234008716 0 0,0 0.008022950177201576,-0.6213863328255508 l 15.097256439764385 0.32490925642716867" fill="#ffac0f" stroke="none" /><path d="M 79.00486145842228 99.54816195383935 l -15.062369235005384 -0.32415844611919686 a36.0658569510608,36.0658569510608 0 0,0 0.018699812866768924,-0.6205557511960972 l 15.054557727682969 0.5833843447402884" fill="#ffac0f" stroke="none" /><path d="M 79.05617556472873 98.46500227214037 l -12.04820470578831 -0.883027209539978 a33.08052042278674,33.08052042278674 0 0,0 0.046510449571545105,-0.5675452914216154 l 12.031219772397266 1.0902864181693717" fill="#ff830c" stroke="none" /><path d="M 79.21141760316559 97.0276538004421 l -15.695055592465271 -2.244075038479679 a36.85467258661947,36.85467258661947 0 0,0 0.09519756128801019,-0.6272329854741253 l 15.65410213773796 2.5139071363458965" fill="#ffb610" stroke="none" /><path d="M 79.32604984820605 96.31383870115002 l -18.114970983068094 -3.229895809813675 a39.400663049456966,39.400663049456966 0 0,0 0.12479555143838544,-0.6666628259039249 l 18.056689707719848 3.5412367131801727" fill="#ffd814" stroke="none" /><path d="M 81.43458229118936 90.18545643968196 l -13.304039310917016 -7.033134152603111 a36.04866897751883,36.04866897751883 0 0,0 0.2947268808283008,-0.5460841489191184 l 13.181004330870245 7.261099284854702" fill="#ffab0f" stroke="none" /><path d="M 81.6062741919709 89.86733742301443 l -13.248862975134676 -7.298480985138777 a36.12614276093964,36.12614276093964 0 0,0 0.30473667331805854,-0.5420925384010568 l 13.121268660524187 7.525457033474618" fill="#ffac10" stroke="none" /><line stroke="#e1ed5e" stroke-width="0.3" x1="26.266209847984243" x2="21.928928074336255" y1="57.711370442889674" y2="55.22380399835377" /><path d="M 25.398753493254645 57.213857153982495 a86.0,86.0 0 0,1 29.58750427330803,-30.492523968695096" fill="none" id="id47" stroke="none" /><text fill="#e1ed5e" style="font-size:6.75px; font-family:Arial;" text-anchor="middle"><textPath startOffset="21.46611528233685" xlink:href="#id47">November</textPath></text><path d="M 82.15384107792192 88.93136811851018 l -6.549497618526669 -4.062161413259702 a28.706949746979188,28.706949746979188 0 0,0 0.26406621367001537,-0.41768933438758554 l 6.478603808610691 4.174298395361503" fill="#ff4506" stroke="none" /><path d="M 84.31358615837235 86.03803664274999 l -47.05924152488297 -41.885890071750055 a84.0,84.0 0 0,0 0.9706254375358201,-1.071788850921776 l 46.331272446731106 42.68973170994139" fill="#4dd2ff" stroke="none" /><path d="M 85.05521093208273 85.24692304244772 l -21.474138154263148 -21.198667398194672 a51.17485888828085,51.17485888828085 0 0,0 0.6242460370793869,-0.6215653262114307 l 21.10605631701645 21.565168575056212" fill="#97ff23" stroke="none" /><path d="M 86.37877921826538 84.01681056812374 l -19.485857063313468 -22.86477472731644 a51.041580331647204,51.041580331647204 0 0,0 0.6736090138386731,-0.5641281771317175 l 19.089390512515685 23.19680406184197" fill="#99ff23" stroke="none" /><path d="M 88.09926311788651 82.69761687909137 l -18.09540481718557 -26.30875969919579 a52.93109005981242,52.93109005981242 0 0,0 0.7551383858030705,-0.5098728089593606 l 17.639861736975963 26.616344420453817" fill="#83ff25" stroke="none" /><line stroke="#e1ed5e" stroke-width="0.3" x1="56.762969772571076" x2="54.21961505331055" y1="26.818313649435495" y2="22.513508569990535" /><path d="M 56.25429882871897 25.957352633546506 a86.0,86.0 0 0,1 42.265352541879196,-11.944610805530505" fill="none" id="id48" stroke="none" /><text fill="#e1ed5e" style="font-size:6.75px; font-family:Arial;" text-anchor="middle"><textPath startOffset="22.20632615414155" xlink:href="#id48">December</textPath></text><path d="M 89.63071344664047 81.73862282372117 l -7.191878413329848 -12.66563554164713 a35.56507599657327,35.56507599657327 0 0,0 0.5349595608399765,-0.2977044164190216 l 6.972794763417825 12.787555355626337" fill="#ffa50f" stroke="none" /><path d="M 90.26544431104013 81.39251694778311 l -7.004803217690822 -13.389594894928704 a36.11120509982154,36.11120509982154 0 0,0 0.5532572153047015,-0.2833998343058939 l 6.773285514797356 13.508187254547105" fill="#ffac0f" stroke="none" /><path d="M 92.57280143429618 80.3572730644239 l -5.346857906254547 -14.140845823196564 a36.11794992930895,36.11794992930895 0 0,0 0.5834212844229987,-0.21487898274774905 l 5.102654296058979 14.230788073750634" fill="#ffac10" stroke="none" /><path d="M 94.98787191387505 79.60689891045804 l -10.768462016443287 -43.81419044101146 a66.11810122557023,66.11810122557023 0 0,0 1.107561041627098,-0.26212391469106716 l 10.012677287853656 43.9930602678434" fill="#36ff6f" stroke="none" /></svg>