<?xml version="1.0" encoding="utf-8" ?>
<svg baseProfile="full" height="200mm" version="1.1" viewBox="0,0,200,200" width="200mm" xmlns="http://www.w3.org/2000/svg" xmlns:ev="http://www.w3.org/2001/xml-events" xmlns:xlink="http://www.w3.org/1999/xlink"><defs /><rect fill="#1a1a1a" height="200" width="200" x="0" y="0" /><rect fill="#1a1a1a" height="200" width="180" x="10" y="0" /><text alignment-baseline="middle" fill="#e1ed5e" style="dominant-baseline: central; font-size:9.0px; font-family:Arial;" text-anchor="middle" x="100.0" y="100.0">2023</text><line stroke="#e1ed5e" stroke-width="0.3" x1="100.0" x2="100.0" y1="15.0" y2="10.0" /><path d="M 100.0 14.0 a86.0,86.0 0 0,1 42.46469731375804,11.215312516191453" fill="none" id="id61" stroke="none" /><text fill="#e1ed5e" style="font-size:6.75px; font-family:Arial;" text-anchor="middle"><textPath startOffset="22.20632615414155" xlink:href="#id61">January</textPath></text><path d="M 107.4271985657038 80.35727306442388 l 5.9479213348576305 -15.730479477738948 a37.8174240835278,37.8174240835278 0 0,0 0.6069099320236145,0.23547162471364813 l -6.217814431880912 15.625765149134752" fill="#ffc412" stroke="none" /><path d="M 108.76106565485865 80.91482961587045 l 20.649696858402987 -44.98345274980184 a70.49667667265746,70.49667667265746 0 0,0 1.0984785065838514,0.5157503878298014 l -21.420953576286436 44.62133737933203" fill="#3cffa2" stroke="none" /><path d="M 109.08828744355905 81.06846463323043 l 13.052382636005737 -27.189021587260044 a51.15970138030542,51.15970138030542 0 0,0 0.7906091937654848,0.38794849780269297 l -13.518463096781653 26.96031792932252" fill="#96ff23" stroke="none" /><line stroke="#e1ed5e" stroke-width="0.3" x1="143.23703022742887" x2="145.7803849466894" y1="26.81831364943548" y2="22.513508569990506" /><path d="M 143.74570117128098 25.957352633546492 a86.0,86.0 0 0,1 28.547481713284135,27.462654790039103" fill="none" id="id62" stroke="none" /><text fill="#e1ed5e" style="font-size:6.75px; font-family:Arial;" text-anchor="middle"><textPath startOffset="19.985693538727396" xlink:href="#id62">February</textPath></text><path d="M 110.99172775467656 82.1063720568725 l 8.940945908020586 -14.55512391759164 a38.08192453989299,38.08192453989299 0 0,0 0.5555986818965678,0.3479158436329097 l -9.190163742289418 14.399063732635787" fill="#ffc812" stroke="none" /><path d="M 111.60114157652 82.49532879139004 l 15.620640293211546 -23.569591888616085 a49.275962670894536,49.275962670894536 0 0,0 0.7029927187999279,0.47466382182558914 l -16.024037706418014 23.297216154491824" fill="#acff21" stroke="none" /><path d="M 111.90073688211348 82.69761687909136 l 35.70221064634041 -51.90714936272591 a84.0,84.0 0 0,0 1.1842754416653962,0.8296606289442576 l -36.590417227589455 51.28490389101772" fill="#4dd2ff" stroke="none" /><path d="M 113.06298171725822 83.55741782278167 l 8.146581956855075 -10.25423185826432 a34.09641434068118,34.09641434068118 0 0,0 0.4563993424905917,0.3690431945139392 l -8.321884697910157 10.112482566486253" fill="#ff920d" stroke="none" /><path d="M 113.6212207817346 84.01681056812373 l 24.12871756317601 -28.312723928359276 a58.19953423750096,58.19953423750096 0 0,0 0.7568882721967372,0.6563660511481242 l -24.61249963401951 27.89319288379148" fill="#4aff2c" stroke="none" /><path d="M 114.42810811169701 84.74124197986012 l 19.107332063212276 -20.207372588693758 a48.810574347038425,48.810574347038425 0 0,0 0.6055225003002551,0.5825121655339972 l -19.45233780712495 19.87547733639746" fill="#b1ff20" stroke="none" /><path d="M 115.4437574822437 85.77008943001954 l 12.935143520639805 -11.918468398651992 a38.58885518927301,38.58885518927301 0 0,0 0.445896719667809,0.4923702947821287 l -13.13838388092365 11.694045316600315" fill="#ffce13" stroke="none" /><path d="M 116.60985879189232 87.15038557335679 l 13.530382527057265 -10.467289378916433 a38.10658932313725,38.10658932313725 0 0,0 0.3968965676651919,0.5222693593546743 l -13.70855503494657 10.232835243680727" fill="#ffc812" stroke="none" /><path d="M 117.04232023915458 87.72973835380427 l 2.364649341493461 -1.7025185370574027 a23.91378377324906,23.91378377324906 0 0,0 0.23764308981979823,0.3361292974599382 l -2.3936050511171425 1.6615627392656716" fill="#ff0000" stroke="none" /><path d="M 117.2510076193507 88.02491185347247 l 43.005476638353265 -29.853002496505447 a73.35143530934285,73.35143530934285 0 0,0 0.7110741731935623,1.0434136072171334 l -43.51297527721557 29.108310866017906" fill="#3fffc1" stroke="none" /><path d="M 117.65298651832404 88.62581576622439 l 5.245236000673858 -3.379614013717659 a27.239734896971335,27.239734896971335 0 0,0 0.25056976512718465,0.39634119397195317 l -5.302633362046998 3.2888251720315" fill="#ff3104" stroke="none" /><line stroke="#e1ed5e" stroke-width="0.3" x1="172.23445277983987" x2="176.4835382374775" y1="55.19839476539836" y2="52.563006222186495" /><path d="M 173.08426987136738 54.67131705675599 a86.0,86.0 0 0,1 12.851231095245387,41.99856678651699" fill="none" id="id63" stroke="none" /><text fill="#e1ed5e" style="font-size:6.75px; font-family:Arial;" text-anchor="middle"><textPath startOffset="22.20632615414155" xlink:href="#id63">March</textPath></text><path d="M 118.3937258080291 89.86733742301442 l 11.129491154361975 -6.130969858834665 a33.70646940597429,33.70646940597429 0 0,0 0.2755775143307804,0.5106032810839574 l -11.23337676791122 5.938485594418249" fill="#ff8d0d" stroke="none" /><path d="M 118.56541770881063 90.18545643968196 l 53.0953320042266 -28.068662767427423 a81.05800621224964,81.05800621224964 0 0,0 0.6414798094916465,1.2391348130153599 l -53.57062124687836 27.15055523215172" fill="#49eeff" stroke="none" /><path d="M 119.47837535516314 92.15188598940014 l 4.8034951613931 -1.9353964069690788 a26.178737782282063,26.178737782282063 0 0,0 0.16480942813206276,0.4194220179724346 l -4.836098139406863 1.8524253841008598" fill="#ff2203" stroke="none" /><path d="M 120.78858239683441 97.02765380044208 l 15.986718875961582 -2.2857769802331966 a37.14930205372326,37.14930205372326 0 0,0 0.08506128928342653,0.6338054062356447 l -16.023696164302844 2.010253231932887" fill="#ffbc11" stroke="none" /><line stroke="#e1ed5e" stroke-width="0.3" x1="184.98032266829074" x2="189.97916517819016" y1="98.17113171792111" y2="98.06355123074" /><path d="M 185.9800911702706 98.14961562048488 a86.0,86.0 0 0,1 -9.607161424134198,41.387399972396054" fill="none" id="id64" stroke="none" /><text fill="#e1ed5e" style="font-size:6.75px; font-family:Arial;" text-anchor="middle"><textPath startOffset="21.466115282336823" xlink:href="#id64">April</textPath></text><path d="M 120.64145759157962 103.86396538481128 l 14.071267282648472 2.6340625151763017 a35.31568539307812,35.31568539307812 0 0,0 -0.11699593332413354,0.5965597434467405 l -14.023841416348676 -2.875885985690987" fill="#ffa30f" stroke="none" /><path d="M 120.02730092923936 106.31721596034902 l 13.634095881598169 4.30060587856918 a35.2962855816256,35.2962855816256 0 0,0 -0.18775564808624254,0.5778524671267031 l -13.55804798249568 -4.534657245673678" fill="#ffa30f" stroke="none" /><path d="M 119.12269723197855 108.67885076344098 l 13.075896343593747 5.934505555758991 a35.359575947072486,35.359575947072486 0 0,0 -0.25631547604400917,0.5520807325035813 l -12.971806250709907 -6.158706355541404" fill="#ffa40f" stroke="none" /><line stroke="#e1ed5e" stroke-width="0.3" x1="174.80103733775053" x2="179.2010983576182" y1="140.37084112569926" y2="142.7455964860345" /><path d="M 175.68104954172406 140.8457921977663 a86.0,86.0 0 0,1 -30.038265399797805,32.042727171017184" fill="none" id="id65" stroke="none" /><text fill="#e1ed5e" style="font-size:6.75px; font-family:Arial;" text-anchor="middle"><textPath startOffset="22.206326154141568" xlink:href="#id65">May</textPath></text><path d="M 116.0416608686014 113.55231037782055 l 7.87817754396914 6.65563922351853 a31.313254330614463,31.313254330614463 0 0,0 -0.3513906158440261,0.40874667199051823 l -7.762444418554335 -6.790262994670576" fill="#ff6c09" stroke="none" /><path d="M 112.34349029814194 116.9893568818739 l 12.761073637183278 17.56411104002038 a42.71043520981972,42.71043520981972 0 0,0 -0.5985006618062255,0.42701433102058794 l -12.45684564752817 -17.781169632885188" fill="#fbff18" stroke="none" /><line stroke="#e1ed5e" stroke-width="0.3" x1="143.8653032363475" x2="146.44561519142675" y1="172.8068346515853" y2="177.08958963109032" /><path d="M 144.38136562736335 173.6633856474863 a86.0,86.0 0 0,1 -40.68145358897372,12.25698825130547" fill="none" id="id66" stroke="none" /><text fill="#e1ed5e" style="font-size:6.75px; font-family:Arial;" text-anchor="middle"><textPath startOffset="21.466115282336833" xlink:href="#id66">June</textPath></text><path d="M 110.8373102113329 117.98757091392108 l 1.8483753970254693 3.0678999568337924 a24.58168979023447,24.58168979023447 0 0,0 -0.3643148403397408,0.21524362924097504 l -1.7952926856573463 -3.099262158368517" fill="#ff0a01" stroke="none" /><path d="M 109.89434966115114 118.52300852407294 l 6.487904366296603 12.145872340870998 a34.770080536690614,34.770080536690614 0 0,0 -0.5303415769423062,0.27744964756534474 l -6.277871886827802 -12.255751407381059" fill="#ff9c0e" stroke="none" /><path d="M 108.59647513512805 119.15986991738527 l 5.917646926754508 13.18928322962482 a35.455993126070226,35.455993126070226 0 0,0 -0.5589879182627928,0.2450438762257596 l -5.6897383338339615 -13.289191659145034" fill="#ffa50f" stroke="none" /><path d="M 107.93186726928326 119.44442032107085 l 3.4359901309407386 8.4230905607552 a30.09694909156941,30.09694909156941 0 0,0 -0.4813776607285269,0.19155010570657854 l -3.2904913941703455 -8.480987510867848" fill="#ff5b08" stroke="none" /><path d="M 106.2309692047433 120.05430185196036 l 4.372739930409024 14.073612563802632 a35.737280111846175,35.737280111846175 0 0,0 -0.5890269996261358,0.1774690031251987 l -4.129837956342642 -14.146796936033557" fill="#ffa90f" stroke="none" /><path d="M 101.26447882468166 120.96189622390904 l 1.7317770046569754 28.708531250976495 a49.76071657977514,49.76071657977514 0 0,0 -0.8554386861711436,0.044216408906186104 l -1.2373502500723523 -28.734087466644883" fill="#a6ff21" stroke="none" /><line stroke="#e1ed5e" stroke-width="0.3" x1="102.19456741930631" x2="102.32365962044197" y1="184.97166512339345" y2="189.96999836594603" /><path d="M 102.22038585953345 185.97133177190398 a86.0,86.0 0 0,1 -42.740103519485714,-10.115201625700543" fill="none" id="id67" stroke="none" /><text fill="#e1ed5e" style="font-size:6.75px; font-family:Arial;" text-anchor="middle"><textPath startOffset="22.20632615414155" xlink:href="#id67">July</textPath></text><path d="M 100.54218724476979 120.99299961872073 l 0.2790375693295268 10.804082248431856 a31.80768500632664,31.80768500632664 0 0,0 -0.547456168213478,0.009424954411866672 l -0.09302171122338088 -10.807284680122882" fill="#ff730a" stroke="none" /><path d="M 96.22490169976321 120.6578951692458 l -3.099909258381764 16.963161062536617 a38.24407929243424,38.24407929243424 0 0,0 -0.646566033319151,-0.12391591912574097 l 3.39144290627261 -16.90728794506241" fill="#ffca12" stroke="none" /><path d="M 93.08242187328487 119.8279376855182 l -6.335044595178374 18.158214792410746 a40.23157701464503,40.23157701464503 0 0,0 -0.6519056525286858,-0.23375017330462639 l 6.646669808336786 -18.04647707806616" fill="#ffe415" stroke="none" /><path d="M 91.40352486487194 119.15986991738527 l -6.7126363452006625 14.961159912066842 a37.39804234100354,37.39804234100354 0 0,0 -0.5850692287935619,-0.268576587105575 l 6.969173569761644 -14.843396254627192" fill="#ffbf11" stroke="none" /><line stroke="#e1ed5e" stroke-width="0.3" x1="58.666819895761336" x2="56.23545636021788" y1="174.27360380694188" y2="178.64263932499728" /><path d="M 58.180547188652646 175.14741091055294 a86.0,86.0 0 0,1 -31.652253787137756,-30.449443065178592" fill="none" id="id68" stroke="none" /><text fill="#e1ed5e" style="font-size:6.75px; font-family:Arial;" text-anchor="middle"><textPath startOffset="22.20632615414155" xlink:href="#id68">August</textPath></text><path d="M 87.07902340077011 116.55440617244103 l -5.277332125502086 6.761338730204041 a29.57705869091576,29.57705869091576 0 0,0 -0.39864594523441194,-0.3167084487174648 l 5.3929355634538565 -6.669496367481445" fill="#ff5307" stroke="none" /><path d="M 86.51685102203217 116.09983520530335 l -18.355581527568685 21.917864897455637 a49.58881205783722,49.58881205783722 0 0,0 -0.6496949606020453,-0.5536841402562304 l 18.730141964747787 -21.598656366976453" fill="#a8ff21" stroke="none" /><path d="M 84.43433777217949 114.09645910891817 l -6.368017078415179 5.766956203786337 a29.591241200628527,29.591241200628527 0 0,0 -0.3386663309758356,-0.38049521302847933 l 6.466342259039353 -5.656486821016993" fill="#ff5307" stroke="none" /><path d="M 82.05923443525364 110.91462005526583 l -33.860155078492255 20.599495955753962 a60.633941711248816,60.633941711248816 0 0,0 -0.5347888374629504,-0.8963368525843652 l 34.209724791653436 -20.013597009283487" fill="#32ff2f" stroke="none" /><line stroke="#e1ed5e" stroke-width="0.3" x1="26.63291911575756" x2="22.317208475507996" y1="142.92168965132927" y2="145.44649492493687" /><path d="M 25.769776987707644 143.4266507060508 a86.0,86.0 0 0,1 -11.730757126820373,-40.83630448921669" fill="none" id="id69" stroke="none" /><text fill="#e1ed5e" style="font-size:6.75px; font-family:Arial;" text-anchor="middle"><textPath startOffset="21.46611528233685" xlink:href="#id69">September</textPath></text><path d="M 80.87730276802145 108.67885076344099 l -7.888938573264473 3.5804008047996216 a29.663407051255867,29.663407051255867 0 0,0 -0.20702079812412205,-0.46677724787532365 l 7.949400456119875 -3.4440752204316025" fill="#ff5407" stroke="none" /><line stroke="#e1ed5e" stroke-width="0.3" x1="15.007084014347285" x2="10.007500721073583" y1="101.09737516637583" y2="101.16192664675087" /><path d="M 14.007167355692545 101.11028546245083 a86.0,86.0 0 0,1 10.666146001902534,-42.60595125391555" fill="none" id="id70" stroke="none" /><text fill="#e1ed5e" style="font-size:6.75px; font-family:Arial;" text-anchor="middle"><textPath startOffset="22.20632615414155" xlink:href="#id70">October</textPath></text><path d="M 79.00175016825051 100.2711162175752 l -13.994427344472959 0.18068725913660624 a34.99559375608433,34.99559375608433 0 0,0 -0.0025925114315138963,-0.6024083546409107 l 13.995464153193975 0.06023057370797983" fill="#ff9f0e" stroke="none" /><path d="M 79.46518482838121 95.60439243477599 l -27.494063149929186 -5.885278779991487 a49.11689909663781,49.11689909663781 0 0,0 0.18408455485523548,-0.8252149640621765 l 27.38868420807191 6.357671913603623" fill="#aeff20" stroke="none" /><path d="M 80.52162464483688 92.15188598940014 l -23.844529792237548 -9.607299629792863 a46.707232585199094,46.707232585199094 0 0,0 0.3068850077295093,-0.743146388117464 l 23.675623097621838 10.016320588363637" fill="#caff1d" stroke="none" /><line stroke="#e1ed5e" stroke-width="0.3" x1="26.266209847984243" x2="21.928928074336255" y1="57.711370442889674" y2="55.22380399835377" /><path d="M 25.398753493254645 57.213857153982495 a86.0,86.0 0 0,1 29.58750427330803,-30.492523968695096" fill="none" id="id71" stroke="none" /><text fill="#e1ed5e" style="font-size:6.75px; font-family:Arial;" text-anchor="middle"><textPath startOffset="21.46611528233685" xlink:href="#id71">November</textPath></text><path d="M 81.78341655067845 89.55222093294921 l -12.307627057287673 -7.058808183868701 a35.18818017780756,35.18818017780756 0 0,0 0.30586961259304046,-0.5228303170131738 l 12.184297770224308 7.269617913235766" fill="#ffa10e" stroke="none" /><path d="M 82.34701348167596 88.62581576622439 l -10.0928433361417 -6.503027656467551 a33.0064505707841,33.0064505707841 0 0,0 0.3118376594350504,-0.47495014927166557 l 9.97940904134873 6.675795869716883" fill="#ff830c" stroke="none" /><path d="M 82.95767976084542 87.72973835380427 l -18.365949604544006 -13.223258562578167 a43.631011287378364,43.631011287378364 0 0,0 0.4440751602834488,-0.6057180195649267 l 18.135611831746925 13.537439025814594" fill="#f0ff19" stroke="none" /><path d="M 83.17141714833178 87.43820079747576 l -8.412652343823602 -6.2796760984114055 a31.497954627402436,31.497954627402436 0 0,0 0.32806478622582275,-0.43169480335119464 l 8.30331161737367 6.423555677643627" fill="#ff6e0a" stroke="none" /><path d="M 83.39014120810768 87.1503855733568 l -13.74136572655078 -10.630508873913856 a38.373337357836164,38.373337357836164 0 0,0 0.40866858638433273,-0.5189676037633871 l 13.556343059572477 10.86546887163029" fill="#ffcc13" stroke="none" /><path d="M 83.84228863543731 86.58626213691792 l -21.99932192893676 -18.26330046763387 a49.59227709197141,49.59227709197141 0 0,0 0.5509215189791692,-0.6521173088790914 l 21.681689796470465 18.639276726142075" fill="#a8ff21" stroke="none" /><path d="M 84.5562425177563 85.77008943001954 l -5.079929246797047 -4.680657473860317 a27.907549170296832,27.907549170296832 0 0,0 0.3285551485054127,-0.3504797245803272 l 4.998606776321178 4.767406615318695" fill="#ff3b05" stroke="none" /><path d="M 86.37877921826538 84.01681056812374 l -18.410347682284783 -21.602768153295372 a49.38345457599623,49.38345457599623 0 0,0 0.651726296888547,-0.5458020309992364 l 18.035763848437124 21.91647134168842" fill="#abff21" stroke="none" /><path d="M 86.93701828274178 83.55741782278169 l -13.095983776550188 -16.484122392436447 a42.05305398569268,42.05305398569268 0 0,0 0.570654825811694,-0.44540514312288476 l 12.810296395579067 16.707105924782553" fill="#fffb17" stroke="none" /><path d="M 87.51073957382395 83.11751280151077 l -10.103587822557033 -13.65762953550301 a37.988623588071135,37.988623588071135 0 0,0 0.5290452806478386,-0.3843738956311874 l 9.866997225555414 13.829522665950865" fill="#ffc712" stroke="none" /><line stroke="#e1ed5e" stroke-width="0.3" x1="56.762969772571076" x2="54.21961505331055" y1="26.818313649435495" y2="22.513508569990535" /><path d="M 56.25429882871897 25.957352633546506 a86.0,86.0 0 0,1 42.265352541879196,-11.944610805530505" fill="none" id="id72" stroke="none" /><text fill="#e1ed5e" style="font-size:6.75px; font-family:Arial;" text-anchor="middle"><textPath startOffset="22.20632615414155" xlink:href="#id72">December</textPath></text><path d="M 89.63071344664047 81.73862282372117 l -7.36321337154119 -12.967373976521959 a35.91206555115092,35.91206555115092 0 0,0 0.5401788771082956,-0.30060896027150735 l 7.138910405360849 13.09219833435365" fill="#ffab0f" stroke="none" /><path d="M 93.59665428221793 80.00007090966166 l -8.712769452031793 -27.21308186393822 a49.57383726519177,49.57383726519177 0 0,0 0.8149339883239126,-0.25320395706762444 l 8.243050090997153 27.359025955888374" fill="#a9ff21" stroke="none" /><path d="M 94.28887869178378 79.79150937346287 l -4.182573723749335 -14.799808536651165 a36.37947514306425,36.37947514306425 0 0,0 0.6040761795866487,-0.16511683899091595 l 3.927199654938964 14.869611916468378" fill="#ffb110" stroke="none" /><path d="M 96.04723909329186 79.375362276772 l -5.3649203880284695 -27.992975550144255 a49.50243938544309,49.50243938544309 0 0,0 0.8382528077510407,-0.15318534263939892 l 4.882272459174535 28.081176374134387" fill="#a9ff21" stroke="none" /></svg>