<?xml version="1.0" encoding="utf-8" ?>
<svg baseProfile="full" height="200mm" version="1.1" viewBox="0,0,200,200" width="200mm" xmlns="http://www.w3.org/2000/svg" xmlns:ev="http://www.w3.org/2001/xml-events" xmlns:xlink="http://www.w3.org/1999/xlink"><defs /><rect fill="#1a1a1a" height="200" width="200" x="0" y="0" /><rect fill="#1a1a1a" height="200" width="180" x="10" y="0" /><text alignment-baseline="middle" fill="#e1ed5e" style="dominant-baseline: central; font-size:9.0px; font-family:Arial;" text-anchor="middle" x="100.0" y="100.0">2022</text><line stroke="#e1ed5e" stroke-width="0.3" x1="100.0" x2="100.0" y1="15.0" y2="10.0" /><path d="M 100.0 14.0 a86.0,86.0 0 0,1 42.46469731375804,11.215312516191453" fill="none" id="id49" stroke="none" /><text fill="#e1ed5e" style="font-size:6.75px; font-family:Arial;" text-anchor="middle"><textPath startOffset="22.20632615414155" xlink:href="#id49">January</textPath></text><path d="M 101.44485096284872 79.0497635885617 l 0.9953896776144128 -14.433079676544313 a35.46736290965903,35.46736290965903 0 0,0 0.6087040738136826,0.047247151345918545 l -1.2436839407904365 14.413807263009929" fill="#ff7d0b" stroke="none" /><path d="M 103.59715602781102 79.31037775812273 l 5.001171265229087 -28.76504200666743 a50.1965641072626,50.1965641072626 0 0,0 0.850006814305409,0.15533331220748836 l -5.495573200637397 28.674693213109204" fill="#b9ff1f" stroke="none" /><path d="M 106.74666289553966 80.11325718540242 l 9.364822042684436 -27.604137089829074 a50.14941296776361,50.14941296776361 0 0,0 0.815090339598112,0.28436901476742504 l -9.838594386345822 27.43884722188944" fill="#b9ff1f" stroke="none" /><path d="M 108.43124777332544 80.76684994638697 l 5.800575466372032 -13.232126648560955 a35.44769363547809,35.44769363547809 0 0,0 0.5567277723853324,0.24978752324425268 l -6.027485357224145 13.130318794800171" fill="#ff7d0b" stroke="none" /><line stroke="#e1ed5e" stroke-width="0.3" x1="143.23703022742887" x2="145.7803849466894" y1="26.81831364943548" y2="22.513508569990506" /><path d="M 143.74570117128098 25.957352633546492 a86.0,86.0 0 0,1 28.547481713284135,27.462654790039103" fill="none" id="id50" stroke="none" /><text fill="#e1ed5e" style="font-size:6.75px; font-family:Arial;" text-anchor="middle"><textPath startOffset="19.985693538727396" xlink:href="#id50">February</textPath></text><path d="M 113.89432698308785 84.25364557470407 l 9.554024617954678 -10.827516727181795 a35.440031332302766,35.440031332302766 0 0,0 0.4539513822687281,0.40756203314277495 l -9.738986987819397 10.661455685269722" fill="#ff7d0b" stroke="none" /><path d="M 114.42810811169701 84.74124197986012 l 10.21482739166233 -10.802911801063532 a35.867602430217616,35.867602430217616 0 0,0 0.4449576878342685,0.4280489431570522 l -10.399268323109016 10.625479771144178" fill="#ff830c" stroke="none" /><path d="M 114.94478906791727 85.2469230424477 l 10.281083139015648 -10.149197159463776 a35.44669074539285,35.44669074539285 0 0,0 0.4249142282895076,0.43791146326749103 l -10.454261631008265 9.970721500646171" fill="#ff7d0b" stroke="none" /><path d="M 116.60985879189232 87.15038557335679 l 11.47431602155451 -8.876688148510901 a35.507085187880314,35.507085187880314 0 0,0 0.36982161062387753,0.4866418895790955 l -11.6254135724025 8.677861483050771" fill="#ff7e0b" stroke="none" /><path d="M 117.45458315368197 88.32363383020206 l 19.422690369736596 -12.992945334922707 a44.36787388007194,44.36787388007194 0 0,0 0.4191778790391196,0.6384366679178347 l -19.64346488413364 12.656690603027199" fill="#fffa17" stroke="none" /><line stroke="#e1ed5e" stroke-width="0.3" x1="172.23445277983987" x2="176.4835382374775" y1="55.19839476539836" y2="52.563006222186495" /><path d="M 173.08426987136738 54.67131705675599 a86.0,86.0 0 0,1 12.851231095245387,41.99856678651699" fill="none" id="id51" stroke="none" /><text fill="#e1ed5e" style="font-size:6.75px; font-family:Arial;" text-anchor="middle"><textPath startOffset="22.20632615414155" xlink:href="#id51">March</textPath></text><path d="M 119.34039704204932 91.81776055985345 l 8.287873504584288 -3.506306789706401 a29.999057424615728,29.999057424615728 0 0,0 0.1971056827834559,0.4773070451426551 l -8.347000874253942 3.363125174110443" fill="#ff2b04" stroke="none" /><path d="M 119.7369772167798 92.82701384747503 l 27.068684083313137 -9.837539657876595 a49.800882703877406,49.800882703877406 0 0,0 0.285873475376403,0.8082028110252941 l -27.23401063949935 9.370139220424686" fill="#beff1f" stroke="none" /><path d="M 120.08093135843002 93.85539295169968 l 15.581990820200113 -4.767966630201063 a37.29515092619616,37.29515092619616 0 0,0 0.18255817054961904,0.6154953965653583 l -15.661754887861434 4.499041846889175" fill="#ff980e" stroke="none" /><path d="M 120.28053869075195 94.5502522615342 l 14.250318304997936 -3.8293183992441966 a35.755854810770856,35.755854810770856 0 0,0 0.15460775113956562,0.5957667336116693 l -14.314122388007805 3.5834552400836768" fill="#ff820b" stroke="none" /><path d="M 120.78858239683441 97.02765380044208 l 9.927707439660736 -1.4194610731654234 a31.028671135585565,31.028671135585565 0 0,0 0.07104679295798035,0.5293811303803757 l -9.950670231676552 1.2483616007203833" fill="#ff3b05" stroke="none" /><path d="M 120.87857604477298 97.74499172005257 l 37.46958250443009 -4.046933977320573 a58.68749511009037,58.68749511009037 0 0,0 0.09983266723059893,1.0053013348934916 l -37.53369229734292 3.4013571117226467" fill="#55ff2b" stroke="none" /><path d="M 120.96714384426684 98.82574320788733 l 14.400891225884806 -0.8065163505374074 a35.42345786292074,35.42345786292074 0 0,0 0.028855597520350093,0.6090960571099452 l -14.412640431638653 0.5585091868044625" fill="#ff7d0b" stroke="none" /><line stroke="#e1ed5e" stroke-width="0.3" x1="184.98032266829074" x2="189.97916517819016" y1="98.17113171792111" y2="98.06355123074" /><path d="M 185.9800911702706 98.14961562048488 a86.0,86.0 0 0,1 -9.607161424134198,41.387399972396054" fill="none" id="id52" stroke="none" /><text fill="#e1ed5e" style="font-size:6.75px; font-family:Arial;" text-anchor="middle"><textPath startOffset="21.466115282336823" xlink:href="#id52">April</textPath></text><path d="M 120.9904718944345 100.63252640178507 l 60.52764758332625 1.8239387531133728 a81.55512261193473,81.55512261193473 0 0,0 -0.054361798648842705,1.4028364719044448 l -60.4872836518262 -2.865552472031824" fill="#4aebff" stroke="none" /><path d="M 120.92983693683757 101.71520430193887 l 28.575647075755516 2.341779964312922 a49.67144117757934,49.67144117757934 0 0,0 -0.07716908675800145,0.8515544419782605 l -28.53110339272044 -2.833315794839753" fill="#bfff1e" stroke="none" /><path d="M 120.8583938346157 102.4346265915055 l 30.086135633518197 3.5117040377023057 a51.290388287489286,51.290388287489286 0 0,0 -0.10990428871810266,0.8760453168775312 l -30.021229835553246 -4.029067108867232" fill="#abff21" stroke="none" /><path d="M 120.32669344350535 105.2749913415812 l 27.879846004556203 7.2351140970072985 a49.803345104943666,49.803345104943666 0 0,0 -0.2224832194718618,0.8279428254439529 l -27.751174708742564 -7.7139478556268" fill="#beff1f" stroke="none" /><path d="M 119.9155931802556 106.66101706037122 l 27.77249403928335 9.288854965571769 a50.2847102040204,50.2847102040204 0 0,0 -0.28161633254072777,0.8185088840465794 l -27.608486875799393 -9.765536552707648" fill="#b8ff1f" stroke="none" /><path d="M 119.67450827220406 107.3425965602758 l 27.031488620328364 10.088247828951822 a49.85262763231961,49.85262763231961 0 0,0 -0.3069633300073209,0.8013843914339955 l -26.853831010727536 -10.552055787218961" fill="#bdff1f" stroke="none" /><path d="M 119.12269723197855 108.67885076344098 l 26.030696166586125 11.814051363030531 a49.58616715345807,49.58616715345807 0 0,0 -0.35944158544663446,0.774205197627452 l -25.823479964299658 -12.260376627936813" fill="#c0ff1e" stroke="none" /><line stroke="#e1ed5e" stroke-width="0.3" x1="174.80103733775053" x2="179.2010983576182" y1="140.37084112569926" y2="142.7455964860345" /><path d="M 175.68104954172406 140.8457921977663 a86.0,86.0 0 0,1 -30.038265399797805,32.042727171017184" fill="none" id="id53" stroke="none" /><text fill="#e1ed5e" style="font-size:6.75px; font-family:Arial;" text-anchor="middle"><textPath startOffset="22.206326154141568" xlink:href="#id53">May</textPath></text><path d="M 117.94076556474637 110.91462005526583 l 24.468133441496 14.885673580186943 a49.64040558453617,49.64040558453617 0 0,0 -0.4503929792894317,0.7261768908612035 l -24.208275822538607 -15.30464680241342" fill="#c0ff1e" stroke="none" /><path d="M 117.35343817320211 111.8261652097733 l 23.87755413947109 16.272273957488956 a49.895059983169205,49.895059983169205 0 0,0 -0.48977725723910953,0.7055606683668988 l -23.593915975069848 -16.680875888042873" fill="#bcff1f" stroke="none" /><path d="M 117.14729908036423 112.12312394758627 l 25.247317614472234 17.849829255898385 a51.91995231546721,51.91995231546721 0 0,0 -0.522216338472466,0.7253128198065623 l -24.936321483624166 -18.281775681156077" fill="#a4ff21" stroke="none" /><path d="M 113.75828350139079 115.86535959552629 l 24.704495769992526 28.487980275843903 a58.707786085190016,58.707786085190016 0 0,0 -0.7691685117031148,0.6555020924278917 l -24.21046178171236 -28.90900675849474" fill="#55ff2b" stroke="none" /><path d="M 113.48314897796784 116.09983520530334 l 18.832494646921475 22.487332952831537 a50.331604080885676,50.331604080885676 0 0,0 -0.6690025798684343,0.5505435777679714 l -18.44262193850835 -22.808171649456686" fill="#b7ff1f" stroke="none" /><path d="M 112.04921762599082 117.19931262002967 l 16.60128659032736 23.697033851047834 a49.93358135094738,49.93358135094738 0 0,0 -0.7082082586429935,0.4871120980823303 l -16.19092144706148 -23.979286738495258" fill="#bcff1f" stroke="none" /><line stroke="#e1ed5e" stroke-width="0.3" x1="143.8653032363475" x2="146.44561519142675" y1="172.8068346515853" y2="177.08958963109032" /><path d="M 144.38136562736335 173.6633856474863 a86.0,86.0 0 0,1 -40.68145358897372,12.25698825130547" fill="none" id="id54" stroke="none" /><text fill="#e1ed5e" style="font-size:6.75px; font-family:Arial;" text-anchor="middle"><textPath startOffset="21.466115282336833" xlink:href="#id54">June</textPath></text><path d="M 106.91757812671514 119.82793768551818 l 7.223806174412973 20.705682835061417 a42.92963012254525,42.92963012254525 0 0,0 -0.6998148449884276,0.23741519123813187 l -6.866321596487318 -20.82696101319767" fill="#ffe715" stroke="none" /><path d="M 105.18746579009965 120.34920634021253 l 3.7568224607586522 14.737129560145815 a36.20844182269125,36.20844182269125 0 0,0 -0.6052787888772524,0.14876279994625966 l -3.5025903871381887 -14.799613618406106" fill="#ff880c" stroke="none" /><path d="M 104.83641907484287 120.43548508189849 l 2.9953386060199283 12.656305512678019 a34.00592644124045,34.00592644124045 0 0,0 -0.5707811367507503,0.12990792842063326 l -2.7770373198763156 -12.705990174676336" fill="#ff6809" stroke="none" /><path d="M 104.48393922423573 120.51570834832081 l 3.0729415698900255 14.059863407278991 a35.39175906285611,35.39175906285611 0 0,0 -0.5962812643558422,0.12495653647990544 l -2.830468844104805 -14.110675924485438" fill="#ff7c0b" stroke="none" /><path d="M 102.70371172650421 120.8252237178851 l 5.309441709335575 40.895747253700975 a62.2389659751966,62.2389659751966 0 0,0 -1.0636122907683936,0.12878863614919248 l -4.604701995515802 -40.98108141857551" fill="#2fff30" stroke="none" /><path d="M 101.26447882468166 120.96189622390904 l 0.584205781257138 9.684670649350586 a30.702275093051473,30.702275093051473 0 0,0 -0.5278041731163442,0.02728144695601792 l -0.41741353972731415 -9.693291903068806" fill="#ff3605" stroke="none" /><line stroke="#e1ed5e" stroke-width="0.3" x1="102.19456741930631" x2="102.32365962044197" y1="184.97166512339345" y2="189.96999836594603" /><path d="M 102.22038585953345 185.97133177190398 a86.0,86.0 0 0,1 -42.740103519485714,-10.115201625700543" fill="none" id="id55" stroke="none" /><text fill="#e1ed5e" style="font-size:6.75px; font-family:Arial;" text-anchor="middle"><textPath startOffset="22.20632615414155" xlink:href="#id55">July</textPath></text><path d="M 100.18074693466247 120.99922214144158 l 0.5267879161454232 61.202346215292216 a82.20461328825704,82.20461328825704 0 0,0 -1.4150697016157152,0.0 l 0.5267879161453811 -61.202346215292216" fill="#4be4ff" stroke="none" /><path d="M 97.65516085044442 120.86867818915974 l -1.6022048581734902 14.259356589413816 a35.34908745361927,35.34908745361927 0 0,0 -0.6040865765362928,-0.07314647168278281 l 1.8474188577611723 -14.229664589005685" fill="#ff7c0b" stroke="none" /><path d="M 95.16358092515715 120.4354850818985 l -3.3060809123228614 13.96929548862936 a35.35518677856426,35.35518677856426 0 0,0 -0.5910153421859645,-0.14525719177747473 l 3.5460495392520364 -13.910317038537855" fill="#ff7c0b" stroke="none" /><path d="M 90.42595943632237 118.69057910512821 l -6.53429172961987 12.756337896852626 a35.332519839388226,35.332519839388226 0 0,0 -0.5389203591056729,-0.28193766093493366 l 6.752902991252038 -12.641970816972975" fill="#ff7c0b" stroke="none" /><line stroke="#e1ed5e" stroke-width="0.3" x1="58.666819895761336" x2="56.23545636021788" y1="174.27360380694188" y2="178.64263932499728" /><path d="M 58.180547188652646 175.14741091055294 a86.0,86.0 0 0,1 -31.652253787137756,-30.449443065178592" fill="none" id="id56" stroke="none" /><text fill="#e1ed5e" style="font-size:6.75px; font-family:Arial;" text-anchor="middle"><textPath startOffset="22.20632615414155" xlink:href="#id56">August</textPath></text><path d="M 86.24171649860922 115.8653595955263 l -19.112615092728994 22.039705114840544 a50.172601139287195,50.172601139287195 0 0,0 -0.6476032006367354,-0.5714345290288949 l 19.489160646272317 -21.70744744403936" fill="#b9ff1f" stroke="none" /><path d="M 82.24976979558568 111.22182372390057 l -7.3508391596691505 4.647253603056827 a29.696654667310305,29.696654667310305 0 0,0 -0.2694410856043928,-0.43442482190364645 l 7.429744884941499 -4.520032449787916" fill="#ff2603" stroke="none" /><line stroke="#e1ed5e" stroke-width="0.3" x1="26.63291911575756" x2="22.317208475507996" y1="142.92168965132927" y2="145.44649492493687" /><path d="M 25.769776987707644 143.4266507060508 a86.0,86.0 0 0,1 -11.730757126820373,-40.83630448921669" fill="none" id="id57" stroke="none" /><text fill="#e1ed5e" style="font-size:6.75px; font-family:Arial;" text-anchor="middle"><textPath startOffset="21.46611528233685" xlink:href="#id57">September</textPath></text><path d="M 79.50377843672027 104.57218783832718 l -9.880503084751174 2.204089953905858 a31.123356841121733,31.123356841121733 0 0,0 -0.11214184350027281,-0.5238893588912348 l 9.916978966975888 -2.0336867755984596" fill="#ff3c05" stroke="none" /><path d="M 79.18660465613746 102.79330883721812 l -28.78036842237703 3.862534493985159 a50.038401802526636,50.038401802526636 0 0,0 -0.10722155051492824,-0.854661253828535 l 28.842591482138808 -3.3665554858692155" fill="#bbff1f" stroke="none" /><line stroke="#e1ed5e" stroke-width="0.3" x1="15.007084014347285" x2="10.007500721073583" y1="101.09737516637583" y2="101.16192664675087" /><path d="M 14.007167355692545 101.11028546245083 a86.0,86.0 0 0,1 10.666146001902534,-42.60595125391555" fill="none" id="id58" stroke="none" /><text fill="#e1ed5e" style="font-size:6.75px; font-family:Arial;" text-anchor="middle"><textPath startOffset="22.20632615414155" xlink:href="#id58">October</textPath></text><path d="M 79.00175016825051 100.2711162175752 l -29.119905115618923 0.37597793122540796 a50.12233220996247,50.12233220996247 0 0,0 -0.003713116575022335,-0.862797524963241 l 29.12206252948345 0.12532907194150844" fill="#baff1f" stroke="none" /><path d="M 79.00019446554 99.90962569577889 l -29.098546930735115 -0.1252278707245859 a50.09881639345147,50.09881639345147 0 0,0 0.011133848548529213,-0.862328840015159 l 29.092080075068868 0.6260929688002168" fill="#baff1f" stroke="none" /><path d="M 79.00486145842228 99.54816195383935 l -28.85099815928295 -0.6209046257189051 a49.85767865475647,49.85767865475647 0 0,0 0.02585074471072627,-0.8578603656216742 l 28.836035720116577 1.1174351387655737" fill="#bdff1f" stroke="none" /><path d="M 79.03285615573316 98.82574320788736 l -29.026879654279217 -1.6256391829540358 a50.07236566255254,50.07236566255254 0 0,0 0.055602760679125736,-0.8601500973416459 l 28.994596302595678 2.1250483445486936" fill="#baff1f" stroke="none" /><path d="M 79.05617556472873 98.46500227214037 l -6.2736407142093045 -0.45980256717112034 a27.290467884963867,27.290467884963867 0 0,0 0.038369769100523615,-0.46820837008764554 l 6.264796461289284 0.5677248544665443" fill="#ff0000" stroke="none" /><path d="M 79.54389044137918 95.25157060432595 l -61.3683286758625 -14.245288187022146 a84.0,84.0 0 0,0 0.3390687989567409,-1.4056590733624128 l 61.114027076644945 15.299532492043955" fill="#4dd2ff" stroke="none" /><path d="M 80.2630227832202 92.82701384747504 l -28.038780639194762 -10.190100695239238 a50.83305837342189,50.83305837342189 0 0,0 0.3059554919442593,-0.819808606910233 l 27.859220558748873 10.671232439178812" fill="#b1ff20" stroke="none" /><path d="M 80.38941819471856 92.48833698450439 l -19.833302367626185 -7.596974192265746 a42.23850041042536,42.23850041042536 0 0,0 0.2659143903610986,-0.6767231187999199 l 19.699594427383396 7.937246315961429" fill="#ffde14" stroke="none" /><path d="M 81.26839172434947 90.50648371742162 l -25.635053207166628 -12.992306450448002 a49.73944988750858,49.73944988750858 0 0,0 0.39362987481472156,-0.7603676282693019 l 25.40761389919179 13.431646800977639" fill="#beff1e" stroke="none" /><line stroke="#e1ed5e" stroke-width="0.3" x1="26.266209847984243" x2="21.928928074336255" y1="57.711370442889674" y2="55.22380399835377" /><path d="M 25.398753493254645 57.213857153982495 a86.0,86.0 0 0,1 29.58750427330803,-30.492523968695096" fill="none" id="id59" stroke="none" /><text fill="#e1ed5e" style="font-size:6.75px; font-family:Arial;" text-anchor="middle"><textPath startOffset="21.46611528233685" xlink:href="#id59">November</textPath></text><path d="M 82.54541684631803 88.32363383020206 l -24.907485393340828 -16.662037544001276 a50.966753640279336,50.966753640279336 0 0,0 0.4940754335928351,-0.7249947330911417 l 24.616985494079252 17.088310300362835" fill="#afff20" stroke="none" /><path d="M 84.07557802195018 86.31012108654704 l -23.831952876358297 -20.487811086529444 a52.42789176859118,52.42789176859118 0 0,0 0.5942030864945193,-0.6792768462528299 l 23.475757926285933 20.895003488985218" fill="#9dff22" stroke="none" /><path d="M 84.31358615837235 86.03803664274999 l -10.932436049004282 -9.73060337835884 a35.635668760685206,35.635668760685206 0 0,0 0.4117724593181147,-0.4546894342005217 l 10.763319949070121 9.917345599828918" fill="#ff800b" stroke="none" /><path d="M 84.5562425177563 85.77008943001954 l -13.071881921356997 -12.044459448169881 a38.77478833529414,38.77478833529414 0 0,0 0.45649498857921417,-0.4869570256236811 l 12.862619610807327 12.267685890671613" fill="#ffad10" stroke="none" /><path d="M 85.83668400450813 84.49514656593479 l -20.210074356658698 -22.12435568699395 a50.96555055503394,50.96555055503394 0 0,0 0.6528177671631511,-0.5861062370314348 l 19.826245601899572 22.468960932794662" fill="#afff20" stroke="none" /><path d="M 87.80319425747018 82.90503203632743 l -16.024722267117415 -22.46015223706452 a48.59076226294524,48.59076226294524 0 0,0 0.6850576957119754,-0.47992669499946056 l 15.63573343182178 22.732663774827923" fill="#cdff1d" stroke="none" /><path d="M 89.00827224532344 82.1063720568725 l -7.6282876156674515 -12.418224275964807 a35.57405455305788,35.57405455305788 0 0,0 0.5245274641937844,-0.3160219281989043 l 7.413398085256018 12.54769281362233" fill="#ff7f0b" stroke="none" /><line stroke="#e1ed5e" stroke-width="0.3" x1="56.762969772571076" x2="54.21961505331055" y1="26.818313649435495" y2="22.513508569990535" /><path d="M 56.25429882871897 25.957352633546506 a86.0,86.0 0 0,1 42.265352541879196,-11.944610805530505" fill="none" id="id60" stroke="none" /><text fill="#e1ed5e" style="font-size:6.75px; font-family:Arial;" text-anchor="middle"><textPath startOffset="22.20632615414155" xlink:href="#id60">December</textPath></text><path d="M 89.94658935756843 81.56283822128135 l -27.370512696272453 -50.19536041010599 a78.17271352627272,78.17271352627272 0 0,0 1.186940806389324,-0.6340226724099374 l 26.502426843354822 50.65906180901767" fill="#45fff0" stroke="none" /><path d="M 91.56875222667455 80.76684994638697 l -10.518682546740317 -23.994953680264448 a47.19924587916866,47.19924587916866 0 0,0 0.7469083821760288,-0.3197871896899351 l 10.104090406773981 24.17246039791717" fill="#dfff1b" stroke="none" /><path d="M 92.57280143429618 80.3572730644239 l -10.933101348353453 -28.914795052922518 a51.91274944170901,51.91274944170901 0 0,0 0.8385581965889464,-0.3088480606874422 l 10.433760825991937 29.098706381416285" fill="#a4ff21" stroke="none" /></svg>