<?xml version="1.0" encoding="utf-8" ?>
<svg baseProfile="full" height="200mm" version="1.1" viewBox="0,0,200,200" width="200mm" xmlns="http://www.w3.org/2000/svg" xmlns:ev="http://www.w3.org/2001/xml-events" xmlns:xlink="http://www.w3.org/1999/xlink"><defs /><rect fill="#1a1a1a" height="200" width="200" x="0" y="0" /><rect fill="#1a1a1a" height="200" width="180" x="10" y="0" /><text alignment-baseline="middle" fill="#e1ed5e" style="dominant-baseline: central; font-size:9.0px; font-family:Arial;" text-anchor="middle" x="100.0" y="100.0">2026</text><line stroke="#e1ed5e" stroke-width="0.3" x1="100.0" x2="100.0" y1="15.0" y2="10.0" /><path d="M 100.0 14.0 a86.0,86.0 0 0,1 42.46469731375804,11.215312516191453" fill="none" id="id97" stroke="none" /><text fill="#e1ed5e" style="font-size:6.75px; font-family:Arial;" text-anchor="middle"><textPath startOffset="22.20632615414155" xlink:href="#id97">January</textPath></text><line stroke="#e1ed5e" stroke-width="0.3" x1="143.23703022742887" x2="145.7803849466894" y1="26.81831364943548" y2="22.513508569990506" /><path d="M 143.74570117128098 25.957352633546492 a86.0,86.0 0 0,1 28.547481713284135,27.462654790039103" fill="none" id="id98" stroke="none" /><text fill="#e1ed5e" style="font-size:6.75px; font-family:Arial;" text-anchor="middle"><textPath startOffset="19.985693538727396" xlink:href="#id98">February</textPath></text><line stroke="#e1ed5e" stroke-width="0.3" x1="172.23445277983987" x2="176.4835382374775" y1="55.19839476539836" y2="52.563006222186495" /><path d="M 173.08426987136738 54.67131705675599 a86.0,86.0 0 0,1 12.851231095245387,41.99856678651699" fill="none" id="id99" stroke="none" /><text fill="#e1ed5e" style="font-size:6.75px; font-family:Arial;" text-anchor="middle"><textPath startOffset="22.20632615414155" xlink:href="#id99">March</textPath></text><path d="M 117.84615892207809 88.93136811851018 l 21.856774481293037 -13.556115459158 a46.71938679416998,46.71938679416998 0 0,0 0.4179921282085599,0.6870691551449136 l -22.086882407787822 13.177878530806005" fill="red" stroke="none" /><path d="M 118.56541770881063 90.18545643968196 l 34.35846516705886 -18.163483221157882 a59.86407404482038,59.86407404482038 0 0,0 0.4737544951834983,0.9151428916673254 l -34.66602909540247 17.569367607230213" fill="red" stroke="none" /><path d="M 119.61058180528143 92.48833698450437 l 58.83174541584429 -22.534989046486903 a84.0,84.0 0 0,0 0.505581645993499,1.354707451882667 l -59.21093165033941 21.518958457574904" fill="red" stroke="none" /><path d="M 120.37134235888165 94.90015583598534 l 18.84856925032363 -4.718626990694098 a40.430234261623106,40.430234261623106 0 0,0 0.16319798776937464,0.6765610193811535 l -18.927000038353828 4.393480739653538" fill="red" stroke="none" /><path d="M 120.53481517161879 95.60439243477599 l 33.868468915144184 -7.249760805820119 a55.63570727439666,55.63570727439666 0 0,0 0.1923954397397054,0.9381884920204864 l -33.988243650798886 6.665696657636221" fill="red" stroke="none" /><path d="M 120.73433829027371 96.67025291283417 l 8.134950622022519 -1.3063994499705716 a29.239180854042953,29.239180854042953 0 0,0 0.07552634485687088,0.4976242471506376 l -8.156232860318688 1.1661760904278518" fill="red" stroke="none" /><path d="M 120.83666639777658 97.38593545837742 l 38.728064296625796 -4.8586303447413055 a60.0316442516892,60.0316442516892 0 0,0 0.1198050009144012,1.0264160841535175 l -38.805959650543784 4.191270522262935" fill="red" stroke="none" /><line stroke="#e1ed5e" stroke-width="0.3" x1="184.98032266829074" x2="189.97916517819016" y1="98.17113171792111" y2="98.06355123074" /><path d="M 185.9800911702706 98.14961562048488 a86.0,86.0 0 0,1 -9.607161424134198,41.387399972396054" fill="none" id="id100" stroke="none" /><text fill="#e1ed5e" style="font-size:6.75px; font-family:Arial;" text-anchor="middle"><textPath startOffset="21.466115282336823" xlink:href="#id100">April</textPath></text><path d="M 120.92983693683757 101.71520430193887 l 49.84738151968829 4.085002834994664 a71.01448482721057,71.01448482721057 0 0,0 -0.11032743988872631,1.2174541057348074 l -49.76967948352249 -4.942438329278041" fill="red" stroke="none" /><path d="M 120.76222939487914 103.15116336523771 l 23.429037161554323 3.555915031190825 a44.69734824883456,44.69734824883456 0 0,0 -0.12199874220598732,0.7596862841735765 l -23.36435666498705 -3.958680545057607" fill="red" stroke="none" /><line stroke="#e1ed5e" stroke-width="0.3" x1="174.80103733775053" x2="179.2010983576182" y1="140.37084112569926" y2="142.7455964860345" /><path d="M 175.68104954172406 140.8457921977663 a86.0,86.0 0 0,1 -30.038265399797805,32.042727171017184" fill="none" id="id101" stroke="none" /><text fill="#e1ed5e" style="font-size:6.75px; font-family:Arial;" text-anchor="middle"><textPath startOffset="22.206326154141568" xlink:href="#id101">May</textPath></text><path d="M 113.48314897796784 116.09983520530334 l 13.243291942908936 15.813428910780365 a41.62642274853837,41.62642274853837 0 0,0 -0.5532941919497076,0.45532345189780243 l -12.969127622414536 -16.039047481535345" fill="red" stroke="none" /><path d="M 112.63410532772338 116.77436683061366 l 33.12277592150359 43.977280491426654 a76.05560356737317,76.05560356737317 0 0,0 -1.0525191181221953,0.7786284814084459 l -32.36087183296283 -44.54091892157487" fill="red" stroke="none" /><path d="M 112.34349029814194 116.9893568818739 l 16.385540116211324 22.552761173108394 a48.87674589027988,48.87674589027988 0 0,0 -0.6849090771039861,0.48866444104982065 l -15.994903711258454 -22.831469876002433" fill="red" stroke="none" /><path d="M 112.04921762599082 117.19931262002967 l 19.63216207570452 28.02337076382306 a55.21594798823239,55.21594798823239 0 0,0 -0.7831280936817131,0.5386426437774907 l -19.146877097399923 -28.357154196965645" fill="red" stroke="none" /><path d="M 111.7513745106137 117.40417183066458 l 23.901143727233475 35.39837931320071 a63.711941298319694,63.711941298319694 0 0,0 -0.9141914240751382,0.6058762265422951 l -23.288277604418372 -35.804553560834314" fill="red" stroke="none" /><path d="M 111.45004920935366 117.60387380957326 l 25.243009442430054 38.809855283014016 a67.29702358466582,67.29702358466582 0 0,0 -0.9765060835392662,0.6232523843010161 l -24.571221556843856 -39.23862209613884" fill="red" stroke="none" /><path d="M 111.1453310114006 117.79835938074945 l 21.7761503472962 34.77507751128728 a62.03055861018817,62.03055861018817 0 0,0 -0.9098429662740941,0.5588998618155169 l -21.174328181089795 -35.144765839931175" fill="red" stroke="none" /><line stroke="#e1ed5e" stroke-width="0.3" x1="143.8653032363475" x2="146.44561519142675" y1="172.8068346515853" y2="177.08958963109032" /><path d="M 144.38136562736335 173.6633856474863 a86.0,86.0 0 0,1 -40.68145358897372,12.25698825130547" fill="none" id="id102" stroke="none" /><text fill="#e1ed5e" style="font-size:6.75px; font-family:Arial;" text-anchor="middle"><textPath startOffset="21.466115282336833" xlink:href="#id102">June</textPath></text><path d="M 110.8373102113329 117.98757091392108 l 22.180685209576172 36.8150989817925 a63.98062714067223,63.98062714067223 0 0,0 -0.9482298475205093,0.560230907817528 l -21.543687491027278 -37.19144846190378" fill="red" stroke="none" /><path d="M 110.5260780823613 118.17145234162733 l 20.01654962594953 34.5551091988637 a60.933918298527814,60.933918298527814 0 0,0 -0.9121263025459585,0.5179291196198084 l -19.418774556482372 -34.89454148427813" fill="red" stroke="none" /><line stroke="#e1ed5e" stroke-width="0.3" x1="102.19456741930631" x2="102.32365962044197" y1="184.97166512339345" y2="189.96999836594603" /><path d="M 102.22038585953345 185.97133177190398 a86.0,86.0 0 0,1 -42.740103519485714,-10.115201625700543" fill="none" id="id103" stroke="none" /><text fill="#e1ed5e" style="font-size:6.75px; font-family:Arial;" text-anchor="middle"><textPath startOffset="22.20632615414155" xlink:href="#id103">July</textPath></text><line stroke="#e1ed5e" stroke-width="0.3" x1="58.666819895761336" x2="56.23545636021788" y1="174.27360380694188" y2="178.64263932499728" /><path d="M 58.180547188652646 175.14741091055294 a86.0,86.0 0 0,1 -31.652253787137756,-30.449443065178592" fill="none" id="id104" stroke="none" /><text fill="#e1ed5e" style="font-size:6.75px; font-family:Arial;" text-anchor="middle"><textPath startOffset="22.20632615414155" xlink:href="#id104">August</textPath></text><line stroke="#e1ed5e" stroke-width="0.3" x1="26.63291911575756" x2="22.317208475507996" y1="142.92168965132927" y2="145.44649492493687" /><path d="M 25.769776987707644 143.4266507060508 a86.0,86.0 0 0,1 -11.730757126820373,-40.83630448921669" fill="none" id="id105" stroke="none" /><text fill="#e1ed5e" style="font-size:6.75px; font-family:Arial;" text-anchor="middle"><textPath startOffset="21.46611528233685" xlink:href="#id105">September</textPath></text><line stroke="#e1ed5e" stroke-width="0.3" x1="15.007084014347285" x2="10.007500721073583" y1="101.09737516637583" y2="101.16192664675087" /><path d="M 14.007167355692545 101.11028546245083 a86.0,86.0 0 0,1 10.666146001902534,-42.60595125391555" fill="none" id="id106" stroke="none" /><text fill="#e1ed5e" style="font-size:6.75px; font-family:Arial;" text-anchor="middle"><textPath startOffset="22.20632615414155" xlink:href="#id106">October</textPath></text><line stroke="#e1ed5e" stroke-width="0.3" x1="26.266209847984243" x2="21.928928074336255" y1="57.711370442889674" y2="55.22380399835377" /><path d="M 25.398753493254645 57.213857153982495 a86.0,86.0 0 0,1 29.58750427330803,-30.492523968695096" fill="none" id="id107" stroke="none" /><text fill="#e1ed5e" style="font-size:6.75px; font-family:Arial;" text-anchor="middle"><textPath startOffset="21.46611528233685" xlink:href="#id107">November</textPath></text><line stroke="#e1ed5e" stroke-width="0.3" x1="56.762969772571076" x2="54.21961505331055" y1="26.818313649435495" y2="22.513508569990535" /><path d="M 56.25429882871897 25.957352633546506 a86.0,86.0 0 0,1 42.265352541879196,-11.944610805530505" fill="none" id="id108" stroke="none" /><text fill="#e1ed5e" style="font-size:6.75px; font-family:Arial;" text-anchor="middle"><textPath startOffset="22.20632615414155" xlink:href="#id108">December</textPath></text></svg>