<?xml version="1.0" encoding="utf-8" ?>
<svg baseProfile="full" height="200mm" version="1.1" viewBox="0,0,200,200" width="200mm" xmlns="http://www.w3.org/2000/svg" xmlns:ev="http://www.w3.org/2001/xml-events" xmlns:xlink="http://www.w3.org/1999/xlink"><defs /><rect fill="#1a1a1a" height="200" width="200" x="0" y="0" /><rect fill="#1a1a1a" height="200" width="180" x="10" y="0" /><text alignment-baseline="middle" fill="#e1ed5e" style="dominant-baseline: central; font-size:9.0px; font-family:Arial;" text-anchor="middle" x="100.0" y="100.0">2019</text><line stroke="#e1ed5e" stroke-width="0.3" x1="100.0" x2="100.0" y1="15.0" y2="10.0" /><path d="M 100.0 14.0 a86.0,86.0 0 0,1 42.46469731375804,11.215312516191453" fill="none" id="id13" stroke="none" /><text fill="#e1ed5e" style="font-size:6.75px; font-family:Arial;" text-anchor="middle"><textPath startOffset="22.20632615414155" xlink:href="#id13">January</textPath></text><line stroke="#e1ed5e" stroke-width="0.3" x1="143.23703022742887" x2="145.7803849466894" y1="26.81831364943548" y2="22.513508569990506" /><path d="M 143.74570117128098 25.957352633546492 a86.0,86.0 0 0,1 28.547481713284135,27.462654790039103" fill="none" id="id14" stroke="none" /><text fill="#e1ed5e" style="font-size:6.75px; font-family:Arial;" text-anchor="middle"><textPath startOffset="19.985693538727396" xlink:href="#id14">February</textPath></text><line stroke="#e1ed5e" stroke-width="0.3" x1="172.23445277983987" x2="176.4835382374775" y1="55.19839476539836" y2="52.563006222186495" /><path d="M 173.08426987136738 54.67131705675599 a86.0,86.0 0 0,1 12.851231095245387,41.99856678651699" fill="none" id="id15" stroke="none" /><text fill="#e1ed5e" style="font-size:6.75px; font-family:Arial;" text-anchor="middle"><textPath startOffset="22.20632615414155" xlink:href="#id15">March</textPath></text><line stroke="#e1ed5e" stroke-width="0.3" x1="184.98032266829074" x2="189.97916517819016" y1="98.17113171792111" y2="98.06355123074" /><path d="M 185.9800911702706 98.14961562048488 a86.0,86.0 0 0,1 -9.607161424134198,41.387399972396054" fill="none" id="id16" stroke="none" /><text fill="#e1ed5e" style="font-size:6.75px; font-family:Arial;" text-anchor="middle"><textPath startOffset="21.466115282336823" xlink:href="#id16">April</textPath></text><line stroke="#e1ed5e" stroke-width="0.3" x1="174.80103733775053" x2="179.2010983576182" y1="140.37084112569926" y2="142.7455964860345" /><path d="M 175.68104954172406 140.8457921977663 a86.0,86.0 0 0,1 -30.038265399797805,32.042727171017184" fill="none" id="id17" stroke="none" /><text fill="#e1ed5e" style="font-size:6.75px; font-family:Arial;" text-anchor="middle"><textPath startOffset="22.206326154141568" xlink:href="#id17">May</textPath></text><line stroke="#e1ed5e" stroke-width="0.3" x1="143.8653032363475" x2="146.44561519142675" y1="172.8068346515853" y2="177.08958963109032" /><path d="M 144.38136562736335 173.6633856474863 a86.0,86.0 0 0,1 -40.68145358897372,12.25698825130547" fill="none" id="id18" stroke="none" /><text fill="#e1ed5e" style="font-size:6.75px; font-family:Arial;" text-anchor="middle"><textPath startOffset="21.466115282336833" xlink:href="#id18">June</textPath></text><line stroke="#e1ed5e" stroke-width="0.3" x1="102.19456741930631" x2="102.32365962044197" y1="184.97166512339345" y2="189.96999836594603" /><path d="M 102.22038585953345 185.97133177190398 a86.0,86.0 0 0,1 -42.740103519485714,-10.115201625700543" fill="none" id="id19" stroke="none" /><text fill="#e1ed5e" style="font-size:6.75px; font-family:Arial;" text-anchor="middle"><textPath startOffset="22.20632615414155" xlink:href="#id19">July</textPath></text><line stroke="#e1ed5e" stroke-width="0.3" x1="58.666819895761336" x2="56.23545636021788" y1="174.27360380694188" y2="178.64263932499728" /><path d="M 58.180547188652646 175.14741091055294 a86.0,86.0 0 0,1 -31.652253787137756,-30.449443065178592" fill="none" id="id20" stroke="none" /><text fill="#e1ed5e" style="font-size:6.75px; font-family:Arial;" text-anchor="middle"><textPath startOffset="22.20632615414155" xlink:href="#id20">August</textPath></text><path d="M 86.79598089348748 116.32954008644616 l -13.608235065053817 16.829437931589823 a42.64287510195895,42.64287510195895 0 0,0 -0.5668047736045092,-0.46644174080397943 l 13.895909967203016 -16.592701071928662" fill="red" stroke="none" /><line stroke="#e1ed5e" stroke-width="0.3" x1="26.63291911575756" x2="22.317208475507996" y1="142.92168965132927" y2="145.44649492493687" /><path d="M 25.769776987707644 143.4266507060508 a86.0,86.0 0 0,1 -11.730757126820373,-40.83630448921669" fill="none" id="id21" stroke="none" /><text fill="#e1ed5e" style="font-size:6.75px; font-family:Arial;" text-anchor="middle"><textPath startOffset="21.46611528233685" xlink:href="#id21">September</textPath></text><path d="M 80.45479744820244 107.68017299344265 l -12.171890588135248 4.782873194912867 a34.0778743107644,34.0778743107644 0 0,0 -0.20983162322263052,-0.5478041552255146 l 12.252416490951386 -4.5726454728541945" fill="red" stroke="none" /><line stroke="#e1ed5e" stroke-width="0.3" x1="15.007084014347285" x2="10.007500721073583" y1="101.09737516637583" y2="101.16192664675087" /><path d="M 14.007167355692545 101.11028546245083 a86.0,86.0 0 0,1 10.666146001902534,-42.60595125391555" fill="none" id="id22" stroke="none" /><text fill="#e1ed5e" style="font-size:6.75px; font-family:Arial;" text-anchor="middle"><textPath startOffset="22.20632615414155" xlink:href="#id22">October</textPath></text><path d="M 81.10775173730289 90.83032412892265 l -34.29587148398628 -16.646087900783392 a59.12215947774615,59.12215947774615 0 0,0 0.4522563301272098,-0.9117211644811113 l 34.00425514090566 17.233968653763466" fill="red" stroke="none" /><path d="M 81.26839172434947 90.50648371742162 l -36.09245079099016 -18.292303801154755 a61.4632349479597,61.4632349479597 0 0,0 0.4864099931340244,-0.9395892855436624 l 35.77223136469602 18.910865808958754" fill="red" stroke="none" /><path d="M 81.43458229118936 90.18545643968196 l -31.54483605049845 -16.67606796553687 a56.681478728382764,56.681478728382764 0 0,0 0.4634167058087521,-0.8586407750635472 l 31.253111245471224 17.21658972393289" fill="red" stroke="none" /><path d="M 81.6062741919709 89.86733742301443 l -30.872665408953022 -17.007011233392642 a56.247126131727505,56.247126131727505 0 0,0 0.4744642187379224,-0.8440189029945442 l 30.575343548922667 17.53591364632197" fill="red" stroke="none" /><line stroke="#e1ed5e" stroke-width="0.3" x1="26.266209847984243" x2="21.928928074336255" y1="57.711370442889674" y2="55.22380399835377" /><path d="M 25.398753493254645 57.213857153982495 a86.0,86.0 0 0,1 29.58750427330803,-30.492523968695096" fill="none" id="id23" stroke="none" /><text fill="#e1ed5e" style="font-size:6.75px; font-family:Arial;" text-anchor="middle"><textPath startOffset="21.46611528233685" xlink:href="#id23">November</textPath></text><path d="M 81.78341655067845 89.55222093294921 l -31.22842246500336 -17.910474784393895 a56.999992731320596,56.999992731320596 0 0,0 0.4954665346840177,-0.8469129156119308 l 30.915496255849014 18.445367112359715" fill="red" stroke="none" /><path d="M 81.96595687620814 89.24020034530311 l -30.678351292762084 -18.30387736020483 a56.72384588002159,56.72384588002159 0 0,0 0.5075006905382629,-0.8341976969231326 l 30.358734803937605 18.829242830335033" fill="red" stroke="none" /><path d="M 82.15384107792192 88.93136811851018 l -30.612786587547564 -18.986812068841353 a57.022794661050824,57.022794661050824 0 0,0 0.5245347768308607,-0.8296880496473025 l 30.281424214470743 19.51094776620287" fill="red" stroke="none" /><path d="M 82.34701348167596 88.62581576622439 l -29.949210636902396 -19.296895688821984 a56.6275932529665,56.6275932529665 0 0,0 0.5350050015700804,-0.8148493219746009 l 29.612608999974395 19.80956307477425" fill="red" stroke="none" /><path d="M 82.54541684631803 88.32363383020206 l -30.125224095531962 -20.152480548494243 a57.24433195774835,57.24433195774835 0 0,0 0.5549307364635534,-0.8142923809039571 l 29.77386889339967 20.668050952668615" fill="red" stroke="none" /><path d="M 82.95767976084542 87.72973835380427 l -29.59792979092281 -21.31014660116317 a57.47135582990386,57.47135582990386 0 0,0 0.5849417833515722,-0.7978599351207535 l 29.226725395057603 21.81646897995542" fill="red" stroke="none" /><path d="M 83.84228863543731 86.58626213691792 l -27.61369846079633 -22.924218920984544 a56.88922060760043,56.88922060760043 0 0,0 0.631983398797274,-0.7480690063506537 l 27.21500444851193 23.396146876964316" fill="red" stroke="none" /><path d="M 84.07557802195018 86.31012108654704 l -27.15002121997678 -23.34028221002207 a56.803525327663785,56.803525327663785 0 0,0 0.6437952954974296,-0.7359693140233063 l 26.744234060901505 23.80416708024832" fill="red" stroke="none" /><path d="M 84.31358615837235 86.03803664274999 l -26.720251368736584 -23.78282087119152 a56.77141878371128,56.77141878371128 0 0,0 0.6559974190055838,-0.7243687345642005 l 26.306910309114954 24.23924239302528" fill="red" stroke="none" /><path d="M 84.5562425177563 85.77008943001954 l -26.68212776537715 -24.584968545034943 a57.2816292419217,57.2816292419217 0 0,0 0.6743757428274164,-0.7193770229593973 l 26.25498470057928 25.04061498487239" fill="red" stroke="none" /><path d="M 85.05521093208273 85.24692304244772 l -25.497161820059603 -25.170083620519485 a56.82789932918546,56.82789932918546 0 0,0 0.6932034933253939,-0.6902266572257101 l 25.060122526566893 25.605246128395304" fill="red" stroke="none" /><path d="M 85.31137513191541 84.99185889309783 l -24.95958002179313 -25.50251655960056 a56.68415594822155,56.68415594822155 0 0,0 0.7031986879141904,-0.6764765806298537 l 24.516898090266512 25.92837622699273" fill="red" stroke="none" /><path d="M 85.57189188830299 84.74124197986013 l -43.28432433509105 -45.776274060419595 a84.0,84.0 0 0,0 1.0591684648205755,-0.98438165570141 l 42.48994798647562 46.514560302195655" fill="red" stroke="none" /><path d="M 85.83668400450813 84.49514656593479 l -27.48790587499581 -30.091537316321034 a61.75641774557929,61.75641774557929 0 0,0 0.7910379913806667,-0.7102017190674238 l 26.965856896019172 30.560238044157735" fill="red" stroke="none" /><path d="M 86.10567301691215 84.25364557470407 l -27.439924245701206 -31.097495625517396 a62.47292703425808,62.47292703425808 0 0,0 0.8124639899877864,-0.7045607659643013 l 26.900566457066645 31.565221384901378" fill="red" stroke="none" /><path d="M 86.37877921826538 84.01681056812374 l -26.588698007509482 -31.199273825062843 a61.992115692481526,61.992115692481526 0 0,0 0.8181260777204817,-0.6851570620444688 l 26.04771439282989 31.652332044501122" fill="red" stroke="none" /><path d="M 86.65592168130627 83.78471172551755 l -22.91514796454816 -27.84573960248925 a57.06229638066292,57.06229638066292 0 0,0 0.7638103610814072,-0.6176148592110257 l 22.432434204902254 28.23606055896441" fill="red" stroke="none" /><path d="M 87.22198572758235 83.33499621200491 l -21.701988642060538 -28.303593595731442 a56.66608643308731,56.66608643308731 0 0,0 0.7791690670958799,-0.5868539874678032 l 21.211573421206268 28.6729641727051" fill="red" stroke="none" /><path d="M 87.51073957382395 83.11751280151077 l -21.68285733567778 -29.310027087675106 a57.45852424494996,57.45852424494996 0 0,0 0.8001911681350193,-0.5813729141843814 l 21.175120851188982 29.678919236676155" fill="red" stroke="none" /><path d="M 87.80319425747018 82.90503203632743 l -20.8214063757836 -29.183155201978327 a56.84951200516231,56.84951200516231 0 0,0 0.8014938206949253,-0.5614976414925654 l 20.315981415505014 29.537237686234835" fill="red" stroke="none" /><path d="M 88.09926311788651 82.69761687909137 l -20.724325433394917 -30.130925683259726 a57.57007447626242,57.57007447626242 0 0,0 0.8213201931311486,-0.5545590606965016 l 20.202600545857226 30.483196656254893" fill="red" stroke="none" /><path d="M 88.39885842347998 82.49532879139004 l -19.782412332456605 -29.84918521239857 a56.80946377056496,56.80946377056496 0 0,0 0.8197686080949564,-0.5332003060522987 l 19.265676698577362 30.185284442610403" fill="red" stroke="none" /><path d="M 88.70189139769569 82.29822771554957 l -19.561681186728872 -30.6490615427318 a57.359652697755294,57.359652697755294 0 0,0 0.8368523339605747,-0.5240368547531336 l 19.031209700396055 30.981242738807865" fill="red" stroke="none" /><path d="M 89.00827224532344 82.1063720568725 l -18.799132469109743 -30.603440110923305 a56.91626272615242,56.91626272615242 0 0,0 0.839211142339965,-0.5056153232622735 l 18.26955926055213 30.922502043644197" fill="red" stroke="none" /><line stroke="#e1ed5e" stroke-width="0.3" x1="56.762969772571076" x2="54.21961505331055" y1="26.818313649435495" y2="22.513508569990535" /><path d="M 56.25429882871897 25.957352633546506 a86.0,86.0 0 0,1 42.265352541879196,-11.944610805530505" fill="none" id="id24" stroke="none" /><text fill="#e1ed5e" style="font-size:6.75px; font-family:Arial;" text-anchor="middle"><textPath startOffset="22.20632615414155" xlink:href="#id24">December</textPath></text><path d="M 89.3179101791058 81.91981866633112 l -18.265938679261108 -30.91637395753254 a56.90914499840567,56.90914499840567 0 0,0 0.8476841194336275,-0.4910333561999094 l 17.73105782736216 31.226211471122497" fill="red" stroke="none" /><path d="M 89.63071344664047 81.73862282372117 l -17.80721061531391 -31.36032434153608 a57.06337051225923,57.06337051225923 0 0,0 0.8583306733894884,-0.4776600904463512 l 17.264755852852375 31.662199829542615" fill="red" stroke="none" /><path d="M 89.94658935756843 81.56283822128135 l -17.322564360864167 -31.76821607142389 a57.18412342999284,57.18412342999284 0 0,0 0.8682590959804768,-0.4637939393560727 l 16.773160218355386 32.06168873728171" fill="red" stroke="none" /><path d="M 90.26544431104013 81.39251694778311 l -17.002399188252777 -32.49987619889447 a57.67865225304995,57.67865225304995 0 0,0 0.8836905453539783,-0.45266062005730207 l 16.440448155310037 32.78772934426428" fill="red" stroke="none" /><path d="M 90.58718382345135 81.22770947309562 l -16.44292774263585 -32.7926744672534 a57.684184214246834,57.684184214246834 0 0,0 0.8914369150755577,-0.43742422275955833 l 15.876019560549866 33.070853850147785" fill="red" stroke="none" /><path d="M 90.91171255644093 81.06846463323043 l -16.140723737908296 -33.6222510772397 a58.295827250302715,58.295827250302715 0 0,0 0.908364993648242,-0.426489544362637 l 15.559580532960444 33.895105604242346" fill="red" stroke="none" /><path d="M 91.90106846888425 80.62456947434976 l -14.241208464290844 -34.06987009842713 a57.92652254203052,57.92652254203052 0 0,0 0.9232829273080907,-0.3766302883026619 l 13.652641667394374 34.30996127291337" fill="red" stroke="none" /><path d="M 92.23578459929587 80.48803036053334 l -13.47293796964521 -33.85835439267875 a57.44047502042387,57.44047502042387 0 0,0 0.9218289091570668,-0.3576552952815688 l 12.888125895488466 34.08525239185087" fill="red" stroke="none" /><path d="M 92.57280143429618 80.3572730644239 l -12.933296526102861 -34.204715249187615 a57.56819252178199,57.56819252178199 0 0,0 0.9299118274626593,-0.3424943739032358 l 12.342602372867633 34.42227289089717" fill="red" stroke="none" /><path d="M 93.94186890950719 79.89281104454417 l -10.317159207803371 -34.24308034541855 a56.76356142307351,56.76356142307351 0 0,0 0.9379767186030448,-0.27382112517540136 l 9.726192271476904 34.41559979951265" fill="red" stroke="none" /><path d="M 96.40284397218896 79.31037775812273 l -6.156550714636938 -35.41039299212994 a56.941606093203205,56.941606093203205 0 0,0 0.9671146594756977,-0.15958220537165307 l 5.546106849022355 35.511121460441224" fill="red" stroke="none" /><path d="M 96.75951476605007 79.25152402106235 l -5.631024138431248 -36.05483766721105 a57.491913515963184,57.491913515963184 0 0,0 0.9790900784677077,-0.1442924265919905 l 5.009565079534891 36.14642457796401" fill="red" stroke="none" /><path d="M 97.11714578562143 79.19881850522333 l -4.945604580938467 -35.6849187782032 a57.02599662574179,57.02599662574179 0 0,0 0.9734752324994778,-0.1263850241046812 l 4.330614619931132 35.76476212547202" fill="red" stroke="none" /><path d="M 99.27714615592234 79.0124445844662 l -1.23931121483419 -35.982533691320604 a57.00386955778831,57.00386955778831 0 0,0 0.9809371499528651,-0.025334712536793137 l 0.6197474296864459 35.99853519599976" fill="red" stroke="none" /><path d="M 99.63851952072746 79.00311137660856 l -0.6244950968936492 -36.27430732004692 a57.279682546506024,57.279682546506024 0 0,0 0.985975576166176,-0.008486603067660789 l 8.885959420932139e-15 36.279682546506024" fill="red" stroke="none" /></svg>