<?xml version="1.0" encoding="utf-8" ?>
<svg baseProfile="full" height="200mm" version="1.1" viewBox="0,0,200,200" width="200mm" xmlns="http://www.w3.org/2000/svg" xmlns:ev="http://www.w3.org/2001/xml-events" xmlns:xlink="http://www.w3.org/1999/xlink"><defs /><rect fill="#1a1a1a" height="200" width="200" x="0" y="0" /><rect fill="#1a1a1a" height="200" width="180" x="10" y="0" /><text alignment-baseline="middle" fill="#e1ed5e" style="dominant-baseline: central; font-size:9.0px; font-family:Arial;" text-anchor="middle" x="100.0" y="100.0">2024</text><line stroke="#e1ed5e" stroke-width="0.3" x1="100.0" x2="100.0" y1="15.0" y2="10.0" /><path d="M 100.0 14.0 a86.0,86.0 0 0,1 42.35913384403234,11.155469271406648" fill="none" id="id73" stroke="none" /><text fill="#e1ed5e" style="font-size:6.75px; font-family:Arial;" text-anchor="middle"><textPath startOffset="22.145653131862478" xlink:href="#id73">January</textPath></text><path d="M 101.80034050326958 79.07731436759882 l 3.9283590645365374 -45.65348699827826 a66.8221876391982,66.8221876391982 0 0,0 1.1420243961560395,0.10815089767426476 l -4.71148302407759 45.57932434509881" fill="red" stroke="none" /><path d="M 107.06938296918511 80.22567764915836 l 2.6584423856059254 -7.436136493560431 a28.897052733042077,28.897052733042077 0 0,0 0.46567029190877446,0.1710005813945396 l -2.7857018291688243 7.389405063157169" fill="red" stroke="none" /><line stroke="#e1ed5e" stroke-width="0.3" x1="143.13028292997686" x2="145.6673583964461" y1="26.7553504044142" y2="22.446841604673864" /><path d="M 143.63769802327073 25.89364864446614 a86.0,86.0 0 0,1 29.32050498858742,28.57503671076993" fill="none" id="id74" stroke="none" /><text fill="#e1ed5e" style="font-size:6.75px; font-family:Arial;" text-anchor="middle"><textPath startOffset="20.669276256404974" xlink:href="#id74">February</textPath></text><path d="M 110.96478420261332 82.08984904055464 l 8.616290481329758 -14.074062961883733 a37.502112286423255,37.502112286423255 0 0,0 0.5461662468259181,0.3408481323003365 l -8.856620856945387 13.924079032741853" fill="red" stroke="none" /><path d="M 116.1254893667686 86.54754324733833 l 11.618940577648459 -9.69293347181584 a36.1311843368579,36.1311843368579 0 0,0 0.393233195469731,0.47968055964985956 l -11.783620592356817 9.492050630467485" fill="red" stroke="none" /><path d="M 116.7966241395341 87.39550010848427 l 18.77848607886822 -14.091726038378177 a44.47782532848716,44.47782532848716 0 0,0 0.45303414338413167,0.6146278232270477 l -19.01762224183618 13.767291905882253" fill="red" stroke="none" /><path d="M 117.01052211995028 87.68569379921539 l 19.15680048877061 -13.868046223542434 a44.64964505071633,44.64964505071633 0 0,0 0.44412555748052907,0.6247182159637019 l -19.3920411447811 13.537150780869228" fill="red" stroke="none" /><line stroke="#e1ed5e" stroke-width="0.3" x1="172.87174338648825" x2="177.1583165268699" y1="56.24261187166439" y2="53.66864786411523" /><path d="M 173.72905801456457 55.72781907015455 a86.0,86.0 0 0,1 12.242430191666344,42.057860355516425" fill="none" id="id75" stroke="none" /><text fill="#e1ed5e" style="font-size:6.75px; font-family:Arial;" text-anchor="middle"><textPath startOffset="22.145653131862474" xlink:href="#id75">March</textPath></text><path d="M 118.36410011445183 89.81374322990088 l 40.82541177476909 -22.64516771805016 a67.6853067630285,67.6853067630285 0 0,0 0.5548733486651214,1.0209044648560963 l -41.20813047304955 21.941008419719463" fill="red" stroke="none" /><path d="M 119.31412917781788 91.75594674310238 l 12.943521330577628 -5.524819586669452 a35.07332142389864,35.07332142389864 0 0,0 0.23160777275045782,0.5557743407519152 l -13.036454947864568 5.301812736476259" fill="red" stroke="none" /><path d="M 119.94978838288452 93.4421083053983 l 44.29683510007275 -14.561249544337544 a67.62874208227697,67.62874208227697 0 0,0 0.35307125522938115,1.1059906782643971 l -44.54027107107939 13.79868983238176" fill="red" stroke="none" /><path d="M 120.16314734710363 94.1308016681162 l 22.453730664279153 -6.535953752194635 a44.385651844556676,44.385651844556676 0 0,0 0.20667123655301717,0.7334033086886084 l -22.56262039290675 6.149542519603013" fill="red" stroke="none" /><path d="M 120.43855184770803 95.1765574152323 l 34.54242419440888 -8.151918055735736 a56.49130650192966,56.49130650192966 0 0,0 0.21463774644146502,0.9457335141431198 l -34.67727280240801 7.557750207653591" fill="red" stroke="none" /><path d="M 120.7213421655516 96.59031103205396 l 39.48116622139442 -6.496610877384686 a61.012103657437564,61.012103657437564 0 0,0 0.16118383202000613,1.0349158270477714 l -39.58687154555269 5.8179068684054736" fill="red" stroke="none" /><line stroke="#e1ed5e" stroke-width="0.3" x1="184.99686870605535" x2="189.99668451229388" y1="99.2704041080226" y2="99.22748670261217" /><path d="M 185.99683186730306 99.26182062694052 a86.0,86.0 0 0,1 -10.086455211305974,41.156179273409016" fill="none" id="id76" stroke="none" /><text fill="#e1ed5e" style="font-size:6.75px; font-family:Arial;" text-anchor="middle"><textPath startOffset="21.40746469413373" xlink:href="#id76">April</textPath></text><path d="M 120.99922638620191 100.18025310272382 l 23.357093011002654 0.2004925518879412 a44.357953488865235,44.357953488865235 0 0,0 -0.013072010919472856,0.7613791017315228 l -23.350209568484512 -0.6014185695885351" fill="red" stroke="none" /><path d="M 120.82617615685814 102.69636545807757 l 44.72031872201243 5.789940590536391 a66.09357291943405,66.09357291943405 0 0,0 -0.15533715447772067,1.123942268683816 l -44.61433705097949 -6.556771167420292" fill="red" stroke="none" /><path d="M 120.592083275326 104.11899336999214 l 45.82043471102675 9.165370218321861 a67.72810983066152,67.72810983066152 0 0,0 -0.2378298028786593,1.1381017021321624 l -45.656347197323726 -9.950588371739432" fill="red" stroke="none" /><path d="M 120.16314734710363 105.8691983318838 l 43.45360378346223 12.648710761758691 a66.25710514057161,66.25710514057161 0 0,0 -0.3272586081469768,1.089337471427388 l -43.23006885531162 -13.392785836776802" fill="red" stroke="none" /><line stroke="#e1ed5e" stroke-width="0.3" x1="174.33088141563837" x2="178.70328620479359" y1="141.23008692659167" y2="143.65538615756765" /><path d="M 175.20536237346943 141.71514677278685 a86.0,86.0 0 0,1 -30.301960400862466,31.631185727798858" fill="none" id="id77" stroke="none" /><text fill="#e1ed5e" style="font-size:6.75px; font-family:Arial;" text-anchor="middle"><textPath startOffset="22.145653131862474" xlink:href="#id77">May</textPath></text><path d="M 117.21940702142032 112.02048342749411 l 22.813938530810802 15.925900914261605 a48.82283434911857,48.82283434911857 0 0,0 -0.48563585440493745,0.6831076470647861 l -22.5371875778759 -16.315185788035897" fill="red" stroke="none" /><path d="M 115.6541949942343 113.99807769240083 l 17.476254556841507 15.627374588661002 a44.44428096295238,44.44428096295238 0 0,0 -0.5134421307638912,0.5643628435322331 l -17.205414725235734 -15.925075007750907" fill="red" stroke="none" /><path d="M 115.16444852881244 114.52719865689866 l 17.092045908239122 16.37379334237263 a44.66937138472587,44.66937138472587 0 0,0 -0.5352096868901656,0.5491722881492844 l -16.808449420198148 -16.66478832258965" fill="red" stroke="none" /><path d="M 114.13192950727249 115.5334660781643 l 16.363137385944714 17.98595438691592 a45.315567448026414,45.315567448026414 0 0,0 -0.5798989429823233,0.5185492106491251 l -16.051973416139013 -18.264199127448435" fill="red" stroke="none" /><path d="M 113.86319453409587 115.77377054828091 l 15.532890137551306 17.6735776432188 a44.529258864998745,44.529258864998745 0 0,0 -0.5784997890154016,0.499694339454021 l -15.22721086877305 -17.937616115137537" fill="red" stroke="none" /><path d="M 113.59037401385872 116.0094264158162 l 15.21439719383892 17.92252163828466 a44.509459029222164,44.509459029222164 0 0,0 -0.586731458659918,0.4894722506415551 l -14.904491401017106 -18.181056072838086" fill="red" stroke="none" /><path d="M 112.45986205192187 116.90419585922612 l 16.29390353422478 22.105809478957088 a48.46193920870432,48.46193920870432 0 0,0 -0.6738955487163822,0.48784840792785367 l -15.912026975134427 -22.38225865825802" fill="red" stroke="none" /><path d="M 112.16784306229584 117.11559508785304 l 13.594073355112442 19.121766606412482 a44.46147456010149,44.46147456010149 0 0,0 -0.6258585777913839,0.43689789392502976 l -13.2638196861473 -19.352309316142634" fill="red" stroke="none" /><path d="M 111.8722381534696 117.32195027204791 l 13.33889802070235 19.461850850001664 a44.59427555392213,44.59427555392213 0 0,0 -0.6351577784668178,0.4273624995434944 l -13.002843954138529 -19.68796302360228" fill="red" stroke="none" /><line stroke="#e1ed5e" stroke-width="0.3" x1="143.1302829299769" x2="145.66735839644613" y1="173.24464959558577" y2="177.55315839532614" /><path d="M 143.63769802327073 174.10635135553383 a86.0,86.0 0 0,1 -40.68552437913181,11.842963189579606" fill="none" id="id78" stroke="none" /><text fill="#e1ed5e" style="font-size:6.75px; font-family:Arial;" text-anchor="middle"><textPath startOffset="21.407464694133747" xlink:href="#id78">June</textPath></text><path d="M 110.02825361518725 118.45085714620011 l 11.723238392940072 21.569438227151064 a45.549439583269304,45.549439583269304 0 0,0 -0.6902067195262358,0.3674962020996402 l -11.351242857627282 -21.76750489697327" fill="red" stroke="none" /><path d="M 109.71004243097381 118.62028667847754 l 11.128816866702227 21.34097373140826 a45.06839680280457,45.06839680280457 0 0,0 -0.6890588273519603,0.3518383469844371 l -10.760830817636684 -21.528870030065534" fill="red" stroke="none" /><path d="M 104.64783097203109 120.47920084513623 l 2.7263288604623037 12.012708000631127 a33.31819883602375,33.31819883602375 0 0,0 -0.5588534209811488,0.12179950201201771 l -2.5197130228620193 -12.057738960776863" fill="red" stroke="none" /><path d="M 102.51750503828377 120.84855314841334 l 3.6515610094365885 30.24016342458317 a51.45983226728498,51.45983226728498 0 0,0 -0.8779147814768071,0.09837218241947605 l -3.131910326358982 -30.298391367509616" fill="red" stroke="none" /><path d="M 101.08105385017728 120.97215588758144 l 0.7221250510758097 14.00903307361243 a35.02763245337424,35.02763245337424 0 0,0 -0.6007643274689412,0.02579940515131953 l -0.481534963006039 -14.01936504718958" fill="red" stroke="none" /><line stroke="#e1ed5e" stroke-width="0.3" x1="101.45913802915013" x2="101.54496967792366" y1="184.9874750549273" y2="189.98673829345242" /><path d="M 101.47630435890484 185.9873277026323 a86.0,86.0 0 0,1 -42.54439059252881,-10.42667462771756" fill="none" id="id79" stroke="none" /><text fill="#e1ed5e" style="font-size:6.75px; font-family:Arial;" text-anchor="middle"><textPath startOffset="22.145653131862474" xlink:href="#id79">July</textPath></text><path d="M 100.0 121.0 l 4.575591205783047e-15 37.362537582009374 a58.362537582009374,58.362537582009374 0 0,0 -1.0018705654542674,-0.008599853853162354 l 0.6413776406054107 -37.357032126350646" fill="red" stroke="none" /><path d="M 98.55909050195518 120.95050786540614 l -3.720263570419557 54.091815828279316 a75.21959886087207,75.21959886087207 0 0,0 -1.287440763388893,-0.09965605743075141 l 4.648273328583686 -54.019982003853514" fill="red" stroke="none" /><path d="M 97.84075906011543 120.88869738790638 l -2.530018201627939 24.475631053256308 a45.60604615852968,45.60604615852968 0 0,0 -0.7780480480256174,-0.08718190663419796 l 2.9498021512543557 -24.42859338611514" fill="red" stroke="none" /><path d="M 97.48249496171623 120.84855314841334 l -5.421038096198109 44.89397206736402 a66.22008825760618,66.22008825760618 0 0,0 -1.1273881042115816,-0.14596296118635343 l 6.190904022300485 -44.79429750997727" fill="red" stroke="none" /><path d="M 97.12497278360702 120.80226474461374 l -2.274718321294383 16.458728623221912 a37.61517653635063,37.61517653635063 0 0,0 -0.6388756723167214,-0.09389272293850294 l 2.5569190992187893 -16.417254826984525" fill="red" stroke="none" /><path d="M 96.05791012581884 120.62667999033965 l -10.272434548272095 53.74971827422622 a75.72252850615752,75.72252850615752 0 0,0 -1.2746752357813758,-0.254970746518289 l 11.193606269584429 -53.56545813104507" fill="red" stroke="none" /><path d="M 95.00130118170881 120.39639698878247 l -10.850437865192909 44.2734892109877 a66.58370156955067,66.58370156955067 0 0,0 -1.1078091850410499,-0.28160076278331797 l 11.608852343459338 -44.080703216369116" fill="red" stroke="none" /><path d="M 94.6519064749342 120.30758222061772 l -4.3308908754697315 16.445098076522964 a38.005818607808514,38.005818607808514 0 0,0 -0.6294824087856216,-0.17156822969845378 l 4.612554685190049 -16.368329352680366" fill="red" stroke="none" /><path d="M 93.61358852112213 120.00534299687104 l -16.395280784275055 51.357983541182875 a74.91148027472099,74.91148027472099 0 0,0 -1.2216894611067382,-0.4015935917018441 l 17.27449298302954 -51.06896902807901" fill="red" stroke="none" /><path d="M 93.27111125876986 119.89276391827306 l -8.64734809982922 25.564348124083015 a47.98726596320803,47.98726596320803 0 0,0 -0.7780660512291773,-0.2706517617823947 l 9.084919923103419 -25.41213792973203" fill="red" stroke="none" /><path d="M 92.59220618246901 119.65005319985036 l -17.26097114076423 45.786776677613716 a69.93230061266246,69.93230061266246 0 0,0 -1.1196752006484738,-0.4331144209736692 l 18.04441860390623 -45.48372236850201" fill="red" stroke="none" /><path d="M 91.26138138417905 119.09545874513695 l -22.419255583746875 48.99011948193384 a74.8762918896941,74.8762918896941 0 0,0 -1.1641883031160833,-0.5448989091718224 l 23.256932600734448 -48.59804434119149" fill="red" stroke="none" /><path d="M 90.6110303473126 118.78422872680471 l -9.220369307892017 18.44691509632045 a41.62289714721897,41.62289714721897 0 0,0 -0.636379963208924,-0.3249401436012352 l 9.535676492814524 -18.285917001046375" fill="red" stroke="none" /><path d="M 90.28995756902619 118.62028667847754 l -27.010825985562143 51.796820338219405 a79.41656714984285,79.41656714984285 0 0,0 -1.2033923751865487,-0.6407386584417494 l 27.896007176535253 -51.32551121205508" fill="red" stroke="none" /><line stroke="#e1ed5e" stroke-width="0.3" x1="58.13341422392154" x2="55.67067388415222" y1="173.97424548756322" y2="178.32567169271397" /><path d="M 57.64086615596768 174.84453072859336 a86.0,86.0 0 0,1 -31.369924170532247,-30.572349798747897" fill="none" id="id80" stroke="none" /><text fill="#e1ed5e" style="font-size:6.75px; font-family:Arial;" text-anchor="middle"><textPath startOffset="22.145653131862474" xlink:href="#id80">August</textPath></text><path d="M 89.03521579738668 117.91015095944536 l -28.77825457072537 47.007116071485925 a76.11675695735033,76.11675695735033 0 0,0 -1.1085349846549022,-0.6918078173176311 l 29.580953684169984 -46.50617245732675" fill="red" stroke="none" /><path d="M 88.1277618465304 117.32195027204791 l -25.502575141592025 37.20901928527455 a66.10978225423484,66.10978225423484 0 0,0 -0.9305893407516815,-0.6496236330550211 l 26.13755957351747 -36.7657508364144" fill="red" stroke="none" /><path d="M 86.96720088162412 116.46651593811092 l -29.785840294535586 37.633436185512075 a68.9944976135868,68.9944976135868 0 0,0 -0.9223881930828676,-0.7430106359132913 l 30.427479257973715 -37.116577255805375" fill="red" stroke="none" /><path d="M 86.13680546590413 115.77377054828092 l -32.52361567914067 37.00590436507895 a70.26685026183239,70.26685026183239 0 0,0 -0.8991981009676067,-0.8040684866158739 l 33.15407880693164 -36.44214034857969" fill="red" stroke="none" /><path d="M 85.08716467003676 114.78537596483092 l -30.98304571860522 30.71823495326239 a64.62979578963225,64.62979578963225 0 0,0 -0.7743671266475866,-0.7945688899609115 l 31.505799646403617 -30.18184337123374" fill="red" stroke="none" /><path d="M 83.4222238831116 112.89097897827486 l -49.197858084383604 38.25655201700103 a83.3216897421809,83.3216897421809 0 0,0 -0.8683231925512002,-1.1366629325984536 l 49.847333254289104 -37.4063681711617" fill="red" stroke="none" /><path d="M 81.99639281039703 110.81064883170644 l -40.821657122505854 24.512232200588862 a68.6157244792413,68.6157244792413 0 0,0 -0.5976961859878822,-1.0150187926746366 l 41.23642701862351 -23.80786223962067" fill="red" stroke="none" /><line stroke="#e1ed5e" stroke-width="0.3" x1="26.387840678322732" x2="22.057713659400548" y1="142.50000000000003" y2="145.00000000000006" /><path d="M 25.521815274538298 143.00000000000003 a86.0,86.0 0 0,1 -11.493303480769221,-40.785679425670985" fill="none" id="id81" stroke="none" /><text fill="#e1ed5e" style="font-size:6.75px; font-family:Arial;" text-anchor="middle"><textPath startOffset="21.40746469413373" xlink:href="#id81">September</textPath></text><path d="M 80.68587082218212 108.24405325689762 l -24.586008899804078 10.494305224867688 a47.732045858368764,47.732045858368764 0 0,0 -0.31520005466452533,-0.756365386643955 l 24.76253479900509 -10.070707328782452" fill="red" stroke="none" /><path d="M 79.83685265289637 105.86919833188381 l -42.145000827753094 12.267795513135608 a64.89418983787512,64.89418983787512 0 0,0 -0.3021643684736294,-1.0722747456417814 l 42.3493836883013 -11.542512843590831" fill="red" stroke="none" /><path d="M 79.34024301695615 103.76489593502545 l -53.988974839473734 9.838589683128937 a75.8781126786472,75.8781126786472 0 0,0 -0.22252225798377603,-1.283449251061514 l 54.14991191494974 -8.91034739914683" fill="red" stroke="none" /><line stroke="#e1ed5e" stroke-width="0.3" x1="15.003131293944662" x2="10.003315487706104" y1="100.72959589197737" y2="100.7725132973878" /><path d="M 14.003168132696942 100.73817937305945 a86.0,86.0 0 0,1 10.791469493833604,-42.45332614584628" fill="none" id="id82" stroke="none" /><text fill="#e1ed5e" style="font-size:6.75px; font-family:Arial;" text-anchor="middle"><textPath startOffset="22.145653131862435" xlink:href="#id82">October</textPath></text><path d="M 79.00077361379809 100.18025310272382 l -62.99767915860572 0.5407593081714642 a84.0,84.0 0 0,0 0.0,-1.4420248217905405 l 62.99767915860572 0.540759308171441" fill="red" stroke="none" /><path d="M 79.00696218219943 99.45929381324524 l -46.86808933638972 -1.207155728747019 a67.88363278370454,67.88363278370454 0 0,0 0.040003866832819375,-1.1646689347903436 l 46.84046078256006 2.011530928101501" fill="red" stroke="none" /><path d="M 79.03789590574601 98.7389718711861 l -54.06175382163153 -3.2522208627318845 a75.15948824361877,75.15948824361877 0 0,0 0.08853085809562325,-1.2872192468577712 l 53.99795900237084 4.17978353374398" fill="red" stroke="none" /><path d="M 79.06263194458094 98.37931529534042 l -46.8623190957103 -3.6274398760276463 a68.0025028172157,68.0025028172157 0 0,0 0.10008147664603115,-1.1630984637009458 l 46.793143996366524 4.431359387104273" fill="red" stroke="none" /><path d="M 79.22317932658666 96.9465228501225 l -49.014399918479086 -7.203428884456228 a70.54090014384096,70.54090014384096 0 0,0 0.1863573277716079,-1.1965477280204586 l 48.88352109856921 8.043764794408135" fill="red" stroke="none" /><path d="M 79.34024301695615 96.23510406497455 l -46.180441046411616 -8.415614710086563 a67.9409810953044,67.9409810953044 0 0,0 0.2189437188908083,-1.1456060540460644 l 46.029171035238654 9.207123329165944" fill="red" stroke="none" /><path d="M 80.28708602549916 92.7611449362534 l -34.82485097355454 -12.788167651937387 a58.09861826570284,58.09861826570284 0 0,0 0.3518267407702643,-0.9332622294244478 l 34.60019354896984 13.38409816155598" fill="red" stroke="none" /><path d="M 80.83023694016515 91.42560881287825 l -56.089892680123754 -25.088295561186797 a82.44508633758493,82.44508633758493 0 0,0 0.5889544641430798,-1.2869717935106193 l 55.65095375112563 26.047456336912088" fill="red" stroke="none" /><line stroke="#e1ed5e" stroke-width="0.3" x1="26.387840678322718" x2="22.05771365940052" y1="57.49999999999999" y2="54.99999999999999" /><path d="M 25.521815274538284 56.99999999999999 a86.0,86.0 0 0,1 29.574782752854787,-30.34633250058573" fill="none" id="id83" stroke="none" /><text fill="#e1ed5e" style="font-size:6.75px; font-family:Arial;" text-anchor="middle"><textPath startOffset="21.40746469413373" xlink:href="#id83">November</textPath></text><path d="M 83.42222388311158 87.10902102172516 l -18.47248721905227 -14.364317791375113 a44.400136958352725,44.400136958352725 0 0,0 0.4730381486521796,-0.5976682478849005 l 18.22318263975853 14.679305983174697" fill="red" stroke="none" /><path d="M 84.10781606972428 86.27271002978789 l -19.77283365232172 -17.079302773554012 a47.12790718509839,47.12790718509839 0 0,0 0.5340914518495128,-0.6076980303892026 l 19.476731136513614 17.416213081754513" fill="red" stroke="none" /><path d="M 86.96720088162412 83.53348406188908 l -34.187212108738834 -43.19442569128462 a76.0865127101708,76.0865127101708 0 0,0 1.0311173745094604,-0.8018031070762411 l 33.44068478959413 43.77492984998167" fill="red" stroke="none" /><path d="M 88.12776184653039 82.6780497279521 l -13.975495758504339 -20.390665974408627 a45.72031028478159,45.72031028478159 0 0,0 0.6511959293112175,-0.4381536831915421 l 13.623403541096133 20.627569331657277" fill="red" stroke="none" /><line stroke="#e1ed5e" stroke-width="0.3" x1="56.869717070023135" x2="54.33264160355391" y1="26.7553504044142" y2="22.446841604673864" /><path d="M 56.362301976729285 25.89364864446614 a86.0,86.0 0 0,1 42.16139366436587,-11.88097634709845" fill="none" id="id84" stroke="none" /><text fill="#e1ed5e" style="font-size:6.75px; font-family:Arial;" text-anchor="middle"><textPath startOffset="22.145653131862474" xlink:href="#id84">December</textPath></text><path d="M 90.28995756902619 81.37971332152246 l -10.860726254461397 -20.82687463336421 a44.48859471676023,44.48859471676023 0 0,0 0.6801941289413643,-0.34731196881251486 l 10.50160490380645 21.010244553849557" fill="red" stroke="none" /><path d="M 93.61358852112211 79.99465700312896 l -7.374870294918225 -23.101676159644683 a45.25028150871579,45.25028150871579 0 0,0 0.7420170620344084,-0.22987878257427669 l 6.977212600012201 23.224871530025602" fill="red" stroke="none" /><path d="M 98.9189461498227 79.02784411241856 l -1.2086934298109144 -23.448329633285834 a44.479461288507,44.479461288507 0 0,0 0.7628741018320607,-0.03276109637790419 l 0.8059935673780336 23.465623298089564" fill="red" stroke="none" /></svg>