<?xml version="1.0" encoding="utf-8" ?>
<svg baseProfile="full" height="200mm" version="1.1" viewBox="0,0,200,200" width="200mm" xmlns="http://www.w3.org/2000/svg" xmlns:ev="http://www.w3.org/2001/xml-events" xmlns:xlink="http://www.w3.org/1999/xlink"><defs /><rect fill="#1a1a1a" height="200" width="200" x="0" y="0" /><rect fill="#1a1a1a" height="200" width="180" x="10" y="0" /><text alignment-baseline="middle" fill="#e1ed5e" style="dominant-baseline: central; font-size:9.0px; font-family:Arial;" text-anchor="middle" x="100.0" y="100.0">2020</text><line stroke="#e1ed5e" stroke-width="0.3" x1="100.0" x2="100.0" y1="15.0" y2="10.0" /><path d="M 100.0 14.0 a86.0,86.0 0 0,1 42.35913384403234,11.155469271406648" fill="none" id="id25" stroke="none" /><text fill="#e1ed5e" style="font-size:6.75px; font-family:Arial;" text-anchor="middle"><textPath startOffset="22.145653131862478" xlink:href="#id25">January</textPath></text><path d="M 100.36049292484886 79.00309439819443 l 0.2740313090266452 -15.960949940929074 a36.963302170139194,36.963302170139194 0 0,0 0.6343372366713447,0.016338277067567776 l -0.5479818597687313 15.953893946511462" fill="red" stroke="none" /><path d="M 100.72087961077811 79.0123766808444 l 0.5497416489718902 -16.005128289062988 a37.01456672626452,37.01456672626452 0 0,0 0.6348425436819961,0.02726287038504819 l -0.8244099532547224 15.99333285025211" fill="red" stroke="none" /><path d="M 101.08105385017728 79.02784411241856 l 0.8226300345105356 -15.958802902123999 a36.979990933743366,36.979990933743366 0 0,0 0.6336885045522803,0.03812112684649403 l -1.0964628911952783 15.942329797452814" fill="red" stroke="none" /><path d="M 102.51750503828377 79.15144685158666 l 1.9158350768871304 -15.865862755653248 a36.9811146364406,36.9811146364406 0 0,0 0.6295985073203128,0.08151413177385572 l -2.1879114060982348 15.830637027678996" fill="red" stroke="none" /><path d="M 103.23170211078529 79.25015418208739 l 2.4420734962504365 -15.67986367125094 a36.86889560461294,36.86889560461294 0 0,0 0.6245283621023137,0.10276590432302189 l -2.7108793614058206 15.63563176843225" fill="red" stroke="none" /><path d="M 107.06938296918511 80.22567764915836 l 5.329499457955071 -14.907558511063002 a36.83157810305436,36.83157810305436 0 0,0 0.5935335996081901,0.21795375907311976 l -5.584622209217386 14.81387390298116" fill="red" stroke="none" /><path d="M 107.40779381753099 80.34994680014964 l 5.634801523514448 -14.946980495815291 a36.973829038514324,36.973829038514324 0 0,0 0.5919822325986116,0.22899144479591538 l -5.890556018606586 14.848049162881336" fill="red" stroke="none" /><line stroke="#e1ed5e" stroke-width="0.3" x1="143.13028292997686" x2="145.6673583964461" y1="26.7553504044142" y2="22.446841604673864" /><path d="M 143.63769802327073 25.89364864446614 a86.0,86.0 0 0,1 29.32050498858742,28.57503671076993" fill="none" id="id26" stroke="none" /><text fill="#e1ed5e" style="font-size:6.75px; font-family:Arial;" text-anchor="middle"><textPath startOffset="20.669276256404974" xlink:href="#id26">February</textPath></text><line stroke="#e1ed5e" stroke-width="0.3" x1="172.87174338648825" x2="177.1583165268699" y1="56.24261187166439" y2="53.66864786411523" /><path d="M 173.72905801456457 55.72781907015455 a86.0,86.0 0 0,1 12.242430191666344,42.057860355516425" fill="none" id="id27" stroke="none" /><text fill="#e1ed5e" style="font-size:6.75px; font-family:Arial;" text-anchor="middle"><textPath startOffset="22.145653131862474" xlink:href="#id27">March</textPath></text><line stroke="#e1ed5e" stroke-width="0.3" x1="184.99686870605535" x2="189.99668451229388" y1="99.2704041080226" y2="99.22748670261217" /><path d="M 185.99683186730306 99.26182062694052 a86.0,86.0 0 0,1 -10.086455211305974,41.156179273409016" fill="none" id="id28" stroke="none" /><text fill="#e1ed5e" style="font-size:6.75px; font-family:Arial;" text-anchor="middle"><textPath startOffset="21.40746469413373" xlink:href="#id28">April</textPath></text><path d="M 120.86939407059847 102.33845913500097 l 15.736738845180295 1.7633344112985716 a36.83522332420595,36.83522332420595 0 0,0 -0.07580673829674087,0.6277885399843642 l -15.704150020623889 -2.033216628206344" fill="red" stroke="none" /><path d="M 120.82617615685814 102.69636545807757 l 15.634000904976947 2.0241344207516256 a36.764488715149994,36.764488715149994 0 0,0 -0.08640614829222604,0.6251918458679093 l -15.59695024012951 -2.29221457481962" fill="red" stroke="none" /><path d="M 120.77682067341334 103.0534771498775 l 15.607442891336008 2.2937566332126864 a36.77509407574871,36.77509407574871 0 0,0 -0.0971536831332084,0.6237963390649709 l -15.565767716064531 -2.561341154209108" fill="red" stroke="none" /><path d="M 120.592083275326 104.11899336999214 l 15.586026228506284 3.117641757823774 a36.89477598853826,36.89477598853826 0 0,0 -0.1295573923817658,0.6199790228507266 l -15.530211125300154 -3.3847372319599094" fill="red" stroke="none" /><path d="M 120.51834098615036 104.47187691870673 l 15.386059891372492 3.353320141453454 a36.74724086791012,36.74724086791012 0 0,0 -0.13962050899921644,0.6151937243633429 l -15.326228520815611 -3.616948199755814" fill="red" stroke="none" /><path d="M 120.43855184770803 104.8234425847677 l 15.670580365347533 3.698214297443886 a37.10105207670089,37.10105207670089 0 0,0 -0.15160633559759149,0.618605585027066 l -15.604786503233646 -3.9666757070790517" fill="red" stroke="none" /><path d="M 120.35273937422433 105.17358676015961 l 15.380199524391465 3.9095865752979186 a36.86932275176988,36.86932275176988 0 0,0 -0.16119007924847445,0.612064985801826 l -15.31081996433826 -4.1730320654725475" fill="red" stroke="none" /><path d="M 120.26092885502905 105.52220625578681 l 15.195574872891866 4.141621503326675 a36.74987378979529,36.74987378979529 0 0,0 -0.17111705120166967,0.6072340477439753 l -15.122239329615617 -4.401863474973659" fill="red" stroke="none" /><path d="M 119.94978838288452 106.5578916946017 l 15.06422696668296 4.951910617516089 a36.85724922133743,36.85724922133743 0 0,0 -0.20274045741928917,0.5993661377416803 l -14.977001087691304 -5.20977842973193" fill="red" stroke="none" /><path d="M 119.83427380445688 106.89939002012753 l 14.925068583370603 5.191713608929165 a36.80226447112744,36.80226447112744 0 0,0 -0.21268174086732644,0.5949086816177209 l -14.833746672459334 -5.447157246927808" fill="red" stroke="none" /><path d="M 119.16976305983485 108.57439118712176 l 14.427487449983612 6.453231626145884 a36.80495468326702,36.80495468326702 0 0,0 -0.2629197606093196,0.5745271263935245 l -14.314583224519238 -6.699947734754097" fill="red" stroke="none" /><line stroke="#e1ed5e" stroke-width="0.3" x1="174.33088141563837" x2="178.70328620479359" y1="141.23008692659167" y2="143.65538615756765" /><path d="M 175.20536237346943 141.71514677278685 a86.0,86.0 0 0,1 -30.301960400862466,31.631185727798858" fill="none" id="id29" stroke="none" /><text fill="#e1ed5e" style="font-size:6.75px; font-family:Arial;" text-anchor="middle"><textPath startOffset="22.145653131862474" xlink:href="#id29">May</textPath></text><path d="M 117.423217284605 111.72311816256416 l 13.110093505372687 8.821055995298245 a36.80144235795588,36.80144235795588 0 0,0 -0.3571672215500383,0.5211176503132406 l -12.95673654700733 -9.044808380681529" fill="red" stroke="none" /><path d="M 117.21940702142032 112.02048342749411 l 12.966431244608533 9.051576032535328 a36.81326556704618,36.81326556704618 0 0,0 -0.3661778738458492,0.5150750372756682 l -12.809138272232722 -9.2728282965205" fill="red" stroke="none" /><path d="M 117.01052211995028 112.31430620078461 l 12.80764891841635 9.271750119213138 a36.81142691506811,36.81142691506811 0 0,0 -0.3749471368271706,0.5086878017886952 l -12.64659976200535 -9.49024423027071" fill="red" stroke="none" /><path d="M 116.79662413953412 112.60449989151573 l 12.64822495726925 9.491463807095037 a36.81345881744673,36.81345881744673 0 0,0 -0.38364536518795067,0.5022040982127006 l -12.483427614726994 -9.707188818548614" fill="red" stroke="none" /><path d="M 116.1254893667686 113.45245675266167 l 12.104006578768411 10.097592781920255 a36.762879027904674,36.762879027904674 0 0,0 -0.40842759706383075,0.4811266823646074 l -11.928884418197466 -10.30388624673442" fill="red" stroke="none" /><path d="M 115.6541949942343 113.99807769240083 l 11.816792174051605 10.566648427993426 a36.85214926391823,36.85214926391823 0 0,0 -0.42573410192118033,0.4679563556489046 l -11.633660371288546 -10.767942359200003" fill="red" stroke="none" /><path d="M 115.16444852881244 114.52719865689866 l 11.412464289023957 10.93288262849847 a36.80418500640798,36.80418500640798 0 0,0 -0.4409723200238006,0.4524764478854932 l -11.223105167849349 -11.1271817684517" fill="red" stroke="none" /><path d="M 114.91283532996324 114.78537596483092 l 11.219150880852458 11.123261278576486 a36.79861664699829,36.79861664699829 0 0,0 -0.44860681855578777,0.4447725952828811 l -11.026552142166706 -11.314213884088028" fill="red" stroke="none" /><path d="M 114.39649973595853 115.28858382429668 l 10.788183349161073 11.456676863860563 a36.736592538984866,36.736592538984866 0 0,0 -0.4628289851992776,0.4283875990649058 l -10.589924592647828 -11.640182209057848" fill="red" stroke="none" /><path d="M 113.31354834802062 116.24036423190432 l 19.944185875768472 24.32866388917552 a52.45877360736867,52.45877360736867 0 0,0 -0.7013219180179506,0.5649352931815235 l -19.523613187395267 -24.667447476150446" fill="red" stroke="none" /><path d="M 113.03279911837588 116.46651593811092 l 9.813258216655138 12.398731182890117 a36.81229179380147,36.81229179380147 0 0,0 -0.49887676950961923,0.38792959339984623 l -9.598971502510288 -12.565361827910756" fill="red" stroke="none" /><path d="M 112.16784306229584 117.11559508785304 l 9.163443487807262 12.889530835068197 a36.81482537691805,36.81482537691805 0 0,0 -0.5182210999522793,0.361758574845533 l -8.940827296681224 -13.044934225718853" fill="red" stroke="none" /><line stroke="#e1ed5e" stroke-width="0.3" x1="143.1302829299769" x2="145.66735839644613" y1="173.24464959558577" y2="177.55315839532614" /><path d="M 143.63769802327073 174.10635135553383 a86.0,86.0 0 0,1 -40.68552437913181,11.842963189579606" fill="none" id="id30" stroke="none" /><text fill="#e1ed5e" style="font-size:6.75px; font-family:Arial;" text-anchor="middle"><textPath startOffset="21.407464694133747" xlink:href="#id30">June</textPath></text><path d="M 109.71004243097381 118.62028667847754 l 7.329918478750757 14.056085168983259 a36.85248356513398,36.85248356513398 0 0,0 -0.5634442516672435,0.2876986496005335 l -7.087547005369932 -14.17984177025663" fill="red" stroke="none" /><path d="M 109.3889696526874 118.78422872680471 l 7.0434160254792095 14.091550248303731 a36.7537772520893,36.7537772520893 0 0,0 -0.5667778125711439,0.2772394297269257 l -6.800477963645996 -14.21038342812788" fill="red" stroke="none" /><path d="M 108.07796709384702 119.3841803445677 l 6.106846486825642 14.654208448977823 a36.87574877855365,36.87574877855365 0 0,0 -0.5864043711838115,0.23848555272896282 l -5.85438765445139 -14.756881258286077" fill="red" stroke="none" /><path d="M 107.74402155503746 119.51999308798841 l 5.841435115850869 14.72423239978831 a36.84062448187165,36.84062448187165 0 0,0 -0.5898495151364379,0.2281664638655556 l -5.587813338220902 -14.822338751791907" fill="red" stroke="none" /><path d="M 106.38641147887787 120.00534299687104 l 4.864345698262914 15.237493617652403 a36.99509521135172,36.99509521135172 0 0,0 -0.6066479797064324,0.18794109483643204 l -4.602057085684857 -15.31875130029548" fill="red" stroke="none" /><line stroke="#e1ed5e" stroke-width="0.3" x1="101.45913802915013" x2="101.54496967792366" y1="184.9874750549273" y2="189.98673829345242" /><path d="M 101.47630435890484 185.9873277026323 a86.0,86.0 0 0,1 -42.54439059252881,-10.42667462771756" fill="none" id="id31" stroke="none" /><text fill="#e1ed5e" style="font-size:6.75px; font-family:Arial;" text-anchor="middle"><textPath startOffset="22.145653131862474" xlink:href="#id31">July</textPath></text><path d="M 100.0 121.0 l 1.925789136637398e-15 15.725261667104405 a36.725261667104405,36.725261667104405 0 0,0 -0.6304379521054237,-0.00541155159013512 l 0.2699450272565697 -15.722944513708706" fill="red" stroke="none" /><path d="M 97.48249496171623 120.84855314841334 l -1.8872331298715557 15.62899760407095 a36.742528862750746,36.742528862750746 0 0,0 -0.6255366165833816,-0.08098823869607492 l 2.1552475683457315 -15.594297769174478" fill="red" stroke="none" /><path d="M 97.12497278360702 120.80226474461374 l -2.160518784750012 15.632437665222337 a36.78103129634815,36.78103129634815 0 0,0 -0.6247081168221624,-0.09181058016737073 l 2.428552007179859 -15.593046011756083" fill="red" stroke="none" /><path d="M 93.27111125876986 119.89276391827306 l -5.084206172573731 15.030552144981126 a36.86715633591078,36.86715633591078 0 0,0 -0.5977644730234011,-0.2079335134840045 l 5.341476417642154 -14.94106019892853" fill="red" stroke="none" /><path d="M 92.93061703081489 119.77432235084164 l -5.365285181427857 15.007657548644302 a36.93788160877818,36.93788160877818 0 0,0 -0.5952466595869688,-0.21858281842568078 l 5.622120992668945 -14.9133438812099" fill="red" stroke="none" /><path d="M 92.59220618246901 119.65005319985036 l -5.661754991329252 15.018477771458672 a37.050238133860816,37.050238133860816 0 0,0 -0.593205606753525,-0.22946467220010347 l 5.918732860576305 -14.919073211120528" fill="red" stroke="none" /><path d="M 92.25597844496254 119.51999308798841 l -5.86798520415286 14.791155966110683 a36.912622196544746,36.912622196544746 0 0,0 -0.5869907384904204,-0.23872402320785183 l 6.121030403833721 -14.68824468632354" fill="red" stroke="none" /><path d="M 91.92203290615298 119.3841803445677 l -6.154754986876784 14.769171408623514 a37.000294779965365,37.000294779965365 0 0,0 -0.5841904741614812,-0.2493561753066632 l 6.407380536208697 -14.661340583657447" fill="red" stroke="none" /><path d="M 91.26138138417905 119.09545874513695 l -6.579280012437322 14.376914198171384 a36.81083765471138,36.81083765471138 0 0,0 -0.5723406641003619,-0.2678843299732644 l 6.825109390409174 -14.261853636627594" fill="red" stroke="none" /><path d="M 90.93487009805054 118.94263497670748 l -6.852015890037004 14.318077872403993 a36.873168420877555,36.873168420877555 0 0,0 -0.5686189366826058,-0.27814001578975156 l 7.096795075981679 -14.198344106517022" fill="red" stroke="none" /><path d="M 90.6110303473126 118.78422872680471 l -7.160688931795479 14.32617461894182 a37.01607770930046,37.01607770930046 0 0,0 -0.5659454719710016,-0.2889757905095326 l 7.405561625480064 -14.201140876759451" fill="red" stroke="none" /><path d="M 90.28995756902619 118.62028667847754 l -7.408093623928628 14.205996317641082 a37.02155368613556,37.02155368613556 0 0,0 -0.5609844018993606,-0.2986925964393141 l 7.650866841614551 -14.076733253479196" fill="red" stroke="none" /><line stroke="#e1ed5e" stroke-width="0.3" x1="58.13341422392154" x2="55.67067388415222" y1="173.97424548756322" y2="178.32567169271397" /><path d="M 57.64086615596768 174.84453072859336 a86.0,86.0 0 0,1 -31.369924170532247,-30.572349798747897" fill="none" id="id32" stroke="none" /><text fill="#e1ed5e" style="font-size:6.75px; font-family:Arial;" text-anchor="middle"><textPath startOffset="22.145653131862474" xlink:href="#id32">August</textPath></text><path d="M 88.72937992617639 117.7192867562869 l -8.508062060744683 13.37608671103713 a36.85265957909483,36.85265957909483 0 0,0 -0.5308790005817872,-0.34410935427899386 l 8.73642669358348 -13.228063515054243" fill="red" stroke="none" /><path d="M 88.1277618465304 117.32195027204791 l -9.04439328241374 13.196040094009582 a36.99801625232576,36.99801625232576 0 0,0 -0.5207997724295382,-0.363558688504453 l 9.269588146017044 -13.0388365897" fill="red" stroke="none" /><path d="M 87.83215693770417 117.11559508785305 l -9.189187467160366 12.925742966035218 a36.859255894606974,36.859255894606974 0 0,0 -0.5125525078433816,-0.3710484887563194 l 9.409720985377701 -12.766093705905833" fill="red" stroke="none" /><path d="M 87.54013794807813 116.9041958592261 l -9.337010379852112 12.66744780503425 a36.73670857348299,36.73670857348299 0 0,0 -0.5044247673533355,-0.37852974934517397 l 9.553088136116214 -12.50529902842506" fill="red" stroke="none" /><path d="M 87.2517909369889 116.68781488649013 l -9.574930370516615 12.533891214400331 a36.7726890724018,36.7726890724018 0 0,0 -0.4983400770964935,-0.3875122581332414 l 9.788680392248338 -12.367677904646296" fill="red" stroke="none" /><path d="M 86.96720088162412 116.46651593811092 l -9.777692884775282 12.353795547887641 a36.75498469018595,36.75498469018595 0 0,0 -0.4913777922558976,-0.39581916663250594 l 9.988321447386442 -12.184128087461724" fill="red" stroke="none" /><path d="M 86.68645165197938 116.24036423190432 l -10.009476763404448 12.209934133197425 a36.78835382850768,36.78835382850768 0 0,0 -0.484950502079263,-0.40456295669680725 l 10.217601599645604 -12.036308992588747" fill="red" stroke="none" /><path d="M 86.40962598614128 116.0094264158162 l -10.265994306716646 12.093315479836702 a36.86313078810096,36.86313078810096 0 0,0 -0.47890564377044487,-0.41366728885411125 l 10.472079430249954 -11.91530405851787" fill="red" stroke="none" /><path d="M 86.13680546590413 115.77377054828092 l -10.356868259612202 11.784214895354998 a36.688608633236704,36.688608633236704 0 0,0 -0.46950058366384323,-0.419830316996472 l 10.557633870099416 -11.604689048475143" fill="red" stroke="none" /><path d="M 85.86807049272751 115.53346607816431 l -10.582496581145241 11.63201752322042 a36.72555453872637,36.72555453872637 0 0,0 -0.4626899220443907,-0.4282588842848388 l 10.780616274503599 -11.448640892803203" fill="red" stroke="none" /><path d="M 83.20337586046588 112.60449989151573 l -12.667737117069317 9.506106095571576 a36.83785391924798,36.83785391924798 0 0,0 -0.37521631219966767,-0.5090529898781161 l 12.829055448852815 -9.287246796424581" fill="red" stroke="none" /><path d="M 82.78059297857968 112.02048342749411 l -12.90772722281218 9.010596066137383 a36.741672831234204,36.741672831234204 0 0,0 -0.35658714331328883,-0.5202712988299747 l 13.060504102940794 -8.787690032237357" fill="red" stroke="none" /><line stroke="#e1ed5e" stroke-width="0.3" x1="26.387840678322732" x2="22.057713659400548" y1="142.50000000000003" y2="145.00000000000006" /><path d="M 25.521815274538298 143.00000000000003 a86.0,86.0 0 0,1 -11.493303480769221,-40.785679425670985" fill="none" id="id33" stroke="none" /><text fill="#e1ed5e" style="font-size:6.75px; font-family:Arial;" text-anchor="middle"><textPath startOffset="21.40746469413373" xlink:href="#id33">September</textPath></text><path d="M 80.28708602549918 107.23885506374661 l -14.894583210857483 5.469497266501469 a36.86707311930668,36.86707311930668 0 0,0 -0.21305627260650334,-0.5959563135501524 l 14.98627965350793 -5.213005996570396" fill="red" stroke="none" /><path d="M 79.73907114497094 105.5222062557868 l -15.412764613878121 4.200817533032354 a36.97498610292496,36.97498610292496 0 0,0 -0.1616520319689208,-0.6138190955249682 l 15.482606126651774 -3.935617933134583" fill="red" stroke="none" /><path d="M 79.22317932658666 103.0534771498775 l -15.788384588774909 2.3203488316666525 a36.95797940290944,36.95797940290944 0 0,0 -0.08686090193205204,-0.6284822166704466 l 15.825890007262174 -2.0489783067961205" fill="red" stroke="none" /><path d="M 79.17382384314188 102.69636545807758 l -16.010869020012414 2.0729275434054917 a37.14450232668082,37.14450232668082 0 0,0 -0.0764432332134429,-0.6330596309644083 l 16.044094339485518 -1.7977742355176842" fill="red" stroke="none" /><path d="M 79.13060592940153 102.33845913500099 l -15.697886554928493 1.7589809311377351 a36.79612788652684,36.79612788652684 0 0,0 -0.06494973460439044,-0.6283297646479734 l 15.725768682014548 -1.4892466442068304" fill="red" stroke="none" /><path d="M 79.06263194458094 101.62068470465958 l -26.20389874785483 2.0283474881220696 a47.28228496764311,47.28228496764311 0 0,0 -0.05569411605543009,-0.8097802242676707 l 26.234856825075322 -1.5782238397000554" fill="red" stroke="none" /><path d="M 79.03789590574601 101.26102812881392 l -52.328755627778946 3.147967994803877 a73.42335708487312,73.42335708487312 0 0,0 -0.06488670496465423,-1.2587847416917513 l 52.375083922200176 -2.249211459735395" fill="red" stroke="none" /><path d="M 79.01933749520258 100.90099992219065 l -15.804776832234989 0.67872512094545 a36.81934380771068,36.81934380771068 0 0,0 -0.021697662104337198,-0.6317037579418107 l 15.814099181336173 -0.4073150984395195" fill="red" stroke="none" /><line stroke="#e1ed5e" stroke-width="0.3" x1="15.003131293944662" x2="10.003315487706104" y1="100.72959589197737" y2="100.7725132973878" /><path d="M 14.003168132696942 100.73817937305945 a86.0,86.0 0 0,1 10.791469493833604,-42.45332614584628" fill="none" id="id34" stroke="none" /><text fill="#e1ed5e" style="font-size:6.75px; font-family:Arial;" text-anchor="middle"><textPath startOffset="22.145653131862435" xlink:href="#id34">October</textPath></text><path d="M 79.00077361379809 99.81974689727619 l -15.92631156878138 -0.13670823021867723 a36.92689829584245,36.92689829584245 0 0,0 0.010882125521567802,-0.6338292559254074 l 15.921618011661145 0.41008440211313696" fill="red" stroke="none" /><path d="M 79.48165901384962 95.52812308129327 l -15.570421953341057 -3.3935009947767734 a36.93593074804971,36.93593074804971 0 0,0 0.14033743295013126,-0.6183526235724173 l 15.509873658833264 3.660287952288199" fill="red" stroke="none" /><path d="M 79.56144815229197 95.17655741523228 l -15.392905241310514 -3.632683724241318 a36.81574920161332,36.81574920161332 0 0,0 0.1504405001021933,-0.6138485783634879 l 15.328277214692022 3.8963881272129237" fill="red" stroke="none" /><path d="M 79.64726062577567 94.8264132398404 l -15.40909364650564 -3.9169313481497476 a36.899135768742234,36.899135768742234 0 0,0 0.16132041965643545,-0.6125599095609077 l 15.33958374604448 4.18087176208344" fill="red" stroke="none" /><path d="M 79.73907114497095 94.47779374421319 l -17.318992362396447 -4.720368382509308 a38.950748566991294,38.950748566991294 0 0,0 0.18136490141448672,-0.6436000528948592 l 17.23540896890738 5.016976359307181" fill="red" stroke="none" /><path d="M 79.83685265289637 94.1308016681162 l -25.228449952548775 -7.343634097817721 a47.275533272816546,47.275533272816546 0 0,0 0.23350439451654198,-0.7772601861571014 l 25.098669238028602 7.775631887565545" fill="red" stroke="none" /><path d="M 79.94057633289273 93.78553927170692 l -30.308336717961932 -9.38960018988517 a52.72947945263601,52.72947945263601 0 0,0 0.27528626031938225,-0.8623302895889854 l 30.142685741865293 9.908499513165548" fill="red" stroke="none" /><path d="M 80.05021161711548 93.44210830539832 l -24.94806398581235 -8.200924163652429 a47.26139854954731,47.26139854954731 0 0,0 0.2599705013976856,-0.7685565936514139 l 24.8036080628423 8.627982431778005" fill="red" stroke="none" /><path d="M 80.16572619554312 93.10060997987247 l -32.220662068874546 -11.208018832025077 a55.1143774719053,55.1143774719053 0 0,0 0.3185081656249692,-0.8909240263113662 l 32.02351373320563 11.759477814717364" fill="red" stroke="none" /><path d="M 80.28708602549916 92.7611449362534 l -24.682178424630493 -9.06363780131891 a47.293715256288756,47.293715256288756 0 0,0 0.2863956870960485,-0.7596985858767759 l 24.522952053720008 9.486004667389832" fill="red" stroke="none" /><path d="M 80.5471966667186 92.08871423366112 l -16.696032346555736 -6.79013100552221 a39.02396668853417,39.02396668853417 0 0,0 0.25769598206519384,-0.6183765460281538 l 16.577010519954065 7.0757400609916274" fill="red" stroke="none" /><path d="M 80.68587082218212 91.75594674310238 l -29.369206277543068 -12.535967758927024 a52.9327537964663,52.9327537964663 0 0,0 0.3638902942736641,-0.832652206199443 l 29.149682101252424 13.038282034902334" fill="red" stroke="none" /><path d="M 80.9802524753101 91.09779779509293 l -23.734807530925714 -11.109088365162027 a47.2059713201985,47.2059713201985 0 0,0 0.3498203945510826,-0.7309900810096478 l 23.540607878414725 11.514890948236761" fill="red" stroke="none" /><path d="M 81.29705330413844 90.45014215332179 l -23.304992166808425 -11.899695055015904 a47.16725821131003,47.16725821131003 0 0,0 0.37440006440004236,-0.7179614899860003 l 23.097284033433443 12.298002788106391" fill="red" stroke="none" /><path d="M 81.46374523516351 90.13048839642627 l -30.08336055406258 -16.01769504301652 a55.08188869057589,55.08188869057589 0 0,0 0.4515525376215364,-0.8308058098013774 l 29.803962666825694 16.531755686292517" fill="red" stroke="none" /><path d="M 81.63589988554816 89.8137432299009 l -32.09370700158938 -17.801838270596644 a57.70029257262599,57.70029257262599 0 0,0 0.48788794235255684,-0.8620512456172518 l 31.783385694215458 18.350146286313" fill="red" stroke="none" /><line stroke="#e1ed5e" stroke-width="0.3" x1="26.387840678322718" x2="22.05771365940052" y1="57.49999999999999" y2="54.99999999999999" /><path d="M 25.521815274538284 56.99999999999999 a86.0,86.0 0 0,1 29.574782752854787,-30.34633250058573" fill="none" id="id35" stroke="none" /><text fill="#e1ed5e" style="font-size:6.75px; font-family:Arial;" text-anchor="middle"><textPath startOffset="21.40746469413373" xlink:href="#id35">November</textPath></text><path d="M 81.81346652052679 89.5 l -22.74221838652146 -13.130225907427427 a47.26045181485485,47.26045181485485 0 0,0 0.41167519562293964,-0.6991144829620265 l 22.51346948076874 13.518691558683026" fill="red" stroke="none" /><path d="M 81.99639281039701 89.18935116829357 l -22.71376185942054 -13.638961377195962 a47.49407943777459,47.49407943777459 0 0,0 0.4257098689947416,-0.6953650776642007 l 22.476284025970404 14.026863570984705" fill="red" stroke="none" /><path d="M 82.18462484594161 88.88188828441811 l -22.439934990352064 -14.00417908439581 a47.4512327538634,47.4512327538634 0 0,0 0.4371892404006986,-0.6873341011126072 l 22.196228058325474 14.38732686018709" fill="red" stroke="none" /><path d="M 82.37810715431573 88.57770195909679 l -22.09953293412547 -14.324650248917994 a47.336001227603305,47.336001227603305 0 0,0 0.44783364776872125,-0.6780772213442848 l 21.850374847436022 14.70190734860134" fill="red" stroke="none" /><path d="M 82.576782715395 88.27688183743585 l -21.83141020748732 -14.689147092478864 a47.31314336889574,47.31314336889574 0 0,0 0.4591859143861644,-0.6699659720267196 l 21.57603455628584 15.061747799575619" fill="red" stroke="none" /><path d="M 82.78059297857968 87.97951657250589 l -21.531603928818672 -15.030731770947112 a47.25895781095812,47.25895781095812 0 0,0 0.4700801307580087,-0.6612265736587377 l 21.27040869953069 15.39813557131537" fill="red" stroke="none" /><path d="M 82.98947788004972 87.6856937992154 l -21.302673023447543 -15.421492453677459 a47.298789087004565,47.298789087004565 0 0,0 0.48176740294481857,-0.6536100082034031 l 21.034803600918906 15.784908771149725" fill="red" stroke="none" /><path d="M 83.2033758604659 87.39550010848427 l -21.036801959016046 -15.786408376320942 a47.30128753667465,47.30128753667465 0 0,0 0.49294253552364864,-0.6452776026684236 l 20.76270744613809 16.14520689223025" fill="red" stroke="none" /><path d="M 83.64595745247003 86.82634096563983 l -20.52897146817834 -16.53668624512266 a47.360968523764626,47.360968523764626 0 0,0 0.5154523809545494,-0.6287680933797655 l 20.24207226798516 16.88665662020092" fill="red" stroke="none" /><path d="M 83.8745106332314 86.54754324733833 l -20.191380035936323 -16.84436735729407 a47.294952736658075,47.294952736658075 0 0,0 0.5254366472445905,-0.6189630492624706 l 19.899248825184618 17.1884971890061" fill="red" stroke="none" /><path d="M 84.10781606972428 86.27271002978789 l -19.920896803563796 -17.207196197133843 a47.323558468126905,47.323558468126905 0 0,0 0.5363087299772791,-0.6102208858784687 l 19.622577009627925 17.546629360823612" fill="red" stroke="none" /><path d="M 84.34580500576568 86.00192230759919 l -19.612537973264807 -17.537652392603942 a47.3100911666334,47.3100911666334 0 0,0 0.5465493757336284,-0.6007535052896524 l 19.30859089668931 17.871743473451254" fill="red" stroke="none" /><path d="M 84.58840730492382 85.73525988315684 l -19.380095546895532 -17.937927110179686 a47.407524162952484,47.407524162952484 0 0,0 0.5579282397085928,-0.5925004561644677 l 19.069311473450668 18.267969026288664" fill="red" stroke="none" /><path d="M 84.83555147118756 85.47280134310135 l -18.957245737743033 -18.16061258651025 a47.25233352444104,47.25233352444104 0 0,0 0.5661576567225612,-0.5809276315646631 l 18.64270127986967 18.483362910142645" fill="red" stroke="none" /><path d="M 85.08716467003674 85.21462403516908 l -24.349693994572608 -24.141578202434882 a55.288823189686816,55.288823189686816 0 0,0 0.6740183553840452,-0.6682575493559519 l 23.931683719058586 24.556015762019506" fill="red" stroke="none" /><path d="M 85.34317274990677 84.96080404539775 l -24.242311757743398 -24.874747494546742 a55.73388464132803,55.73388464132803 0 0,0 0.6909077924641447,-0.6618740362140949 l 23.811731479413954 25.287233661066406" fill="red" stroke="none" /><path d="M 85.60350026404147 84.71141617570332 l -24.045607089661903 -25.535601454440748 a56.075036164634746,56.075036164634746 0 0,0 0.7064659591264646,-0.6538943448430888 l 23.603711359221485 25.944613545416203" fill="red" stroke="none" /><path d="M 85.86807049272753 84.46653392183569 l -17.904417332419165 -19.680091040597617 a47.60590429546875,47.60590429546875 0 0,0 0.6092081625662364,-0.5447576955306735 l 17.563944143029538 19.98454426601169" fill="red" stroke="none" /><path d="M 86.13680546590413 84.22622945171909 l -17.30476918128331 -19.689650735636004 a47.213305447974776,47.213305447974776 0 0,0 0.613369454972953,-0.5298139264071952 l 16.96422024654751 19.983808794507908" fill="red" stroke="none" /><path d="M 86.40962598614128 83.9905735841838 l -21.022212792935797 -24.764113810476196 a53.48376153603045,53.48376153603045 0 0,0 0.7050322808922528,-0.5881630040623127 l 20.594006177881635 25.12133899845039" fill="red" stroke="none" /><path d="M 86.68645165197937 83.75963576809568 l -16.73226967706569 -20.410648377026778 a47.392487865236916,47.392487865236916 0 0,0 0.6335906885292208,-0.5103758091475697 l 16.379428218181225 20.69487247996775" fill="red" stroke="none" /><path d="M 86.96720088162412 83.53348406188908 l -16.308900118041223 -20.60576252941211 a47.27884458036101,47.27884458036101 0 0,0 0.6407185236526954,-0.4982265993436811 l 15.952771649753283 20.882690180376596" fill="red" stroke="none" /><path d="M 87.25179093698888 83.31218511350988 l -20.22039951281209 -26.469152045815385 a54.30886618427929,54.30886618427929 0 0,0 0.7457047257087069,-0.5595907282449314 l 19.76304179819263 26.812361801324318" fill="red" stroke="none" /><path d="M 87.54013794807813 83.09580414077388 l -19.542183501042352 -26.512725104175843 a53.93662897805432,53.93662897805432 0 0,0 0.7500247570478852,-0.542960083842719 l 19.0841777336205 26.84428595939164" fill="red" stroke="none" /><path d="M 87.83215693770416 82.88440491214696 l -20.144607597200338 -28.33591336378678 a55.76678301777736,55.76678301777736 0 0,0 0.7849968956905944,-0.5479887991232847 l 19.65521561033598 28.677546978715192" fill="red" stroke="none" /><path d="M 88.12776184653039 82.6780497279521 l -18.53271775746331 -27.039789065119216 a53.78127240001426,53.78127240001426 0 0,0 0.7660084859862478,-0.5154046952441071 l 18.06581298338007 27.353943434420433" fill="red" stroke="none" /><path d="M 88.4268655584334 82.4767994020092 l -21.65170747240988 -32.783444730872425 a60.28804760856636,60.28804760856636 0 0,0 0.8684762192744652,-0.5629357927017035 l 21.085745620878388 33.150294365278036" fill="red" stroke="none" /><path d="M 88.72937992617638 82.28071324371311 l -25.714959812805212 -40.428187967026986 a68.91343799469469,68.91343799469469 0 0,0 1.0036286355811685,-0.6263384966556008 l 25.01716704843434 40.86366226052412" fill="red" stroke="none" /><path d="M 89.03521579738668 82.08984904055464 l -18.00065718822965 -29.402720715067012 a55.475261342829505,55.475261342829505 0 0,0 0.8164564810706783,-0.4902586581828508 l 17.49326795060154 29.707393373785784" fill="red" stroke="none" /><line stroke="#e1ed5e" stroke-width="0.3" x1="56.869717070023135" x2="54.33264160355391" y1="26.7553504044142" y2="22.446841604673864" /><path d="M 56.362301976729285 25.89364864446614 a86.0,86.0 0 0,1 42.16139366436587,-11.88097634709845" fill="none" id="id36" stroke="none" /><text fill="#e1ed5e" style="font-size:6.75px; font-family:Arial;" text-anchor="middle"><textPath startOffset="22.145653131862474" xlink:href="#id36">December</textPath></text><path d="M 89.34428304082924 81.90426304109057 l -10.806080452598295 -18.35108704334891 a42.29633232320991,42.29633232320991 0 0,0 0.6288206444374177,-0.3630497683379351 l 10.489467340300477 18.53388370896302" fill="red" stroke="none" /><path d="M 89.65649057296885 81.72400993836675 l -16.272666654560414 -28.75224276180488 a54.0377230432759,54.0377230432759 0 0,0 0.8112241070573155,-0.4499723373908934 l 15.776698359346998 29.02734801462892" fill="red" stroke="none" /><path d="M 89.97174638481275 81.54914285379989 l -16.286408802808207 -29.965157820713834 a55.10509925088147,55.10509925088147 0 0,0 0.8350028042296208,-0.44459196153228114 l 15.769617182792025 30.24032024996869" fill="red" stroke="none" /><path d="M 90.28995756902619 81.37971332152246 l -2.515126255449148 -4.823086226651231 a26.439487184520473,26.439487184520473 0 0,0 0.4042380765143868,-0.20640684217857827 l 2.431960957221179 4.865551020502643" fill="red" stroke="none" /><path d="M 90.61103034731259 81.2157712731953 l -14.707644651938583 -29.42514156444239 a53.89610565545978,53.89610565545978 0 0,0 0.831128639105245,-0.40654666577360526 l 14.200355763571286 29.67328198031321" fill="red" stroke="none" /><path d="M 90.93487009805054 81.0573650232925 l -27.195389705848363 -56.827904930122465 a84.0,84.0 0 0,0 1.3060451445139099,-0.6112950737178284 l 26.215855847462933 57.286376235410835" fill="red" stroke="none" /><path d="M 91.26138138417902 80.90454125486306 l -13.902906355962523 -30.380359462894695 a54.4104331943984,54.4104331943984 0 0,0 0.8526544909093454,-0.38138150845647006 l 13.379338462197559 30.614544722261012" fill="red" stroke="none" /><path d="M 91.5904679813234 80.7573450057729 l -10.533503471694582 -24.102717337439888 a47.30390994579945,47.30390994579945 0 0,0 0.7468722545392232,-0.3187953536932988 l 10.118196141984928 24.279987340792587" fill="red" stroke="none" /><path d="M 91.92203290615298 80.6158196554323 l -10.142360474459153 -24.337972942014368 a47.36672909027767,47.36672909027767 0 0,0 0.753233707985676,-0.30633359164838575 l 9.723072305283036 24.508493790242046" fill="red" stroke="none" /><path d="M 92.25597844496254 80.48000691201159 l -5.851684703782578 -14.750068056902602 a36.86841899987965,36.86841899987965 0 0,0 0.5902945288461957,-0.22833860472847323 l 5.5976179124428525 14.848346549769117" fill="red" stroke="none" /><path d="M 92.93061703081487 80.22567764915836 l -8.864664093781819 -24.79604317469575 a47.332983625426124,47.332983625426124 0 0,0 0.7674575103021867,-0.2669615605619492 l 8.437700811434627 24.944563167826285" fill="red" stroke="none" /><path d="M 93.27111125876988 80.10723608172694 l -8.43129024845594 -24.925611477462194 a47.31297707936339,47.31297707936339 0 0,0 0.7716008982797431,-0.25364054120579393 l 8.002166612528438 25.066672940070013" fill="red" stroke="none" /><path d="M 93.61358852112211 79.99465700312896 l -8.020095153102261 -25.12283383806397 a47.37193027292061,47.37193027292061 0 0,0 0.7768079965920414,-0.24065710303338106 l 7.587646523638604 25.25680752890399" fill="red" stroke="none" /><path d="M 93.95794788825049 79.88797359093562 l -7.541550270239376 -25.103368093331866 a47.21171627551046,47.21171627551046 0 0,0 0.7781839470022599,-0.22651800559799978 l 7.109506310855491 25.229129793232385" fill="red" stroke="none" /><path d="M 95.70440661134978 79.44403061299748 l -5.353828851545042 -25.620009162504168 a47.17342837418197,47.17342837418197 0 0,0 0.7940939390393366,-0.15884102770568936 l 4.913238426974729 25.708139586872726" fill="red" stroke="none" /><path d="M 96.05791012581881 79.37332000966035 l -4.929890691559671 -25.795271271758377 a47.26213704583711,47.26213704583711 0 0,0 0.7982018299194834,-0.1454589629132719 l 4.4863541280891495 25.87609840860301" fill="red" stroke="none" /><path d="M 96.76829788921471 79.25015418208739 l -2.47250529386711 -15.87525764224861 a37.06664518921028,37.06664518921028 0 0,0 0.6295591313494757,-0.0925235122490219 l 2.1996210569099497 15.915362227796516" fill="red" stroke="none" /><path d="M 97.12497278360702 79.19773525538626 l -3.595318953676474 -26.01393694266949 a47.26121157973961,47.26121157973961 0 0,0 0.8046157763842158,-0.10417362122197948 l 3.148225355401464 26.071822160091862" fill="red" stroke="none" /><path d="M 97.84075906011542 79.11130261209362 l -2.704043027855033 -26.159163384407314 a47.29854896507805,47.29854896507805 0 0,0 0.8083557083248444,-0.07655212602262444 l 2.254587756145173 26.201727265935123" fill="red" stroke="none" /><path d="M 98.1996594967304 79.07731436759882 l -2.260307630081299 -26.26820087134765 a47.365268206488494,47.365268206488494 0 0,0 0.810692664961886,-0.06275273944679526 l 1.809045970344196 26.303131377789498" fill="red" stroke="none" /><path d="M 98.5590905019552 79.04949213459386 l -1.8110184551572321 -26.331810874070136 a47.3940154533697,47.3940154533697 0 0,0 0.8121430540959728,-0.048856509405301854 l 1.3587310489287756 26.35901936130013" fill="red" stroke="none" /><path d="M 99.27912038922189 79.0123766808444 l -0.9051503979178726 -26.352466229664778 a47.36800662978666,47.36800662978666 0 0,0 0.8128951870658975,-0.020937296481077016 l 0.45264189678123123 26.364121243495898" fill="red" stroke="none" /></svg>